<?xml version="1.0" encoding="UTF-8" standalone="no"?>
<!-- Created with Inkscape (http://www.inkscape.org/) -->

<svg
   version="1.1"
   viewBox="0 0 940.54232 106.395"
   id="svg5231"
   sodipodi:docname="amigacd32.svg"
   inkscape:version="1.1 (c68e22c387, 2021-05-23)"
   width="940.5423"
   height="106.395"
   xmlns:inkscape="http://www.inkscape.org/namespaces/inkscape"
   xmlns:sodipodi="http://sodipodi.sourceforge.net/DTD/sodipodi-0.dtd"
   xmlns="http://www.w3.org/2000/svg"
   xmlns:svg="http://www.w3.org/2000/svg"
   xmlns:rdf="http://www.w3.org/1999/02/22-rdf-syntax-ns#"
   xmlns:cc="http://creativecommons.org/ns#"
   xmlns:dc="http://purl.org/dc/elements/1.1/">
  <sodipodi:namedview
     id="namedview5233"
     pagecolor="#ffffff"
     bordercolor="#111111"
     borderopacity="1"
     inkscape:pageshadow="0"
     inkscape:pageopacity="0"
     inkscape:pagecheckerboard="1"
     showgrid="false"
     inkscape:zoom="1.1711997"
     inkscape:cx="213.02943"
     inkscape:cy="52.937172"
     inkscape:window-width="1280"
     inkscape:window-height="738"
     inkscape:window-x="-8"
     inkscape:window-y="-8"
     inkscape:window-maximized="1"
     inkscape:current-layer="g5229"
     fit-margin-top="0"
     fit-margin-left="0"
     fit-margin-right="0"
     fit-margin-bottom="0" />
  <defs
     id="defs5207" />
  <metadata
     id="metadata5209">
    <rdf:RDF>
      <cc:Work
         rdf:about="">
        <dc:format>image/svg+xml</dc:format>
        <dc:type
           rdf:resource="http://purl.org/dc/dcmitype/StillImage" />
      </cc:Work>
    </rdf:RDF>
  </metadata>
  <g
     fill-rule="nonzero"
     transform="translate(623.476,407.594)"
     id="g5229"
     style="fill:#ffffff">
    <path
       d="m -547.4,-331.6 h -34.22 l -6.679,6.814 -7.524,7.414 c -1.446,1.626 -2.493,3.093 -3.133,4.407 -0.5005,1.008 -0.7182,2.015 -0.6719,3.023 0.0538,1.054 0.7964,2.03 2.234,2.93 1.438,0.8984 3.773,1.415 6.998,1.547 l 0.1099,2.257 h -33.19 l 0.7104,-2.257 c 2.922,-0.3906 5.5,-1.227 7.735,-2.493 2.969,-1.757 7.18,-5.366 12.63,-10.84 l 75.05,-74.34 h 3.688 l -0.008,71.95 c 0.0229,3.759 0.0551,6.032 0.0933,6.82 0.1568,2.993 1,5.164 2.548,6.524 1.554,1.367 4.055,2.156 7.523,2.375 l -0.7031,2.257 h -48.04 l 0.79,-2.257 c 4.742,-0.352 7.461,-0.6567 8.156,-0.9131 1.507,-0.6108 2.836,-1.893 4,-3.83 1.156,-1.945 1.758,-5.312 1.789,-10.12 l 0.1089,-11.27 z m -0.2651,-5.304 0.7416,-28.7 -29.31,28.7 h 28.57"
       fill="#dc2b27"
       id="path5211"
       style="fill:#ffffff" />
    <path
       d="m -443.7,-391.1 11.3,60.54 49.74,-60.54 h 39.02 l -0.875,2.257 c -5.344,0 -9.368,0.9068 -12.06,2.728 -2.686,1.82 -4.882,5.414 -6.578,10.79 l -17.61,56.38 c -1.132,3.594 -1.658,6.266 -1.562,8.016 0.0775,1.616 0.9612,2.921 2.649,3.906 1.688,0.9844 4.936,1.522 9.741,1.609 l -0.625,2.257 h -55.37 l 0.8675,-2.257 c 5.952,0 10.3,-0.9062 13.05,-2.728 2.742,-1.82 4.969,-5.422 6.664,-10.8 l 17.83,-57.1 -59.76,72.89 h -3.438 l -13.76,-74.32 -18.28,58.53 c -0.75,2.406 -1.086,4.422 -1.009,6.047 0.11,2.187 1.141,3.944 3.086,5.281 1.954,1.335 5.196,2.072 9.735,2.204 l -0.7038,2.257 h -36.68 l 0.6265,-2.257 c 4.414,-0.1318 7.757,-0.8755 10.04,-2.235 4.024,-2.452 6.835,-6.218 8.445,-11.3 l 20.68,-65.09 c -2.39,-1.992 -4.516,-3.288 -6.375,-3.898 -1.852,-0.6011 -4.938,-0.9068 -9.242,-0.9068 l 0.86,-2.257 h 39.61"
       fill="#dc2b27"
       id="path5213"
       style="fill:#ffffff" />
    <path
       d="m -333.9,-388.9 0.7888,-2.257 h 54.23 l -0.9525,2.257 c -4.915,0 -8.625,0.876 -11.13,2.626 -2.508,1.742 -4.601,5.39 -6.289,10.95 l -17.58,56.29 c -1.274,4.023 -1.875,6.71 -1.812,8.062 0.0788,1.577 0.9062,2.797 2.478,3.672 2.022,1.133 5.764,1.75 11.23,1.836 l -0.71,2.257 h -54.96 l 0.7888,-2.257 c 5.516,0 9.508,-0.8438 11.99,-2.523 2.476,-1.681 4.618,-5.367 6.406,-11.05 l 17.58,-56.29 c 1.078,-3.5 1.57,-6.142 1.484,-7.938 -0.085,-1.61 -0.915,-2.883 -2.484,-3.797 -1.571,-0.9224 -5.266,-1.531 -11.06,-1.837"
       fill="#dc2b27"
       id="path5215"
       style="fill:#ffffff" />
    <path
       d="m -116.4,-331.6 h -34.21 l -6.68,6.814 -7.524,7.414 c -1.446,1.626 -2.494,3.093 -3.14,4.407 -0.4925,1.008 -0.72,2.015 -0.665,3.023 0.0538,1.054 0.7962,2.03 2.235,2.93 1.436,0.8984 3.764,1.415 6.999,1.547 l 0.11,2.257 h -33.19 l 0.7038,-2.257 c 2.93,-0.3906 5.506,-1.227 7.735,-2.493 2.968,-1.757 7.186,-5.366 12.64,-10.84 l 75.05,-74.34 h 3.688 l -0.015,71.95 c 0.03125,3.759 0.0625,6.032 0.1012,6.82 0.1488,2.993 1,5.164 2.546,6.524 1.548,1.367 4.055,2.156 7.516,2.375 l -0.7025,2.257 h -48.04 l 0.7975,-2.257 c 4.734,-0.352 7.46,-0.6567 8.156,-0.9131 1.5,-0.6108 2.835,-1.893 3.991,-3.83 1.165,-1.945 1.759,-5.312 1.798,-10.12 l 0.1012,-11.27 z m -0.265,-5.304 0.75,-28.7 -29.31,28.7 h 28.56"
       fill="#dc2b27"
       id="path5217"
       style="fill:#ffffff" />
    <path
       d="m -177.2,-392.3 c 0.7975,0.7349 1.022,3.156 1.022,3.156 l -5.274,24.15 h -2.851 c -0.8425,-8.141 -1.14,-14 -5.569,-17.58 -4.422,-3.579 -6.711,-5.586 -14.38,-5.586 -7.898,0 -17.88,2.407 -25.56,6.79 -7.671,4.383 -17.19,11.14 -22.3,20.27 -5.101,9.132 -8.189,18.73 -7.688,28.79 0.4375,8.632 3.344,15.23 8.719,19.78 5.374,4.554 11.52,6.828 18.44,6.828 2.922,0 6.438,-0.625 10.55,-1.883 l 7.241,-23.22 c 1.226,-3.899 1.805,-6.445 1.75,-7.656 -0.085,-1.602 -1.008,-2.953 -2.781,-4.055 -1.781,-1.101 -4.766,-1.655 -8.968,-1.655 l 0.6862,-2.516 h 47.68 l -0.61,2.516 c -2.829,0.1406 -5.032,0.5704 -6.609,1.312 -1.57,0.7335 -2.79,1.82 -3.641,3.25 -0.5088,0.8438 -1.242,3.039 -2.211,6.562 l -8.172,26.16 c -11.55,3.79 -23.81,5.688 -36.78,5.688 -10.01,0 -18.58,-1.406 -25.74,-4.211 -7.155,-2.812 -13.2,-7.257 -18.11,-13.35 -4.921,-6.094 -7.57,-13.03 -7.961,-20.81 -0.8275,-16.59 7.812,-30.27 25.92,-41.03 14.19,-8.344 30.19,-11.99 48.55,-12.89 1.742,0 6.235,-0.4209 12.5,-0.4209 5.321,0 11.48,0.1704 20.4,0.8041 0,0 0.7662,-0.0937 1.742,0.8125"
       fill="#dc2b27"
       id="path5219"
       style="fill:#ffffff" />
    <path
       d="m -29.92,-370.1 v 43.88 c 0,12.11 9.61,21.94 21.45,21.94 h 47.02 c 11.84,0 21.45,-9.826 21.45,-21.94 l -0.0063,-11.21 h -21.28 v 4.219 c 0,5.446 -3.898,9.43 -9.218,9.43 h -29.24 c -5.314,0 -9.21,-3.983 -9.21,-9.43 v -27.94 c 0,-5.446 3.896,-9.43 9.21,-9.43 h 27.33 c 5.32,0 9.219,3.984 9.219,9.43 v 2.273 h 21.28 l 0.0075,-11.22 c 0,-12.11 -9.61,-21.94 -21.45,-21.94 h -45.12 c -11.84,0 -21.45,9.828 -21.45,21.94"
       fill="#231f20"
       id="path5221"
       style="fill:#e6e6e6" />
    <path
       d="m 94.01,-323.7 v -48.76 h 37.66 c 6.579,0 11.91,5.46 11.91,12.2 v 24.38 c 0,6.726 -5.335,12.19 -11.91,12.19 H 94.01 Z m -20.97,19.5 h 68.47 c 12.7,0 23.36,-10.91 23.36,-23.89 v -39.98 c 0,-12.98 -10.66,-23.89 -23.36,-23.89 H 73.04 v 87.76"
       fill="#231f20"
       id="path5223"
       style="fill:#e6e6e6" />
    <path
       d="m 267.5,-381.7 c -8.54,0 -17.24,4.508 -17.24,13.12 v 7.969 l 0.0863,0.007 v 11.52 h 66.72 v -12.34 h -48.08 c -6.195,-1.578 0.595,-6.626 3.744,-6.992 h 28.87 c 8.54,0 15.46,-6.994 15.46,-15.6 v -7.977 c 0,-8.61 -6.921,-15.6 -15.46,-15.6 h -33.98 c -8.539,0 -17.37,5.038 -17.37,13.66 v 7.969 h 16.8 v -1.618 c 0,-3.867 2.812,-6.704 6.648,-6.704 h 21.6 c 3.695,0 6.438,2.634 6.632,6.29 -0.195,3.648 -2.938,6.28 -6.632,6.28 l -27.81,0.009"
       fill="#dc2b27"
       id="path5225"
       style="fill:#ffffff" />
    <path
       d="m 229.6,-378.3 c 6.46,-0.4844 11.2,-2.5 11.2,-9.618 v -7.976 c 0,-8.61 -6.929,-11.7 -15.46,-11.7 h -30.18 c -8.53,0 -17.37,5.038 -17.37,13.66 v 7.969 h 16.81 v -1.618 c 0,-3.867 2.805,-6.704 6.641,-6.704 h 17.79 c 3.696,0 6.44,0.6879 6.635,4.337 -0.195,3.656 -2.939,6.28 -6.635,6.28 l -14.46,0.009 v 10.83 h 16.37 c 3.696,0 6.436,2.632 6.631,6.289 -0.195,3.648 -2.935,4.328 -6.631,4.328 h -19.7 c -3.836,0 -6.641,-2.829 -6.641,-6.696 v -1.624 h -16.81 v 7.976 c 0,8.61 8.838,13.65 17.37,13.65 h 32.09 c 9.741,-0.1719 15.46,-5.039 15.46,-13.65 v -6.022 c 0,-7.806 -5.686,-9.469 -13.1,-9.711"
       fill="#dc2b27"
       id="path5227"
       style="fill:#ffffff" />
  </g>
</svg>
