<?xml version="1.0" encoding="UTF-8" standalone="no"?>
<svg
   version="1.1"
   id="svg5564"
   sodipodi:docname="atomiswave.svg"
   width="600"
   height="89"
   inkscape:version="1.1 (c68e22c387, 2021-05-23)"
   xmlns:inkscape="http://www.inkscape.org/namespaces/inkscape"
   xmlns:sodipodi="http://sodipodi.sourceforge.net/DTD/sodipodi-0.dtd"
   xmlns="http://www.w3.org/2000/svg"
   xmlns:svg="http://www.w3.org/2000/svg">
  <defs
     id="defs5568" />
  <sodipodi:namedview
     id="namedview5566"
     pagecolor="#ffffff"
     bordercolor="#111111"
     borderopacity="1"
     inkscape:pageshadow="0"
     inkscape:pageopacity="0"
     inkscape:pagecheckerboard="1"
     showgrid="false"
     fit-margin-top="0"
     fit-margin-left="0"
     fit-margin-right="0"
     fit-margin-bottom="0"
     inkscape:zoom="3.4"
     inkscape:cx="540.44118"
     inkscape:cy="96.176471"
     inkscape:window-width="1280"
     inkscape:window-height="738"
     inkscape:window-x="-8"
     inkscape:window-y="-8"
     inkscape:window-maximized="1"
     inkscape:current-layer="svg5564" />
  <path
     id="Path_13"
     data-name="Path 13"
     d="M 0,88.829 21.177,0.002 32.302,45.477 21.757,89 0.002,88.833 Z"
     style="fill:#cccccc" />
  <path
     id="Path_14"
     data-name="Path 14"
     d="M 21.175,0 H 42.682 L 61.141,73.766 H 39.382 L 21.173,0 Z"
     style="fill:#fefefe" />
  <path
     id="Path_15"
     data-name="Path 15"
     d="M 55.7,8.761 66.573,51.675 61.136,73.761 50.264,30.073 55.7,8.756 Z"
     style="fill:#cccccc" />
  <path
     id="Path_16"
     data-name="Path 16"
     d="M 55.7,8.761 69.907,64.835 H 91.38 L 76.934,8.761 Z"
     style="fill:#ffffff" />
  <path
     id="Path_17"
     data-name="Path 17"
     d="M 103.491,17.52 91.377,64.835 80.42,22.376 82.068,17.52 Z"
     style="fill:#cccccc" />
  <path
     id="Path_28"
     data-name="Path 28"
     d="m 158.875,64.169 h -16.048 l -1.425,-11.64 h -12.554 l -3.362,11.64 h -15.795 c 0,0 0,-1.396 12.684,-46.757 25.952,-0.197 26.925,-0.185 28.284,2.184 1.166,1.773 1.368,4.416 8.216,44.573 z M 134.543,25.067 v 0 l -4.607,17.701 h 10.737 l -1.398,-17.701 z"
     style="fill:#ffffff" />
  <path
     id="Path_18"
     data-name="Path 18"
     d="m 167.668,62.522 c -1.8,-2.629 -2.043,-4.003 7.262,-36.55 -15.664,0.13 -17.087,0 -17.087,0 l 3.107,-8.56 h 45.559 l -2.589,8.56 h -13.979 c 0,0 0.016,0.061 -10.352,38.16 -9.075,-0.031 -10.457,0.525 -11.923,-1.61 z"
     style="fill:#ffffff" />
  <path
     id="Path_19"
     data-name="Path 19"
     d="m 248.695,19.393 c 1.555,2.369 0.778,3.683 -10.602,44.737 -35.218,0.228 -34.441,-0.032 -36.252,-2.137 -2.052,-2.383 -0.78,-3.954 10.368,-44.581 35.786,0 34.948,-0.381 36.486,1.981 z m -23.545,6.05 v 0 l -8.284,31.027 h 8.284 l 8.282,-31.027 z"
     style="fill:#ffffff" />
  <path
     id="Path_20"
     data-name="Path 20"
     d="m 247.932,64.13 c -0.893,-0.753 1.163,-3.233 12.427,-46.718 57.146,-0.194 54.036,-0.778 55.98,2.184 1.111,1.691 0.956,2.69 -9.903,44.534 -18.638,-0.159 -15.92,0 -15.92,0 l 9.32,-40.264 H 294.53 L 284.173,64.13 h -16.048 l 10.87,-40.264 h -5.177 L 262.945,64.13 Z"
     style="fill:#ffffff" />
  <path
     id="Path_21"
     data-name="Path 21"
     d="m 314.395,62.389 c -0.581,-2.168 0,-1.784 11.198,-44.977 16.18,-0.39 15.532,0 15.532,0 0,0 -0.53,2.771 -12.941,46.718 -11.066,-0.159 -13.236,0.314 -13.786,-1.736 z"
     style="fill:#ffffff" />
  <path
     id="Path_22"
     data-name="Path 22"
     d="m 336.982,64.13 2.459,-8.79 h 24.657 c 0,0 0.325,-1.757 3.429,-13.592 -22.261,-0.067 -22.857,1.054 -24.591,-1.84 -0.791,-1.32 0.246,-2.382 5.437,-22.496 34.675,0.13 40.902,0 40.902,0 l -2.07,7.506 -23.3,0.196 c 0,0 -0.273,-0.461 -3.107,8.744 23.297,-0.065 22.32,0.124 23.493,1.316 1.748,1.775 1.166,2.761 -5.889,28.956 -43.752,0.231 -41.42,0 -41.42,0 z"
     style="fill:#ffffff" />
  <path
     id="Path_23"
     data-name="Path 23"
     d="m 397.691,17.412 c -12.816,44.242 -12.502,43.702 -11.068,45.571 1.359,1.773 3.495,1.022 58.052,1.186 10.873,-42.758 12.166,-46.757 12.166,-46.757 h -16.05 l -11.132,40.904 h -5.695 l 11.131,-40.904 h -15.531 l -11.132,40.639 h -5.696 l 11.132,-40.639 z"
     style="fill:#ffffff" />
  <path
     id="Path_24"
     data-name="Path 24"
     d="m 502.145,17.412 c 5.957,43.783 6.148,44.254 7.51,45.635 1.163,1.184 1.227,1.117 31.129,1.117 11.066,-44.372 0.58,-2.375 11.584,-46.752 h -16.05 l -9.513,40.181 h -3.432 l -4.662,-40.181 c 0,0 -3.947,-0.194 -16.57,0 z"
     style="fill:#ffffff" />
  <path
     id="Path_25"
     data-name="Path 25"
     d="m 600,17.412 c 0,0 -1.748,0 -39.348,0 -11.327,44.963 -11.327,44.744 -10.357,45.963 0.975,1.219 2.33,0.789 39.348,0.755 0.843,-5.488 1.037,-8.249 1.037,-8.249 H 566.8 l 3.173,-13.606 20.902,-0.198 1.877,-8.219 h -20.711 l 2.332,-8.94 h 24.075 z"
     style="fill:#ffffff" />
  <path
     id="Path_27"
     data-name="Path 27"
     d="m 501.625,64.169 h -16.048 l -1.425,-11.64 h -12.557 l -3.363,11.64 h -15.793 c 0,0 0,-1.396 12.686,-46.757 25.952,-0.197 26.923,-0.185 28.282,2.184 1.168,1.773 1.368,4.416 8.218,44.573 z M 477.291,25.067 v 0 l -4.602,17.701 h 10.738 L 482.03,25.067 Z"
     style="fill:#ffffff" />
</svg>
