<?xml version="1.0" encoding="UTF-8" standalone="no"?>
<!-- Generator: Gravit.io -->

<svg
   style="isolation:isolate"
   viewBox="0 0 397.328 103.708"
   width="397.328"
   height="103.708"
   version="1.1"
   id="svg1"
   sodipodi:docname="auto-lastplayed.svg"
   inkscape:version="1.4 (86a8ad7, 2024-10-11)"
   xmlns:inkscape="http://www.inkscape.org/namespaces/inkscape"
   xmlns:sodipodi="http://sodipodi.sourceforge.net/DTD/sodipodi-0.dtd"
   xmlns="http://www.w3.org/2000/svg"
   xmlns:svg="http://www.w3.org/2000/svg">
  <defs
     id="defs1" />
  <sodipodi:namedview
     id="namedview1"
     pagecolor="#000000"
     bordercolor="#000000"
     borderopacity="0.25"
     inkscape:showpageshadow="2"
     inkscape:pageopacity="0.0"
     inkscape:pagecheckerboard="0"
     inkscape:deskcolor="#d1d1d1"
     inkscape:zoom="1.1174647"
     inkscape:cx="267.12254"
     inkscape:cy="2.2372072"
     inkscape:window-width="1920"
     inkscape:window-height="1017"
     inkscape:window-x="-8"
     inkscape:window-y="-8"
     inkscape:window-maximized="1"
     inkscape:current-layer="svg1" />
  <path
     style="font-size:85.3333px;line-height:1.7;font-family:'Viner Hand ITC';-inkscape-font-specification:'Viner Hand ITC';letter-spacing:-12.48px;word-spacing:7.01px;fill:#ffffff"
     d="m 35.523161,17.470847 2.124999,0.166667 -0.416666,1.374999 1.541666,0.75 0.583333,-0.583333 0.416667,0.583333 2.458332,0.583333 0.791666,-0.75 0.583333,0.958333 1.375,0.583333 h 0.958333 l 0.583333,0.333334 0.583333,-0.5 0.958333,0.5 4.249998,0.749999 0.416667,0.291667 q 1.499999,0 3.666665,-0.291667 1.083333,0.625 3.083332,1.041667 l 0.25,0.958332 -0.416667,1.166667 0.791666,1.541666 -3.874998,4.874998 -1.333333,0.499999 -5.208331,4.291665 -1.791666,1.166666 -5.666664,3.333332 -0.75,0.791667 -0.749999,-0.458333 -1.958333,1.208332 -0.791666,1.541666 0.25,2.708333 1.541666,6.166664 4.874998,7.166663 2.041665,2.374999 -0.499999,1.125 1.708332,1 1.083333,0.791666 q 0.25,0.166667 0.625,0.208333 l 0.999999,0.125 1.541666,1.958333 h 0.958333 l 1.333333,0.333333 v -0.5 l 1.041666,0.333333 h 0.75 l 1.374999,0.791667 1.708333,0.416666 2.583332,2.124999 h 0.5 l 0.416667,1.541666 0.583333,0.333333 v 0.791667 l -2.374999,1.791666 -1.874999,0.333333 -1.208333,-0.333333 v -0.208334 l -2.291666,-0.583333 -2.916665,-1.374999 -1.958333,-1.708333 -1.291666,-0.666666 q -0.666667,-0.333333 -1.583333,-1.291666 h -1.208333 l -1.124999,-1.333333 -0.916666,-0.208333 v -0.416667 l -1.625,-0.583333 -0.5,0.25 Q 40.981492,66.30416 40.731493,65.845827 l -1.708333,-0.166666 -0.25,-1.375 -0.958333,-0.75 -1.958332,-0.166666 -0.958333,-1.208333 -1.166667,-0.416667 v -0.541666 h 1.791666 q -1.874999,-0.375 -3.166665,-1 l -0.5,-1.124999 -0.625,-0.25 -0.166666,-1.291666 -1.375,-1.333333 1.541666,-2.749999 -0.583333,-0.583333 -1.708332,-0.166666 -0.416667,-1.541666 -1.374999,-0.791667 -0.166667,0.375 -1.208333,0.416667 -0.166666,1.374999 -0.916666,0.75 v 1.124999 l -0.625,1.333333 0.958333,1.208333 -0.625,0.166666 q -0.291667,2.249999 -0.916666,3.666666 l 0.166666,0.791666 -0.499999,0.583333 0.166666,1.208333 h -0.416666 l 0.25,1.874999 -0.625,3.124999 v 3.083332 l -0.416667,0.624999 -0.333333,2.458333 -0.416666,1.958332 -0.166667,1.541666 -1.208333,2.124999 -0.125,0.833333 q -0.04167,0.375 -0.833333,1.458333 l 0.208333,0.291667 -1.124999,2.624999 -0.875,0.583333 -0.874999,1.874999 q -0.208334,0.458333 -0.625,0.791666 l -1.125,1 v 0.625 l -1.208332,0.166666 0.166666,1 -0.5,1.541666 -3.1666649,2.333332 -2.1249992,-0.375 -0.583333,-0.583333 0.2499999,-0.416666 H 7.0231733 L 7.4398398,92.970816 6.2315069,92.05415 6.3981735,90.262484 5.8981737,89.92915 6.2315069,88.970817 q 0.1666666,-0.416666 1.2083329,-1.458332 l -0.2499999,-0.5 q 0.9583329,-1.708333 2.7083322,-2.916666 l 2.3333319,0.541667 h 1 l -0.166667,0.583333 0.791667,-0.791666 V 83.512486 L 14.77317,83.09582 v -1.125 l 0.333333,-0.416666 0.25,0.166666 v -1.874999 h 0.625 l 0.333333,-1.041666 -0.583333,-0.916666 0.75,-1.208333 0.416666,-3.083332 h 0.333333 v -0.583333 l 0.625,-0.333333 -0.625,-1.625 0.875,-1.124999 0.5,-0.166667 -0.5,-2.374999 0.333333,0.25 0.416667,-1.624999 -0.25,-0.5 0.5,-1.999999 q 0.124999,-0.416667 0.874999,-1.333333 l -0.333333,-1.541666 h 0.5 l -0.333333,-1.374999 h 0.166666 l 1.791666,-8.499997 1.125,-0.791666 -0.208334,-1.208333 0.625,-1.874999 -0.166666,-0.75 0.166666,-1.208333 0.75,-0.416666 -0.166667,-1.291666 0.5,-0.583334 -0.166667,-1.541666 0.458334,-1.208332 -0.791667,-0.916667 0.958333,-0.583333 v -0.625 L 23.4815,37.012506 23.148167,36.054173 v -0.25 l -0.625,-0.333333 0.791666,-1.041666 -1.374999,0.249999 -0.958333,1.083333 q -0.583333,0.625 -1.083333,0.958333 l -1.458333,0.875 h -1.541666 l -0.416666,-1 -0.958333,-0.375 1.541666,-2.874998 1.791666,-1.208333 q 0.166666,-0.625 0.541666,-1.125 l 0.583333,-0.25 q 0.333333,-0.499999 1.375,-1.541666 l -0.958333,-1.333332 0.541666,-1.166667 q 0.25,-0.541666 0.416667,-2.499999 l -0.333334,-0.624999 0.5,-0.583333 0.583333,-0.166667 0.333333,-0.458333 q 0.08333,-0.166667 2.25,-1.416666 l 0.166666,-0.416667 q 1.874999,-0.999999 4.249998,-1.708332 l 0.958333,0.5 1,-0.333334 0.5,0.333334 1.041666,-1.125 h 1.124999 l 0.25,-0.583333 z m 7.916664,8.249997 -1.375,0.625 v 0.916666 l -1.499999,0.625 -5.833331,-0.166667 -1.791666,0.333333 -0.75,1 0.166667,1.708332 -1.874999,4.291665 -1.541666,0.416667 v 0.749999 l 0.958333,0.791667 -0.458333,1.374999 0.458333,0.166667 -1.375,1.541666 v 0.999999 l -0.958333,1.875 -0.416666,2.583332 1.541666,-0.458333 0.416666,-0.583333 0.583333,-0.166667 0.625,-1.708333 0.875,-0.291666 q 0.375,-0.125 1.166666,-0.916666 l 1.374999,-0.166667 0.25,-0.916666 1.875,-0.875 0.999999,1.041666 5.833331,-3.666665 1.541666,-0.791666 1.166666,-1 0.75,-0.25 q 0.375,-0.125 0.958333,-0.708333 l 0.791666,0.166667 0.416667,-1.083333 1.874999,-1.041666 1.041666,-1.125 0.75,-0.541666 q 0.333333,-0.291667 0.916666,-1.25 0,-0.458333 -1.083333,-1.708332 l -7.416663,-0.583333 -0.958333,-0.583333 z m 61.061635,-3.833332 0.29167,0.25 -2.66667,3.416665 -0.25,0.458333 -1.875,0.916667 -1.041664,-0.416667 q -1,1.125 -2.124999,1.541666 l -0.75,-0.166666 -0.791666,1.166666 -0.916667,0.375 -1.458332,-0.958333 -0.416667,-1.208333 -2.833332,0.625 -1.874999,-0.791667 -3.249999,0.625 H 81.37647 q -0.291667,2.666666 -0.833333,3.833332 l 0.25,0.416666 -0.5,2.916666 -0.625,2.124999 v 1.624999 l -0.416666,0.416667 0.25,0.749999 6.749997,0.541667 3.416665,-0.708333 2.916666,0.791666 1.624999,-1.874999 h 2.541666 l 0.333333,0.75 1.374999,0.583333 v 1.208332 l -0.708333,0.666667 Q 97.41813,42.05417 96.584797,43.92917 l -2.208333,1.541666 -1.458332,0.666666 q -0.791667,0.333333 -2.124999,0.333333 l -4.708332,-0.583333 -2.374999,0.416667 -1.791666,0.583333 -1.874999,-0.25 -1.041666,0.25 h -1.125 l -0.333333,0.166666 -0.75,1.999999 -0.499999,1.708333 -1.041667,1.791666 -1.124999,6.291664 -0.75,6.666664 -0.749999,1.708333 -0.125,4.666664 0.791666,0.541667 2.999999,0.416666 1.249999,0.75 h 1.708333 l 0.874999,0.541666 1.25,-0.375 1.291666,0.458334 3.833332,-0.541667 1.874999,0.08333 0.375,-0.333333 h 1.958332 l 1.708333,-0.583333 1.624999,0.166667 0.416667,-0.333333 3.499998,-1.041667 -0.624999,-1.374999 0.458333,-0.916666 q 0.874999,-2.708333 1.708332,-4.249999 l 2.124998,0.166667 1.54167,-0.958333 h 2.375 q 0.95833,1.333333 3.08333,2.916666 l 0.33333,2.291665 v 0.75 l -0.75,1.041666 v 0.791666 l -0.95833,0.583334 v 0.916666 q -1.16667,1.416666 -3.83333,1.958332 l -0.375,0.708333 q -0.20834,0.416667 -0.66667,0.708333 l -1.08333,0.75 -4.541666,0.166667 -2.041666,1.374999 h -3.083332 l -0.75,-0.458333 -0.625,0.458333 -0.749999,-0.791666 -3.666666,1.124999 h -1.874999 l -0.583333,0.583333 -2.333332,-0.416666 -2.874999,0.833333 -1.375,-0.25 -1.041666,0.583333 -2.374999,-0.333333 -3.166665,0.333333 -1.208333,-0.333333 -0.75,1.708333 -0.749999,0.958333 -0.208334,0.583333 q -0.08333,0.249999 -1.083332,1.374999 v 0.416667 q -0.916667,0.958332 -1.375,1.874999 l -2.124999,0.791666 -2.666666,1.791666 -0.749999,-1.958333 0.5,-1.374999 -0.08333,-1.541666 1.458333,-2.124999 1.458333,-0.625 0.833333,-2.291666 -2.124999,-0.583333 -0.5,0.416667 -1.041666,-0.75 h -3.749999 l -0.583333,0.75 -2.583332,-0.166667 -1.583333,-2.583332 v -1.958333 h -0.125 l -0.166666,-1.333332 0.958333,-0.375 0.333333,-0.75 1.791666,-1.458333 h 1.958332 l 1.791666,-0.666666 q 1.458333,0 3.749999,0.833333 l 1.874999,-0.666666 q 1.416666,0 3.249998,0.749999 l 0.5,-1.083333 -0.25,-1.041666 1.541666,-8.249996 q 0.08333,-0.791667 0.875,-3.166666 l -0.25,-1.124999 0.75,-1.541666 1.291666,-7.916664 -1.458333,-2.416665 q 0.541667,-1.041666 2.124999,-2.458333 l -0.333333,-1.958332 0.5,-0.166667 0.874999,-1.958332 -0.249999,-0.958333 0.666666,-1.375 -0.958333,-1.333332 0.541666,-1.541666 -0.374999,-1.041667 v -1.541666 l 0.624999,-0.916666 -0.791666,-0.791666 v -2.124999 l -2.958332,-0.583333 h -0.791666 l -5.291665,1.249999 -2.958332,-0.5 -0.791666,1.208333 -1.625,0.166667 -1.374999,-2.458333 0.541666,-1.041666 0.583333,-0.166666 0.5,-0.958333 2.166666,-1.791666 h 1.499999 l 0.791667,-1.5 0.583333,0.166667 q 0.583333,-0.625 1.374999,-1.125 h 0.75 l 1.124999,0.333334 2.541666,0.166666 2.749999,-0.333333 0.875,0.583333 v -0.25 l 0.499999,-0.333333 1.541666,0.583333 0.08333,-0.416666 2.791665,-0.583333 -0.416666,-0.166667 q 1.916666,-1.083333 2.916665,-1.208333 l -0.375,1.208333 0.625,0.333333 2.624999,-0.666666 0.625,0.749999 3.208332,0.5 0.791666,0.625 0.666666,-0.166667 0.333334,0.916667 3.166665,-0.916667 v 0.583333 l 1.458333,0.166667 1.791666,-0.583333 4.249998,0.833333 3.791664,-3.416665 1,-0.416667 h 1.45833 l 1.04167,0.666667 0.16667,1.291666 -1.54167,2.208332 z m 6.68666,54.624977 -0.54167,-0.958333 -3.5,-1.166666 -1.95833,-2.124999 -0.58333,-2.333332 -0.95834,-0.75 -1.16666,-2.749999 v -2.124999 l 0.58333,-0.833333 -0.25,-0.958333 0.25,-1.083333 1.20833,-2.333332 -0.625,-1.791666 0.625,-0.333333 0.75,-2.124999 -0.25,-2.291666 1.375,-0.625 V 50.3875 h 0.75 l 0.41667,-1.791666 h 0.20833 l 0.41667,-0.583333 -0.41667,-0.333333 h 0.41667 l 0.16667,-0.541666 v -1.875 l 2.54166,-1.874999 -0.25,-0.416666 1.79167,-2.458333 h 0.16666 l 0.625,-1.208332 1.08334,-0.333334 v -0.791666 h 0.41666 l 0.20834,-1 1.95833,-2.291665 0.33333,-0.208334 0.25,-0.416666 q 0.91667,-0.916666 0.95834,-1.083333 l 0.41666,-0.291666 0.75,-1.333333 2.91667,-2.666666 1.375,-1.666666 q 0.33333,-0.458333 0.83333,-0.749999 l 1.29167,-0.75 0.16666,-0.583333 2.125,-0.75 -0.16667,-0.375 q 0.95834,-0.833333 1.70834,-0.999999 v -0.166667 l 0.58333,-0.958333 1.54167,-0.583333 q 2.04166,-1.791666 3.08333,-2.124999 l 2.70833,-0.958333 0.79167,0.333333 0.91666,-0.333333 h 0.29167 l 1.08333,0.333333 0.25,1.041666 0.54167,-0.249999 0.25,0.249999 v 0.5 l 0.58333,1.625 0.33334,6.166664 h -0.16667 l 0.16667,0.166666 -0.91667,4.249998 -0.25,-0.499999 -0.375,2.124999 0.16667,0.874999 -0.75,1 h -0.16667 l -0.0833,0.666666 0.33333,1.208333 -0.41667,1.458333 v 0.333333 h -1.04166 l -0.75,1.958333 v 0.166666 h -0.16667 l -2.125,2.583332 -0.79167,0.333334 -0.41666,1.041666 -0.79167,-0.458333 0.20834,1.374999 -0.375,0.583333 h -0.75 l -0.16667,-0.416666 -1.79167,-0.75 -0.79166,-1.708333 0.16666,-1.374999 0.29167,-0.166667 2.70833,-7.33333 1.875,-2.208332 0.41667,-2.499999 -0.58334,-4.416665 -2.20833,-0.625 -1.70833,0.166667 -1.125,0.625 h -0.16667 l -0.83333,1.166666 -3.08333,1.916666 -1.20833,-0.208334 -0.91667,1.208333 0.16667,0.166667 v 0.166666 l -0.95834,0.25 -0.16666,0.791667 q -1.125,0.874999 -2.70834,2.291665 -0.16666,0.333334 -1.54166,1.958333 v 0.166666 l -0.95833,0.625 v 0.333333 l -1,0.416667 v 0.583333 h -0.16667 l -1.95833,2.916665 0.25,0.333334 -2.41667,4.708331 -0.91667,0.333333 v 0.416667 h 0.5 l -0.25,1.958332 -0.58333,1.125 -0.79166,3.499998 -0.83334,0.75 q -0.5,4.624998 -0.625,5.041665 l 1.125,0.791666 -0.25,2.874999 0.58334,2.749999 q 1.20833,1.833332 1.37499,3.416665 l 1.20834,-0.625 1.25,1.458333 2.16666,1.874999 q 2.16667,0.5 3.66667,0.625 l 1.875,-1.041667 0.58333,0.791667 3.66667,-0.958333 1.04166,0.5 0.16667,-0.333334 5.45833,-1.624999 h 0.75 l 2.91666,-1.958332 2.625,-0.75 1.95834,-0.791666 2.58333,-1.791666 h 0.58333 l 0.95833,-0.75 3.83334,-3.833332 1.20833,-0.791666 -0.625,-2.124999 -2.45833,-1.208333 0.16666,-0.916666 8.875,-3.916665 0.25,-0.375 q 1.45833,-0.416667 1.70833,-0.75 h 0.58333 l 0.625,1.541666 h 0.5 l -0.5,2.291666 h -0.625 l -0.74999,1.541666 v -0.333333 l -0.41667,0.333333 -0.45833,1.458333 -1.875,1.874999 -0.16667,-0.416667 q -1.33333,1.958333 -1.625,2.124999 v 0.583334 l -1.875,1.208332 q -0.29167,0.375 -0.58333,0.583333 h -0.91667 l -0.29166,0.5 q -0.83334,0.333333 -1.33334,1.625 l -2.66666,1.291666 -0.25,0.25 -0.16667,-0.25 q -0.79167,0.375 -1.375,1.208333 h -0.33333 l -0.58334,0.749999 -0.45833,-0.166666 -0.16666,0.791666 -1.54167,0.166667 -0.79167,0.791666 q -0.375,0.375 -2.08333,1.166666 v 0.166667 l -0.625,-0.166667 q -0.54167,0.08333 -1.33333,0.75 l -0.16667,0.958333 -0.79167,-0.166667 -0.74999,0.416667 v 0.166666 h -1.54167 q -1.125,1.166666 -2.29167,1.625 -1.125,0.458333 -4.37499,1.083332 v 0.541667 l -1.875,-0.166667 v 0.75 l -1.04167,-0.166667 -0.33333,0.166667 v 0.25 h -1.16667 l -0.20833,0.791666 -2.29167,0.25 z m 87.76995,-54.624977 0.29166,0.25 -2.66666,3.416665 -0.25,0.458333 -1.875,0.916667 -1.04167,-0.416667 q -1,1.125 -2.125,1.541666 l -0.75,-0.166666 -0.79166,1.166666 -0.91667,0.375 -1.45833,-0.958333 -0.41667,-1.208333 -2.83333,0.625 -1.875,-0.791667 -3.25,0.625 h -3.16666 q -0.29167,2.666666 -0.83334,3.833332 l 0.25,0.416666 -0.5,2.916666 -0.62499,2.124999 v 1.624999 l -0.41667,0.416667 0.25,0.749999 6.75,0.541667 3.41666,-0.708333 2.91667,0.791666 1.625,-1.874999 h 2.54166 l 0.33333,0.75 1.375,0.583333 v 1.208332 l -0.70833,0.666667 q -0.33333,0.291666 -1.16667,2.166666 l -2.20833,1.541666 -1.45833,0.666666 q -0.79167,0.333333 -2.125,0.333333 l -4.70833,-0.583333 -2.375,0.416667 -1.79167,0.583333 -1.875,-0.25 -1.04166,0.25 h -1.125 l -0.33333,0.166666 -0.75,1.999999 -0.5,1.708333 -1.04167,1.791666 -1.125,6.291664 -0.75,6.666664 -0.75,1.708333 -0.125,4.666664 0.79167,0.541667 3,0.416666 1.25,0.75 h 1.70833 l 0.875,0.541666 1.25,-0.375 1.29166,0.458334 3.83334,-0.541667 1.87499,0.08333 0.375,-0.333333 h 1.95834 l 1.70833,-0.583333 1.625,0.166667 0.41667,-0.333333 3.49999,-1.041667 -0.625,-1.374999 0.45834,-0.916666 q 0.875,-2.708333 1.70833,-4.249999 l 2.125,0.166667 1.54167,-0.958333 h 2.37499 q 0.95834,1.333333 3.08334,2.916666 l 0.33333,2.291665 v 0.75 l -0.75,1.041666 v 0.791666 l -0.95833,0.583334 v 0.916666 q -1.16667,1.416666 -3.83333,1.958332 l -0.375,0.708333 q -0.20834,0.416667 -0.66667,0.708333 l -1.08333,0.75 -4.54167,0.166667 -2.04166,1.374999 h -3.08334 l -0.75,-0.458333 -0.625,0.458333 -0.75,-0.791666 -3.66666,1.124999 h -1.875 l -0.58333,0.583333 -2.33334,-0.416666 -2.87499,0.833333 -1.375,-0.25 -1.04167,0.583333 -2.375,-0.333333 -3.16666,0.333333 -1.20834,-0.333333 -0.75,1.708333 -0.75,0.958333 -0.20833,0.583333 q -0.0833,0.249999 -1.08333,1.374999 v 0.416667 q -0.91667,0.958332 -1.375,1.874999 l -2.125,0.791666 -2.66667,1.791666 -0.75,-1.958333 0.5,-1.374999 -0.0833,-1.541666 1.45833,-2.124999 1.45834,-0.625 0.83333,-2.291666 -2.125,-0.583333 -0.5,0.416667 -1.04167,-0.75 h -3.75 l -0.58333,0.75 -2.58333,-0.166667 -1.58333,-2.583332 v -1.958333 h -0.125 l -0.16667,-1.333332 0.95833,-0.375 0.33334,-0.75 1.79166,-1.458333 h 1.95833 l 1.79167,-0.666666 q 1.45833,0 3.75,0.833333 l 1.875,-0.666666 q 1.41666,0 3.25,0.749999 l 0.5,-1.083333 -0.25,-1.041666 1.54166,-8.249996 q 0.0833,-0.791667 0.875,-3.166666 l -0.25,-1.124999 0.75,-1.541666 1.29167,-7.916664 -1.45833,-2.416665 q 0.54166,-1.041666 2.125,-2.458333 l -0.33334,-1.958332 0.5,-0.166667 0.875,-1.958332 -0.25,-0.958333 0.66667,-1.375 -0.95834,-1.333332 0.54167,-1.541666 -0.375,-1.041667 v -1.541666 l 0.625,-0.916666 -0.79167,-0.791666 v -2.124999 l -2.95833,-0.583333 h -0.79166 l -5.29167,1.249999 -2.95833,-0.5 -0.79167,1.208333 -1.625,0.166667 -1.375,-2.458333 0.54167,-1.041666 0.58333,-0.166666 0.5,-0.958333 2.16667,-1.791666 h 1.5 l 0.79167,-1.5 0.58333,0.166667 q 0.58333,-0.625 1.375,-1.125 h 0.75 l 1.125,0.333334 2.54166,0.166666 2.75,-0.333333 0.875,0.583333 v -0.25 l 0.5,-0.333333 1.54167,0.583333 0.0833,-0.416666 2.79167,-0.583333 -0.41667,-0.166667 q 1.91667,-1.083333 2.91666,-1.208333 l -0.37499,1.208333 0.62499,0.333333 2.625,-0.666666 0.625,0.749999 3.20834,0.5 0.79166,0.625 0.66667,-0.166667 0.33333,0.916667 3.16667,-0.916667 v 0.583333 l 1.45833,0.166667 1.79167,-0.583333 4.24999,0.833333 3.79167,-3.416665 1,-0.416667 h 1.45833 l 1.04167,0.666667 0.16666,1.291666 -1.54166,2.208332 z m 61.7283,-8.541663 0.33334,0.208333 h 1 l 3.83333,2.708332 2.75,2.916666 -4.625,3.333332 -0.58333,0.75 -3.16667,0.749999 -1.54167,-0.166666 -1.33333,-1 h -0.79166 l -3.5,7.166664 -1.54167,1.791666 -0.16667,1.874999 -1.33333,2.541665 -0.625,1.958333 -0.75,1.125 -0.33333,2.749998 -0.54167,1.458333 q -0.0833,0.25 -1.08333,1.25 v 0.958332 l -0.54167,1.791666 0.375,1.083333 q -0.625,1.958333 -1.125,2.749999 l 0.16667,1.541666 -0.58333,1.958333 0.41666,0.333333 v 1.041666 l 0.75,0.75 -0.41666,1.374999 0.41666,3.083332 h -0.25 l -0.16666,2.291666 q 0,0.666666 1.79166,2.708332 l -0.41666,0.625 0.75,0.916666 0.45833,3.916665 -1.04167,0.958333 v 1.125 l -0.58333,1.333332 h -0.54167 l -1.79166,2.583333 -1.5,-0.166667 -1.375,1.624999 -2.5,1.791666 -1.79167,-3.249998 v -3.333332 l -0.58333,-2.916666 0.25,-1.374999 -2.375,-3.458332 0.58333,-0.958333 -0.58333,-1.124999 0.41667,-0.416667 -1.54167,-0.583333 -0.58333,0.416666 q -0.20833,-0.749999 -1.54167,-2.208332 h -0.58333 l -0.95833,-3.249999 -1.79167,-1.624999 -0.91667,-1.874999 q -0.70833,-1.208333 -0.79166,-1.958333 l -2.29167,-2.124999 -0.58333,-1.208333 0.16667,-0.958333 -0.625,-0.916666 -0.58334,-0.25 -0.5,-1.291666 h -0.45833 l -0.58333,-1.624999 -1.20834,-1.583333 q -0.25,-0.291666 -0.5,-1.499999 l -1,0.208333 -1.12499,2.374999 v 0.75 q -0.29167,1.708332 -0.95834,3.666665 l -0.83333,0.458333 0.41667,1.333333 0.95833,0.625 -0.375,1.874999 v 2.124999 l -1.95833,2.374999 0.16666,1.708333 -0.5,1.208332 0.5,1.291666 -0.33333,0.416667 0.16667,1.208333 -0.75,1.708332 v 1.166667 l -0.75,0.958333 -0.625,2.541665 v 0.791666 l -0.33334,0.333334 -1.95833,6.041664 -0.58333,1.124999 -1.54167,0.75 0.16667,0.458333 -3.08333,1.333333 -1.54167,-0.416667 -0.41667,-1.541666 1.04167,-1.166666 -0.45833,-0.541666 h -1.16667 v -0.416667 l 1.33333,-1.208333 -0.33333,-1.541666 1.375,-0.333333 1.875,-2.541665 0.58333,-2.291666 v -0.958333 l 0.95834,-1.041666 v -1.708333 l 2.54166,-10.458329 -0.16667,-0.625 v -1.708332 l 1.125,-1.708333 -0.33333,-1.166666 0.91667,-1.541666 0.16666,-1.041666 0.45834,-1.541666 -0.20834,-0.75 0.625,-2.291666 -1.625,-4.124998 q 0.375,-0.583333 1.20834,-1.083333 l -0.625,-2.166666 0.41666,-1.333332 0.79167,-0.166667 0.16667,-1.208333 h -3.5 l -3.5,1.208333 -0.75,-0.458333 -1.875,3.874998 -4.875,4.499998 -2.58333,1.125 -1.08333,-2.124999 v -1.541666 l 0.91666,-0.375 -0.16666,-0.833333 -0.58334,-0.166667 v -0.958333 l 0.91667,-0.749999 v -0.791667 l 1.54167,0.541667 0.41666,-0.541667 -0.58333,-0.583333 q 0.16667,-0.416666 1.79167,-2.291665 l 2.12499,-0.583333 0.16667,-1.375 0.95833,0.166667 0.79167,-0.875 q 0.25,-0.25 0.875,-0.5 l 1.66667,-0.583333 0.16666,-0.333333 1.16667,-0.125 q 0.70833,-0.08333 1.25,-0.5 0.54167,-0.416666 2.58333,-0.749999 l 2,-0.333334 4.66666,-2.666665 1.125,-1.208333 2.375,-0.916666 2.08334,-0.25 1.08333,2.208332 q -1.20833,2.124999 -1,3.083332 l 1.25,6.749997 0.625,1.583333 v 1.125 h 1.08333 l 0.16667,1.708332 1.79166,1.541666 -0.16666,1.125 0.375,0.416666 3.29166,5.624998 3.5,6.916664 0.95833,0.999999 v 0.541667 l 0.75,0.833333 1.20834,0.166666 0.16666,-0.999999 0.58334,-0.166667 v -0.625 l 1.54166,-5.041664 0.125,-1.208333 q 0.0417,-0.5 0.83333,-2.624999 l 1.625,-1.166666 V 42.80417 l 0.91667,-1.541666 v -1.166666 q 0.91667,-1.166666 1.375,-3.083332 0.29167,-0.125 0.70833,-0.666667 l 0.41667,-0.541666 2.375,-6.374997 q 0.41666,-0.916667 0.83333,-1.208333 l 0.54167,-2.208333 0.75,-0.624999 0.95833,-1.791666 0.58333,-1.708333 0.75,-0.916666 q 0.375,-0.416667 0.79167,-1.624999 l 0.75,-0.166667 2.16666,-4.041665 0.91667,-0.833333 h 0.41667 q 0.5,-0.75 0.79166,-0.75 z m 45.35331,5.416664 2.91667,-1.708332 1.70833,-0.291667 -0.16667,2.583333 -1.625,2.124999 -2.75,1.374999 -0.5,1.083333 -2.70833,1.208333 -0.45833,0.791666 -2.20833,0.833333 -3,0.333333 -1.33334,0.333333 -0.95833,-0.749999 -1.16666,0.416666 0.41666,-1.374999 -1.95833,-0.25 -0.625,0.25 -1.08333,-0.416667 -1.20834,0.416667 -0.75,-0.416667 -1.20833,0.416667 q -0.375,1.124999 -1.20833,2.666665 l -0.75,1.375 -0.33333,2.541665 -2.58334,5.624998 -0.16666,0.625 -0.875,1.208333 q -0.5,0.666666 -0.5,1.999999 v 1.999999 l -0.58334,1.499999 -0.95833,1.541666 -0.75,2.916666 0.58333,1.208333 -0.58333,2.708332 -0.41667,0.791666 0.25,0.916666 -0.58333,0.583334 0.33333,0.374999 -0.33333,1.958333 0.16667,0.583333 -0.625,1.791666 -0.0833,1.791666 -0.91667,2.666665 -0.54167,3.208332 -2.54166,5.458331 v 0.625 l 0.58333,0.916666 -1.16667,1.041667 q -0.16666,0.166666 -1.54166,0.5 v 0.166666 l -2.29167,1.791666 -1.20833,-0.166667 -0.33333,-0.999999 -1.79167,0.25 -1.375,-0.875 1,-2.458332 0.54167,-0.166667 1.95833,-3.166665 q 0.33333,-1.5 1.375,-2.124999 l 0.16667,-2.124999 0.5,-2.749999 1.04166,-2.458333 1.08333,-3.083332 -0.66666,-2.374999 0.41666,-2.166665 0.79167,-2.458333 q 0.25,-2.291665 0.66667,-3.249998 0.45833,-1 0.91666,-1.458333 l -0.83333,-0.916666 0.58333,-0.958333 -0.33333,-0.75 q 0.58333,-1.749999 1.375,-2.583332 v -0.916666 l 0.91667,-0.416667 -0.16667,-1.374999 -0.41667,0.416666 0.58334,-1.374999 -0.41667,-0.75 0.875,-2.749999 -0.875,-0.75 v -0.333333 l 0.875,-0.624999 v -1 l -0.625,-0.5 0.625,-1.041666 1.25,-3.999998 -1.25,0.166666 -6.25,1.375 -2.125,-0.291667 -0.75,0.791666 -1.83333,0.416667 0.29167,1.541666 -2.58334,1.791666 -1.37499,1.374999 -0.58334,-0.25 -0.75,0.666667 q -0.375,0.333333 -0.79166,1.458332 l -2.125,0.583334 -0.33334,0.791666 -0.58333,-0.166667 -0.79167,-1.374999 -2.29166,-1.958333 -1.04167,-2.916665 0.25,-0.75 h 1.125 q 0.54167,-0.833333 2.75,-2.499999 l 0.58333,-1.624999 2.125,-0.5 v -0.583333 l 1.375,-0.166667 0.33334,-0.874999 2.91666,-0.166667 1.16667,-0.166666 0.95833,0.333333 0.41667,-0.75 2.125,0.25 0.79166,-0.25 h 1.33333 l -0.25,-0.166666 1.20834,-0.625 1.375,0.25 h 1.95833 l 0.75,-0.833333 0.79167,0.25 2.70833,-0.25 0.16666,-0.5 h 0.79167 l 0.75,0.5 h 0.95833 l 0.25,0.25 2.125,-0.416667 2.45833,-0.791666 0.625,0.625 1.95834,-0.166667 1.54166,0.333333 2.45834,0.75 -0.16667,-0.333333 1.54166,-1.375 2.91667,0.333333 q 2.66667,-0.749999 3.91667,-0.749999 l 1.70833,0.25 z m 33.35332,3.124999 0.29167,0.25 -2.66666,3.416665 -0.25,0.458333 -1.875,0.916667 -1.04167,-0.416667 q -1,1.125 -2.125,1.541666 l -0.75,-0.166666 -0.79166,1.166666 -0.91667,0.375 -1.45833,-0.958333 -0.41667,-1.208333 -2.83333,0.625 -1.875,-0.791667 -3.25,0.625 h -3.16667 q -0.29166,2.666666 -0.83333,3.833332 l 0.25,0.416666 -0.5,2.916666 -0.625,2.124999 v 1.624999 l -0.41666,0.416667 0.25,0.749999 6.74999,0.541667 3.41667,-0.708333 2.91666,0.791666 1.625,-1.874999 h 2.54167 l 0.33333,0.75 1.375,0.583333 v 1.208332 l -0.70833,0.666667 q -0.33334,0.291666 -1.16667,2.166666 l -2.20833,1.541666 -1.45833,0.666666 q -0.79167,0.333333 -2.125,0.333333 l -4.70833,-0.583333 -2.375,0.416667 -1.79167,0.583333 -1.875,-0.25 -1.04166,0.25 h -1.125 l -0.33334,0.166666 -0.75,1.999999 -0.5,1.708333 -1.04166,1.791666 -1.125,6.291664 -0.75,6.666664 -0.75,1.708333 -0.125,4.666664 0.79166,0.541667 3,0.416666 1.25,0.75 h 1.70834 l 0.87499,0.541666 1.25,-0.375 1.29167,0.458334 3.83333,-0.541667 1.875,0.08333 0.375,-0.333333 h 1.95833 l 1.70834,-0.583333 1.625,0.166667 0.41666,-0.333333 3.5,-1.041667 -0.625,-1.374999 0.45833,-0.916666 q 0.875,-2.708333 1.70834,-4.249999 l 2.125,0.166667 1.54166,-0.958333 h 2.375 q 0.95833,1.333333 3.08333,2.916666 l 0.33334,2.291665 v 0.75 l -0.75,1.041666 v 0.791666 l -0.95834,0.583334 v 0.916666 q -1.16666,1.416666 -3.83333,1.958332 l -0.375,0.708333 q -0.20833,0.416667 -0.66666,0.708333 l -1.08334,0.75 -4.54166,0.166667 -2.04167,1.374999 h -3.08333 l -0.75,-0.458333 -0.625,0.458333 -0.75,-0.791666 -3.66666,1.124999 h -1.875 l -0.58334,0.583333 -2.33333,-0.416666 -2.875,0.833333 -1.375,-0.25 -1.04166,0.583333 -2.375,-0.333333 -3.16667,0.333333 -1.20833,-0.333333 -0.75,1.708333 -0.75,0.958333 -0.20833,0.583333 q -0.0833,0.249999 -1.08334,1.374999 v 0.416667 q -0.91666,0.958332 -1.375,1.874999 l -2.12499,0.791666 -2.66667,1.791666 -0.75,-1.958333 0.5,-1.374999 -0.0833,-1.541666 1.45833,-2.124999 1.45833,-0.625 0.83334,-2.291666 -2.125,-0.583333 -0.5,0.416667 -1.04167,-0.75 h -3.75 l -0.58333,0.75 -2.58333,-0.166667 -1.58334,-2.583332 v -1.958333 h -0.125 l -0.16666,-1.333332 0.95833,-0.375 0.33333,-0.75 1.79167,-1.458333 h 1.95833 l 1.79167,-0.666666 q 1.45833,0 3.75,0.833333 l 1.875,-0.666666 q 1.41666,0 3.24999,0.749999 l 0.5,-1.083333 -0.25,-1.041666 1.54167,-8.249996 q 0.0833,-0.791667 0.875,-3.166666 l -0.25,-1.124999 0.75,-1.541666 1.29167,-7.916664 -1.45834,-2.416665 q 0.54167,-1.041666 2.125,-2.458333 l -0.33333,-1.958332 0.5,-0.166667 0.875,-1.958332 -0.25,-0.958333 0.66666,-1.375 -0.95833,-1.333332 0.54167,-1.541666 -0.375,-1.041667 v -1.541666 l 0.625,-0.916666 -0.79167,-0.791666 v -2.124999 l -2.95833,-0.583333 h -0.79167 l -5.29166,1.249999 -2.95833,-0.5 -0.79167,1.208333 -1.625,0.166667 -1.375,-2.458333 0.54167,-1.041666 0.58333,-0.166666 0.5,-0.958333 2.16667,-1.791666 h 1.5 l 0.79166,-1.5 0.58334,0.166667 q 0.58333,-0.625 1.37499,-1.125 h 0.75 l 1.125,0.333334 2.54167,0.166666 2.75,-0.333333 0.875,0.583333 v -0.25 l 0.5,-0.333333 1.54166,0.583333 0.0833,-0.416666 2.79166,-0.583333 -0.41666,-0.166667 q 1.91666,-1.083333 2.91666,-1.208333 l -0.375,1.208333 0.625,0.333333 2.625,-0.666666 0.625,0.749999 3.20833,0.5 0.79167,0.625 0.66666,-0.166667 0.33334,0.916667 3.16666,-0.916667 v 0.583333 l 1.45834,0.166667 1.79166,-0.583333 4.25,0.833333 3.79167,-3.416665 0.99999,-0.416667 h 1.45834 l 1.04166,0.666667 0.16667,1.291666 -1.54167,2.208332 z m 38.85332,-6.83333 1,0.791666 1.54167,-0.166667 1.70833,1.958333 v 0.75 l 1.04166,0.958333 0.58334,1.958332 -0.25,1.208333 h 0.25 l -0.58334,6.541664 -1.04166,1.124999 -1.70833,0.833333 -1.95834,2.499999 -1.70833,0.416667 -1.54167,1.541666 -2.125,-1.041666 -0.58333,-1.541666 0.91667,-1.083333 -0.58333,-1.375 0.99999,-1.958332 q -0.25,-1.75 -0.58333,-1.958333 l -2.125,0.25 -1.54166,-0.583333 -2.54167,0.583333 0.25,0.958333 -1.79167,1.499999 h -0.79166 l -8.08333,5.041665 -1.375,1.374999 -1.04167,0.166667 -0.33333,0.791666 -2.125,0.583333 0.16667,0.416667 -1.54167,0.583333 -3.5,2.666666 -0.58333,0.583333 0.83333,0.541666 q 0.375,0.25 1.125,1.416666 l 0.95833,-0.583333 0.58334,0.75 1.54166,-0.583333 1.16667,0.583333 2.16667,-0.166667 6.70833,0.166667 0.625,0.791666 h 1.79166 l 1.375,1 2.45833,-0.833333 h 0.91667 l 0.875,0.583333 h 1.125 l 0.75,0.624999 h 1.20833 l 0.58333,0.583334 0.66667,0.125 q 0.29167,0.04167 1.20833,0.833333 h 0.75 q 0.70834,-0.416667 1.625,-0.625 l 1.125,1.041666 0.58334,1.083333 3.33333,2.166666 3.25,2.874998 -0.75,1.375 1.33333,1.208333 -0.91667,2.874999 -0.25,2.749998 -0.875,1.416666 q -0.41666,0.708333 -1,2.416666 l -1.79166,0.958333 -0.375,1 -7.16667,4.874998 -1.33333,-0.25 -0.16666,0.749999 -7.79167,2.583333 -1.16666,0.916666 h -2.33334 l -0.58333,0.583333 h -1.20833 l -0.5,0.625 -1.20834,-0.416667 -3.33333,1.166666 -0.16666,-0.166666 -1.54167,0.166666 -2.70833,0.625 -4.625,-0.458333 -2.125,0.625 -2.70833,-0.625 -0.54167,-0.04167 -0.54166,-0.04167 -0.45834,-0.04167 q -0.16666,-0.04167 -0.83333,-0.458333 -0.625,-0.416667 -1.125,-0.75 l -1.54167,-2.166666 0.16667,-2.874998 0.75,-0.166667 0.79167,-0.791666 1.16666,-0.583333 q 0.70834,-0.875 1.95834,-1.708333 h 4.45833 v 1.374999 l -0.16667,0.5 0.58333,0.583333 -1.375,1.291666 q -0.25,0.25 -0.75,1.458333 l 0.33334,0.75 2.125,0.958333 0.625,-0.958333 1.54166,-0.333333 2.125,0.499999 2.54167,0.25 1.54166,-0.749999 h 1.375 l 1.875,-0.416667 0.75,-0.416666 h 1.54167 l 1.04166,-0.208334 3.58334,-1.416666 1.16666,-0.25 0.91667,-0.541666 q 0.375,-0.25 2.33333,-0.583333 l 0.625,-0.583333 0.58333,0.166666 3.5,-1.958332 0.91667,-1.916666 1.79166,-0.5 -0.0833,-1.083333 0.70833,-0.958333 -0.33333,-0.333333 0.91667,-2.374999 -0.16667,-0.958333 0.5,-1.374999 -1,-1.958333 0.41667,-1.541666 -1.04167,-2.291665 -1,-0.416667 q -0.58333,-1.291666 -1.375,-1.958332 l -2.125,0.416666 -0.66666,-1.541666 q -0.125,-0.25 -1.04167,-1.041666 -0.95833,-0.166667 -2.125,-0.75 l -1.375,1.375 -0.58333,-0.625 -2.16667,-0.5 -1.16666,-1.208333 -0.625,0.625 -1.08334,-0.416666 -0.79166,0.749999 -1.79167,-0.749999 -0.75,1.166666 -1.875,-0.916667 -0.25,0.916667 H 353.663 l -0.33334,-0.583333 -1.79166,-0.333334 -1.54167,0.75 -1.83333,-0.208333 q -0.29167,-0.04167 -1.5,-0.791666 l -0.95833,0.416666 -0.75,-0.416666 -0.16667,0.749999 -2.375,0.25 -0.20833,-0.416666 -0.91667,0.166666 -1.54166,-1.374999 -0.41667,-1.041666 q -0.16667,-0.5 -0.95833,-1.25 1,-0.791666 1.70833,-1.541666 h 0.41667 l 0.79166,-1.374999 h 0.75 l 0.95833,-1.083333 2.125,-1.375 2.125,-1.958332 1.20834,-0.791667 1.54166,-0.583333 1.375,-1.374999 1.16667,-0.583333 1.29166,-1.125 1.95834,-1.166666 1.79166,-1.958332 2.04167,-1.125 q 0.5,-0.5 1.375,-0.791666 l 0.25,-0.583333 2.5,-1.791666 h 0.75 l 1.04166,-1.291666 q 1.29167,-0.666667 2.125,-1.333333 l 0.16667,-0.625 0.91666,-0.416666 0.16667,-0.333334 q 1.91667,-1.416666 3.16667,-2.583332 h 0.33333 v -0.333333 h 0.625 l 0.16667,-0.583333 1.79166,-0.583333 z"
     id="text1"
     aria-label="RECENTES" />
</svg>
