<?xml version="1.0" encoding="UTF-8" standalone="no"?>
<!-- Generator: Gravit.io -->

<svg
   style="isolation:isolate"
   viewBox="0 0 1317.953 340.515"
   width="1317.953"
   height="340.515"
   version="1.1"
   id="svg5"
   sodipodi:docname="auto-allgames.svg"
   inkscape:version="1.4 (86a8ad7, 2024-10-11)"
   xmlns:inkscape="http://www.inkscape.org/namespaces/inkscape"
   xmlns:sodipodi="http://sodipodi.sourceforge.net/DTD/sodipodi-0.dtd"
   xmlns="http://www.w3.org/2000/svg"
   xmlns:svg="http://www.w3.org/2000/svg">
  <defs
     id="defs5">
    <rect
       x="179.46017"
       y="59.820056"
       width="124.88749"
       height="54.572683"
       id="rect6" />
    <rect
       x="204.64756"
       y="82.908499"
       width="581.40896"
       height="179.16044"
       id="rect5" />
  </defs>
  <sodipodi:namedview
     id="namedview5"
     pagecolor="#000000"
     bordercolor="#000000"
     borderopacity="0.25"
     inkscape:showpageshadow="2"
     inkscape:pageopacity="0.0"
     inkscape:pagecheckerboard="0"
     inkscape:deskcolor="#d1d1d1"
     inkscape:zoom="0.95285768"
     inkscape:cx="552.54841"
     inkscape:cy="126.4617"
     inkscape:window-width="1920"
     inkscape:window-height="1017"
     inkscape:window-x="-8"
     inkscape:window-y="-8"
     inkscape:window-maximized="1"
     inkscape:current-layer="layer2" />
  <g
     id="layer1">
    <path
       d=" M 28.808 259.477 C 16.808 255.477 7.008 247.277 2.408 237.477 C -1.092 230.077 -0.792 222.477 3.408 207.477 C 5.308 200.877 8.208 190.477 9.908 184.377 C 11.508 178.377 15.608 163.277 19.008 150.877 C 22.408 138.477 26.008 125.277 27.108 121.377 C 33.208 98.277 50.308 81.077 72.508 75.377 C 80.408 73.377 136.508 73.177 135.708 75.177 C 135.508 75.777 130.208 94.877 124.008 117.377 C 98.708 209.577 93.108 230.077 88.908 245.577 L 84.508 261.877 L 60.008 261.777 C 37.408 261.777 35.008 261.577 28.808 259.477 Z "
       fill="rgb(255,255,255)"
       id="path1" />
    <path
       d=" M 703.008 261.477 C 703.008 261.277 704.408 257.977 706.108 254.177 C 711.708 241.677 715.908 228.177 729.608 178.077 C 737.108 150.677 745.408 120.277 748.108 110.377 C 751.508 97.877 753.208 89.577 753.708 83.177 L 754.308 73.877 L 1013.508 73.877 C 1266.708 73.877 1272.908 73.877 1280.308 75.777 C 1292.008 78.777 1299.508 83.177 1307.708 91.677 C 1318.008 102.377 1320.408 115.277 1315.508 132.877 C 1314.008 138.077 1311.108 148.677 1309.008 156.377 C 1290.608 224.377 1290.008 226.077 1284.808 233.777 C 1276.708 245.877 1262.508 256.377 1248.808 260.277 C 1243.708 261.777 1218.608 261.877 973.108 261.877 C 824.508 261.877 703.008 261.677 703.008 261.477 Z  M 832.508 218.377 C 851.008 213.477 869.108 197.777 877.908 178.777 C 881.308 171.477 882.408 167.877 884.608 157.177 L 885.008 154.877 L 861.008 154.877 L 836.908 154.877 L 835.108 159.177 C 834.108 161.477 831.408 167.377 829.108 172.177 C 826.908 177.077 825.008 181.177 825.008 181.377 C 825.008 181.577 828.508 181.877 832.808 182.077 L 840.508 182.377 L 836.208 185.277 C 827.808 190.977 814.608 188.777 809.208 180.777 C 807.108 177.877 806.908 176.477 807.308 171.277 C 808.008 161.777 813.608 153.877 823.008 148.877 C 827.208 146.577 838.808 146.977 844.108 149.677 C 846.608 150.877 849.008 151.877 849.408 151.877 C 850.108 151.877 877.008 128.877 877.008 128.277 C 877.008 127.177 858.908 117.477 856.508 117.277 C 854.908 117.077 851.008 116.277 848.008 115.377 C 834.308 111.377 815.908 116.877 799.308 130.077 C 784.308 141.877 776.208 156.177 774.508 173.377 C 772.308 195.377 785.108 213.977 805.708 218.777 C 811.908 220.277 826.108 219.977 832.508 218.377 Z  M 1219.008 215.677 C 1223.108 213.777 1228.408 210.477 1230.608 208.477 C 1239.408 200.877 1245.008 188.977 1245.008 178.177 C 1245.008 167.577 1240.608 161.877 1228.208 156.177 C 1214.008 149.777 1212.008 148.677 1212.008 146.877 C 1212.008 144.577 1216.208 141.877 1219.608 141.877 C 1223.008 141.877 1232.508 144.677 1237.208 146.977 C 1239.308 148.077 1241.208 148.877 1241.508 148.877 C 1241.708 148.877 1245.608 141.677 1250.008 132.877 C 1254.408 124.077 1257.708 116.877 1257.308 116.877 C 1256.808 116.877 1251.108 115.777 1244.508 114.377 C 1234.108 112.377 1232.308 112.177 1231.408 113.477 C 1230.608 114.477 1227.808 114.877 1220.408 114.877 C 1206.808 114.877 1199.108 117.377 1190.208 124.577 C 1179.408 133.377 1173.908 151.577 1178.908 162.377 C 1182.008 168.977 1186.108 171.977 1200.708 177.777 C 1210.308 181.677 1211.808 182.877 1210.208 186.377 C 1207.608 191.977 1196.908 190.477 1180.708 182.177 L 1178.008 180.777 L 1171.008 195.077 C 1167.208 202.977 1164.008 209.677 1164.008 210.077 C 1164.008 211.277 1171.808 214.977 1179.508 217.577 C 1185.708 219.577 1188.008 219.877 1199.008 219.577 C 1210.908 219.277 1211.808 219.077 1219.008 215.677 Z  M 906.908 211.177 L 910.508 203.877 L 924.808 203.877 L 939.008 203.877 L 939.008 211.377 L 939.008 218.877 L 956.108 218.877 L 973.108 218.877 L 972.508 212.177 C 972.208 208.377 971.308 195.677 970.508 183.877 C 969.708 172.077 968.308 153.177 967.508 141.877 C 966.708 130.577 966.008 120.377 966.008 119.077 L 966.008 116.877 L 940.308 117.077 L 914.608 117.377 L 907.308 129.877 C 903.308 136.777 900.008 142.677 900.008 143.177 C 900.008 143.577 901.408 143.877 903.008 143.877 C 904.708 143.877 906.008 144.077 906.008 144.277 C 906.008 144.677 896.108 165.277 880.408 197.777 C 875.208 208.377 871.008 217.477 871.008 217.977 C 871.008 218.577 877.908 218.777 887.208 218.677 L 903.408 218.377 L 906.908 211.177 Z  M 1008.008 218.077 C 1008.008 217.677 1009.408 211.077 1011.008 203.377 C 1012.708 195.677 1014.808 186.277 1015.608 182.377 C 1016.408 178.577 1017.608 172.777 1018.308 169.577 L 1019.508 163.677 L 1027.008 173.777 L 1034.508 183.777 L 1045.208 173.177 C 1051.108 167.277 1056.108 162.677 1056.308 162.977 C 1056.508 163.177 1054.308 174.677 1051.408 188.377 C 1048.508 202.177 1045.908 214.577 1045.608 216.177 L 1045.108 218.877 L 1060.008 218.877 C 1068.308 218.877 1075.008 218.477 1075.008 218.077 C 1075.008 217.677 1079.508 195.877 1085.008 169.777 C 1090.608 143.777 1095.308 121.177 1095.708 119.677 L 1096.308 116.877 L 1080.408 116.877 L 1064.508 116.877 L 1054.108 127.277 L 1043.708 137.777 L 1036.808 127.277 L 1030.008 116.877 L 1013.508 117.077 L 997.008 117.377 L 990.508 132.377 C 986.908 140.577 984.008 147.477 984.008 147.577 C 984.008 147.777 985.608 147.877 987.508 147.877 C 990.808 147.877 991.008 148.077 990.408 150.677 C 990.108 152.177 989.608 154.077 989.408 154.877 C 989.108 155.577 988.008 160.777 986.908 166.377 C 984.208 179.277 982.808 186.277 979.108 203.377 C 977.408 211.077 976.008 217.677 976.008 218.077 C 976.008 218.577 983.208 218.877 992.008 218.877 C 1000.808 218.877 1008.008 218.577 1008.008 218.077 Z  M 1153.808 203.177 L 1160.908 187.377 L 1143.008 187.077 C 1124.008 186.777 1124.308 186.877 1125.608 182.177 C 1126.208 179.877 1126.508 179.877 1141.408 179.877 L 1156.708 179.877 L 1162.708 167.177 L 1168.708 154.377 L 1150.308 154.077 L 1131.908 153.877 L 1132.208 151.077 L 1132.508 148.377 L 1148.908 147.877 L 1165.308 147.377 L 1172.608 130.577 C 1176.708 121.277 1180.008 113.577 1180.008 113.277 C 1180.008 113.077 1173.508 112.877 1165.608 112.877 C 1152.008 112.877 1151.108 112.977 1150.508 114.877 C 1149.908 116.777 1149.008 116.877 1128.608 116.877 L 1107.308 116.877 L 1100.608 131.877 C 1097.008 140.077 1094.008 147.077 1094.008 147.277 C 1094.008 147.577 1095.508 147.877 1097.308 148.077 L 1100.708 148.377 L 1093.408 182.877 C 1089.408 201.877 1086.108 217.677 1086.008 218.177 C 1086.008 218.577 1099.708 218.877 1116.408 218.877 L 1146.708 218.877 L 1153.808 203.177 Z "
       fill="rgb(255,255,255)"
       id="path2" />
    <path
       d=" M 924.808 173.177 C 925.908 171.077 928.908 164.777 931.508 159.077 C 934.208 153.477 936.508 149.077 936.808 149.377 C 937.008 149.577 937.508 155.877 937.908 163.377 L 938.508 176.877 L 930.708 176.877 L 923.008 176.877 L 924.808 173.177 Z "
       fill="rgb(255,255,255)"
       id="path3" />
  </g>
  <g
     id="layer2">
    <path
       id="path4"
       d="M 466.50781 0.076171875 C 260.30781 -0.12382812 240.80781 -0.0234375 233.00781 1.4765625 C 202.60781 7.4765625 166.40703 29.577734 148.70703 53.177734 C 143.10703 60.677734 137.30781 70.376563 136.50781 73.476562 C 136.20781 74.576562 132.70742 87.276953 128.60742 101.87695 C 124.60742 116.47695 116.20781 146.87695 110.00781 169.37695 C 103.80781 191.97695 95.407031 222.57695 91.207031 237.37695 C 83.507031 264.27695 83.507812 264.47695 83.507812 276.37695 L 83.507812 288.37695 L 88.007812 297.37695 C 91.607813 304.67695 94.007812 307.97695 101.00781 314.87695 C 114.80781 328.57695 131.50781 336.97773 152.00781 340.17773 C 153.40781 340.47773 256.20781 340.57656 380.50781 340.47656 L 606.50781 340.37695 L 615.50781 337.67773 C 655.00781 325.97773 685.60742 298.37734 704.10742 257.77734 C 712.00742 240.37734 713.80781 234.67695 729.50781 177.37695 C 737.00781 149.87695 745.40742 119.37617 748.10742 109.57617 C 754.30742 86.976172 755.20703 75.977734 752.20703 62.177734 C 748.00703 43.277734 737.10781 26.876562 721.00781 14.976562 C 713.50781 9.3765625 708.40781 6.6765625 698.50781 2.9765625 L 691.50781 0.37695312 L 466.50781 0.076171875 z M 281.06055 52.955078 C 291.19947 52.955078 299.46265 62.82182 305.85156 82.554688 C 312.62242 103.55123 316.00781 132.27618 316.00781 168.72852 C 316.00781 203.04233 312.84876 232.05707 306.5293 255.77539 C 299.89733 280.56298 291.4078 292.95703 281.06055 292.95703 C 270.40079 292.95703 261.77303 280.46638 255.17578 255.48438 C 248.96049 231.96048 245.85156 203.04233 245.85156 168.72852 C 245.85156 132.08178 249.23696 103.30756 256.00781 82.408203 C 262.39672 62.772554 270.74801 52.955078 281.06055 52.955078 z M 429.9668 52.955078 C 440.10572 52.955078 448.37086 62.82182 454.75977 82.554688 C 461.53062 103.55123 464.91602 132.27618 464.91602 168.72852 C 464.91602 203.04233 461.75501 232.05707 455.43555 255.77539 C 448.80358 280.56298 440.31405 292.95703 429.9668 292.95703 C 419.30704 292.95703 410.67927 280.46638 404.08203 255.48438 C 397.86673 231.96048 394.75781 203.04233 394.75781 168.72852 C 394.75781 132.08178 398.14321 103.30756 404.91406 82.408203 C 411.30298 62.772554 419.65426 52.955078 429.9668 52.955078 z M 578.76953 52.955078 C 588.90845 52.955078 597.17163 62.82182 603.56055 82.554688 C 610.3314 103.55123 613.7168 132.27618 613.7168 168.72852 C 613.7168 203.04233 610.55775 232.05707 604.23828 255.77539 C 597.60631 280.56298 589.11678 292.95703 578.76953 292.95703 C 568.10978 292.95703 559.48201 280.46638 552.88477 255.48438 C 546.66947 231.96048 543.56055 203.04233 543.56055 168.72852 C 543.56055 132.08178 546.94594 103.30756 553.7168 82.408203 C 560.1057 62.772554 568.457 52.955078 578.76953 52.955078 z M 499.60352 55.580078 C 504.74242 55.580078 510.50562 57.669742 516.89453 61.849609 L 518.45703 153.27148 C 515.88758 151.61898 513.9425 150.79297 512.62305 150.79297 C 510.9911 150.79297 509.4987 152.34837 508.14453 155.45898 C 506.51258 159.25002 505.69727 164.15875 505.69727 170.18555 C 505.69727 174.85145 507.18966 183.8429 510.17578 197.16016 C 513.1619 210.47739 514.6543 222.72556 514.6543 233.9043 C 514.6543 250.13773 512.45075 263.45636 508.04102 273.85742 C 503.83961 283.86966 498.64737 288.875 492.4668 288.875 C 486.77234 288.875 482.57163 287.75723 479.86328 285.52148 C 479.55078 281.05 479.01193 273.75983 478.24805 263.65039 C 477.76193 258.20683 477.08486 250.964 476.2168 241.92383 C 480.03625 244.54839 482.60633 245.86133 483.92578 245.86133 C 489.09941 245.86133 491.68555 240.36906 491.68555 229.38477 C 491.68555 221.41385 490.64389 214.26958 488.56055 207.95117 C 485.15776 199.59144 481.75631 191.1835 478.35352 182.72656 C 471.75628 166.39591 468.45703 147.00347 468.45703 124.54883 C 468.45703 101.12213 471.58201 83.381692 477.83203 71.328125 C 483.28344 60.829846 490.54099 55.580078 499.60352 55.580078 z M 648.4043 55.580078 C 653.5432 55.580078 659.30836 57.669742 665.69727 61.849609 L 667.25977 153.27148 C 664.69031 151.61898 662.74523 150.79297 661.42578 150.79297 C 659.79383 150.79297 658.30144 152.34837 656.94727 155.45898 C 655.31532 159.25002 654.49805 164.15875 654.49805 170.18555 C 654.49805 174.85145 655.9924 183.8429 658.97852 197.16016 C 661.96464 210.47739 663.45703 222.72556 663.45703 233.9043 C 663.45703 250.13773 661.25348 263.45636 656.84375 273.85742 C 652.64234 283.86966 647.4501 288.875 641.26953 288.875 C 635.57507 288.875 631.37436 287.75723 628.66602 285.52148 C 628.35351 281.05 627.81467 273.75983 627.05078 263.65039 C 626.56467 258.20683 625.88759 250.964 625.01953 241.92383 C 628.83899 244.54839 631.40907 245.86133 632.72852 245.86133 C 637.90214 245.86133 640.48828 240.36906 640.48828 229.38477 C 640.48828 221.41385 639.44662 214.26958 637.36328 207.95117 C 633.96049 199.59144 630.55709 191.1835 627.1543 182.72656 C 620.55706 166.39591 617.25977 147.00347 617.25977 124.54883 C 617.25977 101.12213 620.38475 83.381692 626.63477 71.328125 C 632.08617 60.829846 639.34177 55.580078 648.4043 55.580078 z M 343.56055 57.621094 C 358.17865 57.621094 369.6189 67.146787 377.88281 86.199219 C 386.70229 106.61252 391.11328 136.30936 391.11328 175.28906 C 391.11328 210.38051 387.22311 237.98767 379.44531 258.10938 C 371.42445 279.00871 360.12244 289.45898 345.53906 289.45898 C 336.16404 289.45898 328.9245 288.14606 323.82031 285.52148 L 322.41406 177.18555 C 321.96267 149.38456 321.14736 111.03537 319.9668 62.140625 C 327.50154 59.127228 335.36607 57.621094 343.56055 57.621094 z M 178.29883 61.558594 L 243.0918 61.558594 L 241.58008 153.27148 C 240.2259 152.68825 238.05643 151.96079 235.07031 151.08594 C 233.23003 150.79432 230.24329 150.50256 226.11133 150.21094 C 225.90299 155.94611 225.53841 169.79701 225.01758 191.76562 C 224.63563 213.05378 224.01064 244.30604 223.14258 285.52148 L 197.93555 285.52148 C 197.65777 265.88584 197.13694 235.02195 196.37305 192.93164 C 196.02583 178.35071 195.66124 164.11143 195.2793 150.21094 L 187.04883 151.08594 L 179.60156 153.27148 L 178.29883 61.558594 z M 355.85547 153.81641 C 355.34548 153.78147 354.82292 153.79471 354.28906 153.85547 L 353.56055 245.27734 C 358.00501 244.49969 361.63281 240.46625 364.44531 233.17578 C 367.98699 224.13559 369.75781 210.81893 369.75781 193.22461 C 369.75781 178.9353 368.10917 168.38843 364.81055 161.58398 C 362.41037 156.65077 359.42536 154.06094 355.85547 153.81641 z M 281.16406 153.85547 C 274.80988 153.85547 271.63281 167.46389 271.63281 194.68164 C 271.63281 205.56874 272.46614 215.72724 274.13281 225.15625 C 276.00781 235.75173 278.31748 241.04883 281.06055 241.04883 C 283.73417 241.04883 286.09591 235.65513 288.14453 224.86523 C 290.01954 215.04741 290.95703 204.8889 290.95703 194.39062 C 290.95703 167.36729 287.69186 153.85547 281.16406 153.85547 z M 430.07031 153.85547 C 423.71613 153.85547 420.53906 167.46389 420.53906 194.68164 C 420.53906 205.56874 421.37239 215.72724 423.03906 225.15625 C 424.91407 235.75173 427.22373 241.04883 429.9668 241.04883 C 432.64042 241.04883 435.00217 235.65513 437.05078 224.86523 C 438.92579 215.04741 439.86328 204.8889 439.86328 194.39062 C 439.86328 167.36729 436.59811 153.85547 430.07031 153.85547 z M 578.87305 153.85547 C 572.51886 153.85547 569.3418 167.46389 569.3418 194.68164 C 569.3418 205.56874 570.17512 215.72724 571.8418 225.15625 C 573.7168 235.75173 576.02647 241.04883 578.76953 241.04883 C 581.44315 241.04883 583.8049 235.65513 585.85352 224.86523 C 587.72852 215.04741 588.66602 204.8889 588.66602 194.39062 C 588.66602 167.36729 585.40085 153.85547 578.87305 153.85547 z "
       style="fill:#ffffff" />
  </g>
</svg>
