<?xml version="1.0" encoding="UTF-8" standalone="no"?>
<!-- Generator: Gravit.io -->

<svg
   style="isolation:isolate"
   viewBox="0 0 306.476 56.197"
   width="306.476"
   height="56.197"
   version="1.1"
   id="svg1"
   sodipodi:docname="auto-favorites.svg"
   inkscape:version="1.4 (86a8ad7, 2024-10-11)"
   xmlns:inkscape="http://www.inkscape.org/namespaces/inkscape"
   xmlns:sodipodi="http://sodipodi.sourceforge.net/DTD/sodipodi-0.dtd"
   xmlns="http://www.w3.org/2000/svg"
   xmlns:svg="http://www.w3.org/2000/svg">
  <defs
     id="defs1" />
  <sodipodi:namedview
     id="namedview1"
     pagecolor="#000000"
     bordercolor="#000000"
     borderopacity="0.25"
     inkscape:showpageshadow="2"
     inkscape:pageopacity="0.0"
     inkscape:pagecheckerboard="0"
     inkscape:deskcolor="#d1d1d1"
     inkscape:zoom="4.0976181"
     inkscape:cx="167.04827"
     inkscape:cy="40.389318"
     inkscape:window-width="1920"
     inkscape:window-height="1017"
     inkscape:window-x="-8"
     inkscape:window-y="-8"
     inkscape:window-maximized="1"
     inkscape:current-layer="svg1" />
  <g
     id="text4594">
    <g
       id="g5124">
      <g
         id="g5117">
        <path
           d="M 26.3,1.15 25.628,3.166 H 4.647 L 1.138,18.174 H 4.647 V 54.238 H 20.626 V 37.141 h 13.738 l 3.51,-14.413 H 20.626 V 19.07 H 36.53 L 40.86,1.15 Z m 170.564,0 -3.285,12.694 h 14.859 L 211.872,1.15 Z m 32.873,7.094 -14.859,3.658 v 5.004 h -1.569 l -3.507,13.961 h 5.076 v 23.371 h 14.859 V 30.867 h 2.613 l 3.51,-13.961 h -6.123 z m -39.23,7.914 c -1.742,-0.05 -3.609,0.325 -5.6,1.121 -2.091,0.797 -3.633,1.892 -4.629,3.285 v -3.658 h -14.484 l -3.51,14.037 h 3.51 v 23.295 h 14.484 V 38.633 c 0,-0.846 0.1,-1.667 0.299,-2.463 0.249,-0.797 0.597,-1.495 1.045,-2.092 0.448,-0.647 0.995,-1.144 1.643,-1.492 0.647,-0.398 1.369,-0.598 2.166,-0.598 0.796,0 1.492,0.1 2.089,0.299 l 4.332,-16.055 z m 64.138,0 c -5.724,0 -10.403,1.742 -14.037,5.227 -3.584,3.534 -5.377,8.115 -5.377,13.74 0,6.571 2.589,11.573 7.766,15.008 4.43,2.937 25.05629,6.607938 31.137,-11.5 0.20607,-0.613658 0,-1.942 0,-1.942 0,-5.285912 -1.818,-10.626 -5.451,-14.558 -3.684,-3.982 -8.363,-5.975 -14.038,-5.975 z M 58.983,16.232 c -5.425,0 -9.832,1.842 -13.217,5.526 -3.335,3.634 -5.001,8.239 -5.001,13.814 0,5.725 1.941,10.328 5.824,13.813 3.833,3.484 8.662,5.102 14.486,4.853 h 1.791 l 3.211,-5.226 v 5.226 H 81.011 L 84.595,39.902 H 81.011 V 16.906 H 68.018 l -0.597,1.717 C 64.932,17.03 62.119,16.232 58.983,16.232 Z m 82.51,0.151 c -5.625,0 -10.33,1.791 -14.113,5.375 -3.933,3.634 -5.899,8.264 -5.899,13.888 0,5.675 1.893,10.33 5.676,13.963 3.783,3.634 8.511,5.452 14.186,5.452 5.774,0 10.603,-1.793 14.486,-5.377 3.883,-3.634 5.824,-8.338 5.824,-14.112 0,-5.625 -1.941,-10.23 -5.824,-13.814 -3.883,-3.584 -8.661,-5.375 -14.336,-5.375 z m 148.389,0 c -1.991,0 -3.833,0.299 -5.526,0.896 -1.642,0.548 -3.061,1.368 -4.256,2.463 -1.194,1.095 -2.114,2.44 -2.761,4.033 -0.647,1.543 -0.971,3.286 -0.971,5.227 0,2.937 1.168,5.351 3.508,7.242 1.493,1.195 3.685,2.29 6.572,3.285 2.34,0.846 3.508,1.469 3.508,1.867 0,1.245 -0.771,1.868 -2.315,1.868 -1.742,0 -4.504,-1.146 -8.287,-3.436 l -3.062,12.022 c 5.625,1.991 10.479,2.986 14.56,2.986 4.182,0 7.566,-0.995 10.155,-2.986 2.887,-2.141 4.332,-5.253 4.332,-9.334 0,-2.838 -1.195,-5.203 -3.584,-7.094 -1.593,-1.195 -3.809,-2.339 -6.647,-3.434 -2.389,-0.896 -3.584,-1.618 -3.584,-2.166 0,-1.045 0.647,-1.568 1.942,-1.568 1.692,0 3.933,1.021 6.72,3.062 l 3.51,-10.976 c -4.53,-2.638 -9.135,-3.957 -13.814,-3.957 z M 82.634,16.906 93.46,54.238 h 17.248 l 11.426,-37.332 h -15.383 l -3.957,20.309 -4.555,-20.309 z m 110.797,0 -3.584,13.961 h 3.509 v 23.371 h 14.932 l 3.584,-14.336 h -3.584 V 16.906 Z m 59.93784,9.781 c 1.0101,0 1.83457,0.304045 2.47039,0.913577 0.63582,0.609531 1.59625,5.005696 1.13639,5.709019 0,0 -0.46421,3.026491 -3.6902,2.813289 -2.43578,-0.160979 -3.32338,-2.813289 -3.32338,-2.813289 0,-1.004358 0.15254,-5.135512 0.82594,-5.709019 0.6734,-0.609532 1.53318,-0.913577 2.58086,-0.913577 z M 61.448,30.121 c 1.095,0 2.139,0.374 3.135,1.121 0.995,0.697 1.494,1.568 1.494,2.613 v 5.973 h -3.809 c -3.982,0 -5.972,-1.543 -5.972,-4.629 0,-1.344 0.523,-2.514 1.568,-3.51 1.045,-1.045 2.24,-1.568 3.584,-1.568 z m 86.529,14.856 -6.417,-3.38 -6.421,3.37 1.231,-7.147 -5.189,-5.066 7.177,-1.037 3.215,-6.501 3.204,6.506 7.176,1.048 -5.197,5.058 z"
           fill-rule="evenodd"
           fill="#ffffff"
           id="path1"
           sodipodi:nodetypes="ccccccccccccccccccccccccccccccccccccccccccscccscccscscsscsscscccccccccccsscscscsssscccsccssccscsccssccscccccccccccccccccssssccsscscsscsccccccccccc" />
      </g>
    </g>
  </g>
</svg>
