<?xml version="1.0" encoding="UTF-8" standalone="no"?>
<!-- Created with Inkscape (http://www.inkscape.org/) -->

<svg
   width="111.37302mm"
   height="26.802729mm"
   viewBox="0 0 111.37302 26.802728"
   version="1.1"
   id="svg5"
   inkscape:version="1.1 (c68e22c387, 2021-05-23)"
   sodipodi:docname="fpinball.svg"
   xmlns:inkscape="http://www.inkscape.org/namespaces/inkscape"
   xmlns:sodipodi="http://sodipodi.sourceforge.net/DTD/sodipodi-0.dtd"
   xmlns="http://www.w3.org/2000/svg"
   xmlns:svg="http://www.w3.org/2000/svg">
  <sodipodi:namedview
     id="namedview7"
     pagecolor="#ffffff"
     bordercolor="#111111"
     borderopacity="1"
     inkscape:pageshadow="0"
     inkscape:pageopacity="0"
     inkscape:pagecheckerboard="1"
     inkscape:document-units="mm"
     showgrid="false"
     fit-margin-top="0"
     fit-margin-left="0"
     fit-margin-right="0"
     fit-margin-bottom="0"
     inkscape:zoom="3.3332155"
     inkscape:cx="273.15966"
     inkscape:cy="33.601188"
     inkscape:window-width="1280"
     inkscape:window-height="738"
     inkscape:window-x="-8"
     inkscape:window-y="-8"
     inkscape:window-maximized="1"
     inkscape:current-layer="layer1" />
  <defs
     id="defs2" />
  <g
     inkscape:label="Ebene 1"
     inkscape:groupmode="layer"
     id="layer1"
     transform="translate(-50.257065,-115.90521)">
    <text
       xml:space="preserve"
       style="font-style:normal;font-variant:normal;font-weight:normal;font-stretch:normal;font-size:19.7556px;line-height:1.25;font-family:Gabriola;-inkscape-font-specification:Gabriola;fill:#ffffff;stroke-width:0.264583"
       x="9.317647"
       y="116.47059"
       id="text2168"><tspan
         sodipodi:role="line"
         id="tspan2166"
         style="font-style:normal;font-variant:normal;font-weight:normal;font-stretch:normal;font-size:19.7556px;font-family:Gabriola;-inkscape-font-specification:Gabriola;fill:#ffffff;stroke-width:0.264583"
         x="9.317647"
         y="116.47059" /></text>
    <g
       aria-label="Future Pinball"
       id="text12618"
       style="font-size:25.4px;line-height:1.25;font-family:Gabriola;-inkscape-font-specification:Gabriola;fill:#ffffff;stroke-width:0.264583">
      <path
         d="m 52.315854,130.05761 q 0,-0.26665 -0.04341,-0.44648 -0.03721,-0.18604 -0.148828,-0.30386 -0.10542,-0.11782 -0.297657,-0.16743 -0.192236,-0.0558 -0.496093,-0.0558 -0.198438,0 -0.446485,0.0248 -0.248047,0.0186 -0.564306,0.0558 l -0.06201,-0.57671 q 0.607715,-0.093 1.128613,-0.16123 0.520899,-0.0744 0.973584,-0.12402 0.458887,-0.0558 0.855762,-0.0806 0.396875,-0.0248 0.750342,-0.0248 1.016992,0 1.90996,-0.0124 0.892969,-0.0186 1.581299,-0.031 0.68833,-0.0186 1.128614,-0.031 0.440283,-0.0186 0.545703,-0.0186 0.285254,0 0.434082,0.13643 0.155029,0.13022 0.155029,0.40928 0,0.11162 -0.02481,0.43408 -0.0186,0.32246 -0.05581,0.74414 -0.03101,0.41548 -0.07441,0.88056 -0.04341,0.46509 -0.09302,0.86817 l -0.595312,-0.0186 q 0.0124,-0.23564 0.0186,-0.44028 0.0062,-0.20464 0.0062,-0.38447 0,-0.5209 -0.06201,-0.84336 -0.06201,-0.32866 -0.229444,-0.5147 -0.16123,-0.18603 -0.446484,-0.25425 -0.285254,-0.0682 -0.725537,-0.0744 -0.322461,-0.006 -0.601514,-0.006 -0.272851,-0.006 -0.533301,-0.006 h -1.27124 q -0.111621,0 -0.229443,0 -0.111621,0 -0.235645,0.006 -0.124023,0 -0.272851,0.006 -0.148828,0 -0.328662,0.006 -0.02481,1.048 -0.06201,2.53008 -0.03721,1.47588 -0.08682,3.29902 0.806153,0.0372 1.438672,0.0558 0.638721,0.0124 1.165821,0.0124 0.644921,0 1.141015,-0.0372 0.502295,-0.0434 0.948779,-0.13023 0.09922,0.27286 0.09922,0.4899 0,0.17983 -0.111621,0.30385 -0.111621,0.12403 -0.322461,0.19844 -0.204638,0.0744 -0.502295,0.11162 -0.291455,0.031 -0.657324,0.031 -0.651123,0 -1.475879,-0.0682 -0.818555,-0.0744 -1.74873,-0.17984 -0.02481,0.76275 -0.05581,1.5875 -0.02481,0.82476 -0.04961,1.67432 -0.02481,0.84956 -0.05581,1.71772 -0.0248,0.86817 -0.04961,1.72393 l -1.469678,0.18603 -0.111621,-0.0124 q 0.07441,-1.77974 0.130225,-3.37344 0.06201,-1.5937 0.09922,-3.10058 0.04341,-1.50689 0.06201,-2.98277 0.02481,-1.48208 0.02481,-3.03237 z"
         id="path4885" />
      <path
         d="m 63.099691,134.60927 q 0,0.42168 -0.03101,0.90537 -0.0248,0.47749 -0.06821,0.97359 -0.03721,0.49609 -0.08682,0.99218 -0.04341,0.4899 -0.08682,0.93018 -0.03721,0.44028 -0.06821,0.81235 -0.0248,0.36587 -0.0248,0.61392 0,0.73794 0.279053,1.079 0.279053,0.34107 0.744141,0.34107 0.527099,0 1.079003,-0.56431 0.551905,-0.57051 1.0542,-1.66191 0.502295,-1.09141 0.855761,-2.44947 0.353467,-1.36425 0.452686,-2.93935 l 1.314648,-0.16123 0.09922,0.006 q -0.05581,0.58911 -0.10542,1.25264 -0.04341,0.65732 -0.08062,1.32085 -0.03721,0.65732 -0.05581,1.28984 -0.0186,0.63252 -0.0186,1.16582 0,1.01079 0.117822,1.65571 0.117822,0.63872 0.303858,1.01079 0.186035,0.36587 0.421679,0.5085 0.241846,0.13643 0.483692,0.13643 0.142627,0 0.279052,-0.0372 0.142627,-0.0372 0.266651,-0.0868 0.124023,-0.0558 0.223242,-0.11782 0.10542,-0.062 0.179834,-0.11162 l 0.204639,0.28525 q -0.179834,0.18604 -0.409278,0.35347 -0.229443,0.16123 -0.483691,0.27905 -0.254248,0.12403 -0.533301,0.19224 -0.279053,0.0682 -0.564307,0.0682 -0.359668,0 -0.700732,-0.14263 -0.334863,-0.14262 -0.595312,-0.47749 -0.26045,-0.33486 -0.42168,-0.89296 -0.155029,-0.55811 -0.155029,-1.38907 0,-0.26665 0.0124,-0.5395 0.0124,-0.27285 0.03721,-0.57671 0.02481,-0.30386 0.06201,-0.65112 0.04341,-0.35347 0.09922,-0.77515 l -0.06821,-0.0124 q -0.421679,1.55649 -0.917773,2.61069 -0.489893,1.0542 -1.010791,1.69912 -0.514697,0.64493 -1.035596,0.91778 -0.520898,0.27905 -0.992187,0.27905 -0.353467,0 -0.682129,-0.12402 -0.322461,-0.11783 -0.576709,-0.39068 -0.254248,-0.27905 -0.409277,-0.73173 -0.148828,-0.45269 -0.148828,-1.11622 0,-0.43408 0.04961,-1.00459 0.04961,-0.5767 0.10542,-1.22163 0.06201,-0.65112 0.111621,-1.33945 0.04961,-0.69453 0.04961,-1.37046 0,-0.27285 -0.0186,-0.47129 -0.0186,-0.19844 -0.08062,-0.32866 -0.06201,-0.13022 -0.186036,-0.19224 -0.117822,-0.062 -0.328662,-0.062 -0.21084,0 -0.551904,0.062 -0.334863,0.062 -0.706934,0.16744 l -0.09302,-0.44649 q 0.508496,-0.17983 0.942578,-0.31006 0.440283,-0.13642 0.781348,-0.22324 0.347265,-0.0868 0.58291,-0.13022 0.241845,-0.0434 0.353467,-0.0434 0.223242,0 0.365869,0.0806 0.142627,0.0806 0.229443,0.23565 0.08682,0.15503 0.117822,0.37207 0.03721,0.21704 0.03721,0.49609 z"
         id="path4887" />
      <path
         d="m 74.305208,128.96621 q -0.260449,1.17822 -0.440283,2.43706 -0.173633,1.25263 -0.297657,2.47426 0.291455,0.0124 0.564307,0.0186 0.279053,0.006 0.514697,0.0124 0.241846,0.006 0.434082,0.006 0.198438,0 0.328662,0 0.564307,0 0.923975,-0.0682 0.03101,0.10542 0.04961,0.19223 0.0186,0.0868 0.0186,0.16123 0,0.27286 -0.229444,0.35347 -0.223242,0.0806 -0.651123,0.0806 -0.409277,0 -0.917773,-0.0496 -0.502295,-0.0496 -1.103809,-0.093 -0.06821,0.66352 -0.117822,1.29604 -0.04341,0.62632 -0.07441,1.18443 -0.02481,0.5581 -0.03721,1.03559 -0.0124,0.47749 -0.0124,0.83096 0,0.66353 0.06821,1.18442 0.06821,0.5209 0.241845,0.88677 0.173633,0.35967 0.477491,0.55191 0.303857,0.19223 0.768945,0.19223 0.334863,0 0.74414,-0.11782 0.415479,-0.11782 0.942579,-0.37827 0.167431,0.16743 0.192236,0.40928 -0.384473,0.25424 -0.775147,0.46508 -0.390673,0.20464 -0.768945,0.35347 -0.378271,0.14883 -0.731738,0.22944 -0.353467,0.0806 -0.669727,0.0806 -0.415478,0 -0.762744,-0.15503 -0.341064,-0.14883 -0.595312,-0.5333 -0.248047,-0.39067 -0.390674,-1.048 -0.136426,-0.65732 -0.136426,-1.66191 0,-0.56431 0.0186,-1.15962 0.0186,-0.60152 0.04961,-1.21543 0.03101,-0.61392 0.08061,-1.22783 0.04961,-0.61392 0.111621,-1.20923 -0.489892,0.006 -0.911572,0.0434 -0.415478,0.031 -0.713135,0.10542 -0.0186,-0.0372 -0.0186,-0.0868 0,-0.13022 0.124023,-0.24185 0.130225,-0.11782 0.353467,-0.21084 0.229443,-0.093 0.545703,-0.15503 0.31626,-0.062 0.694531,-0.0868 0.142627,-1.29605 0.303858,-2.44946 0.16123,-1.15342 0.322461,-2.05879 0.03101,-0.16123 0.111621,-0.26665 0.08682,-0.10542 0.198437,-0.16744 0.111621,-0.062 0.241846,-0.0868 0.130225,-0.0248 0.254248,-0.0248 0.204639,0 0.365869,0.0434 0.167432,0.0434 0.310059,0.12403 z"
         id="path4889" />
      <path
         d="m 85.076644,133.48686 q -0.05581,0.58911 -0.10542,1.25264 -0.04341,0.65732 -0.08062,1.32085 -0.03721,0.65732 -0.05581,1.28984 -0.0186,0.63252 -0.0186,1.16582 0,1.01079 0.117822,1.65571 0.117822,0.63872 0.303857,1.01079 0.186036,0.36587 0.42168,0.5085 0.241846,0.13643 0.483692,0.13643 0.142627,0 0.279052,-0.0372 0.142627,-0.0372 0.266651,-0.0868 0.124023,-0.0558 0.223242,-0.11782 0.10542,-0.062 0.179834,-0.11162 l 0.204639,0.28525 q -0.179834,0.18604 -0.409278,0.35347 -0.229443,0.16123 -0.483691,0.27905 -0.254248,0.12403 -0.533301,0.19224 -0.279053,0.0682 -0.564307,0.0682 -0.359668,0 -0.700732,-0.14263 -0.334863,-0.14262 -0.601514,-0.47749 -0.260449,-0.34106 -0.421679,-0.89917 -0.161231,-0.5643 -0.161231,-1.39526 0,-0.26665 0.0124,-0.5333 0.0124,-0.27285 0.03721,-0.57671 0.03101,-0.30386 0.07441,-0.65112 0.04341,-0.34727 0.09922,-0.76895 l -0.06821,-0.0124 q -0.421679,1.55649 -0.917773,2.61069 -0.489893,1.0542 -1.010791,1.69912 -0.514697,0.64493 -1.035596,0.91778 -0.520898,0.27905 -0.992187,0.27905 -0.558106,0 -0.930176,-0.30386 -0.365869,-0.29765 -0.589111,-0.81235 -0.217041,-0.5209 -0.310059,-1.20303 -0.08682,-0.68833 -0.08682,-1.45727 0,-0.65113 0.03721,-1.33326 0.04341,-0.68833 0.10542,-1.34565 0.06821,-0.66352 0.148828,-1.25884 0.08682,-0.60151 0.173633,-1.0728 0.03101,-0.17363 0.09922,-0.27905 0.07441,-0.10542 0.167432,-0.16123 0.09302,-0.0558 0.204639,-0.0744 0.111621,-0.0186 0.223242,-0.0186 0.21084,0 0.390674,0.0496 0.186035,0.0496 0.365869,0.14263 -0.111621,0.70073 -0.21084,1.39526 -0.09302,0.69453 -0.167432,1.35185 -0.06821,0.65113 -0.111621,1.25884 -0.03721,0.60772 -0.03721,1.13482 0,0.5705 0.05581,1.04179 0.06201,0.46509 0.198437,0.79996 0.136426,0.33486 0.347266,0.52089 0.217041,0.17984 0.5271,0.17984 0.527099,0 1.079003,-0.56431 0.551905,-0.57051 1.0542,-1.66191 0.502295,-1.09141 0.855761,-2.44947 0.353467,-1.36425 0.452686,-2.93935 l 1.314648,-0.16123 z"
         id="path4891" />
      <path
         d="m 88.505891,142.53437 -0.09922,-0.006 q 0.04961,-0.58911 0.09302,-1.28364 0.04341,-0.69454 0.08061,-1.40767 0.03721,-0.71934 0.06201,-1.42007 0.03101,-0.70693 0.04961,-1.31465 0.0248,-0.61391 0.031,-1.0976 0.0124,-0.4837 0.0124,-0.76275 0,-0.22944 -0.0186,-0.39687 -0.0186,-0.16744 -0.08682,-0.27906 -0.06201,-0.11162 -0.186035,-0.16123 -0.124024,-0.0558 -0.334864,-0.0558 -0.10542,0 -0.217041,0.0124 -0.111621,0.0124 -0.248046,0.0372 -0.136426,0.0248 -0.310059,0.0682 -0.167432,0.0372 -0.390674,0.093 l -0.09302,-0.44648 q 1.029394,-0.37207 1.668115,-0.5209 0.63872,-0.15503 0.861963,-0.15503 0.409277,0 0.58291,0.24185 0.179834,0.23564 0.179834,0.70693 0,0.0434 -0.0124,0.25425 -0.0124,0.21084 -0.03721,0.5519 -0.0186,0.33486 -0.04961,0.78135 -0.03101,0.44648 -0.07441,0.96118 -0.03721,0.5085 -0.08682,1.0666 -0.04961,0.55191 -0.10542,1.10381 l 0.06201,0.006 q 0.297657,-1.21543 0.669727,-2.26343 0.378271,-1.05419 0.843359,-1.82934 0.471289,-0.77515 1.029395,-1.21543 0.564306,-0.44649 1.234033,-0.44649 0.235644,0 0.440283,0.0744 0.204639,0.0744 0.353467,0.21084 0.148828,0.13022 0.235644,0.31626 0.08682,0.17983 0.08682,0.39687 0,0.27906 -0.124024,0.53951 -0.117822,0.25424 -0.378271,0.45268 h -0.04961 q -0.26045,-0.21704 -0.496094,-0.31006 -0.229444,-0.0992 -0.489893,-0.0992 -0.279052,0 -0.539502,0.10542 -0.260449,0.10542 -0.47749,0.30386 -0.353467,0.32246 -0.657324,0.85576 -0.303858,0.5271 -0.558106,1.17202 -0.248046,0.64493 -0.452685,1.35806 -0.198438,0.70693 -0.347266,1.38286 -0.142627,0.66973 -0.235644,1.26504 -0.08682,0.58911 -0.124024,0.99219 z"
         id="path4893" />
      <path
         d="m 101.10047,140.45078 q 0.0372,0.0186 0.093,0.0558 0.062,0.031 0.11162,0.0744 0.0496,0.0372 0.0868,0.0868 0.0372,0.0434 0.0372,0.0868 0,0.0248 -0.0186,0.0496 -0.34726,0.48369 -0.75034,0.84336 -0.39688,0.35347 -0.830958,0.59531 -0.427881,0.23565 -0.874365,0.34727 -0.446485,0.11782 -0.880567,0.11782 -0.74414,0 -1.364257,-0.30386 -0.620118,-0.30385 -1.066602,-0.83095 -0.446484,-0.5271 -0.700732,-1.23404 -0.248047,-0.71313 -0.248047,-1.52548 0,-0.66353 0.142627,-1.32705 0.148828,-0.66353 0.421679,-1.26504 0.279053,-0.60152 0.675928,-1.11621 0.396875,-0.5209 0.89917,-0.89917 0.508496,-0.38448 1.11001,-0.60152 0.607715,-0.21704 1.302246,-0.21704 0.458887,0 0.874368,0.12402 0.41548,0.12403 0.72553,0.35967 0.31626,0.22945 0.5023,0.57051 0.18603,0.34106 0.18603,0.77515 0,0.63252 -0.41547,1.1038 -0.40928,0.47129 -1.134819,0.79996 -0.725537,0.32866 -1.711523,0.5333 -0.979785,0.19843 -2.120801,0.29765 v 0.10542 q 0,0.79375 0.198438,1.45108 0.204638,0.65732 0.558105,1.12861 0.353467,0.46509 0.830957,0.72554 0.47749,0.26045 1.029395,0.26045 0.558105,0 1.141015,-0.27285 0.589113,-0.27906 1.190623,-0.89917 z m -1.165818,-4.97955 q 0,-0.28525 -0.09922,-0.5333 -0.09302,-0.24804 -0.26665,-0.42788 -0.167432,-0.18603 -0.403076,-0.29145 -0.235645,-0.10542 -0.508497,-0.10542 -0.403076,0 -0.731738,0.14262 -0.328662,0.14263 -0.589111,0.39068 -0.260449,0.24184 -0.458887,0.57051 -0.198437,0.32246 -0.341064,0.68833 -0.136426,0.36587 -0.223242,0.75034 -0.08682,0.38447 -0.124024,0.75034 0.880566,-0.062 1.575098,-0.21084 0.700732,-0.15503 1.178222,-0.39067 0.483692,-0.24185 0.73794,-0.57051 0.254248,-0.33486 0.254248,-0.76275 z"
         id="path4895" />
      <path
         d="m 108.62249,130.05141 q 0,-0.26045 -0.0434,-0.44648 -0.0434,-0.18604 -0.15502,-0.30386 -0.10542,-0.11782 -0.29766,-0.17363 -0.19224,-0.0558 -0.48989,-0.0558 -0.40928,0 -1.048,0.093 l -0.0744,-0.5519 q 0.58291,-0.10542 1.27124,-0.21704 0.69454,-0.11162 1.42007,-0.20464 0.73174,-0.093 1.46348,-0.14883 0.73794,-0.062 1.41387,-0.062 0.89297,0 1.67431,0.16123 0.78755,0.16123 1.37046,0.5519 0.58911,0.38448 0.93018,1.0356 0.34106,0.65112 0.34106,1.62471 0,1.13481 -0.38447,2.04018 -0.37827,0.89917 -1.0666,1.52549 -0.68833,0.62632 -1.65571,0.96118 -0.96119,0.32866 -2.12701,0.32866 -0.26045,0 -0.36587,-0.0806 -0.10542,-0.0806 -0.10542,-0.34727 v -0.0806 q 0,-0.062 0.006,-0.093 0.91157,0 1.56269,-0.18604 0.65732,-0.19223 1.10381,-0.50229 0.44648,-0.31626 0.71313,-0.71313 0.26665,-0.40308 0.40928,-0.82476 0.14263,-0.42788 0.18604,-0.84336 0.0434,-0.41548 0.0434,-0.75034 0,-0.89917 -0.25424,-1.49448 -0.24805,-0.60152 -0.68213,-0.95498 -0.42788,-0.35347 -1.00459,-0.4961 -0.57671,-0.14883 -1.22783,-0.14883 -0.32867,0 -0.63252,0.0248 -0.29766,0.0248 -0.65113,0.0682 -0.0124,0.47749 -0.0372,1.27744 -0.0186,0.79995 -0.0496,1.84175 -0.0248,1.0356 -0.062,2.27583 -0.0372,1.23403 -0.0744,2.58589 -0.0372,1.34565 -0.0806,2.77192 -0.0434,1.42007 -0.0868,2.83394 l -1.46968,0.18603 -0.11162,-0.0124 q 0.0744,-1.77974 0.13643,-3.37344 0.062,-1.5937 0.0992,-3.10058 0.0434,-1.51309 0.0682,-2.98897 0.0248,-1.48208 0.0248,-3.03237 z"
         id="path4897" />
      <path
         d="m 119.49935,130.84516 c -0.14469,0 -0.27285,-0.0289 -0.38447,-0.0868 -0.11162,-0.062 -0.20671,-0.14055 -0.28526,-0.23564 -0.0786,-0.0992 -0.13849,-0.21084 -0.17983,-0.33486 -0.0413,-0.12816 -0.062,-0.25839 -0.062,-0.39068 0,-0.18603 -3.49019,-8.93822 -3.42819,-9.07878 0.062,-0.14469 3.6638,8.32431 3.76303,8.22922 -3.76303,-8.22922 -11.61964,-24.58341 0.32866,-0.21704 0.11989,-0.0496 -4.20744,-8.01218 -4.09169,-8.01218 0.14056,0 4.71181,7.96465 4.82343,8.01838 0.11162,0.0496 0.20671,0.11988 0.28526,0.21084 0.0827,0.0909 0.14469,0.19637 0.18603,0.31626 0.0455,0.11575 0.0682,0.24184 0.0682,0.37827 0,0.14469 -0.0248,0.28939 -0.0744,0.43408 -0.0496,0.14056 -0.11988,0.26872 -0.21084,0.38448 -0.0868,0.11575 -0.1943,0.20877 -0.32246,0.27905 -0.12403,0.0703 -0.26252,0.10542 -0.41548,0.10542 z m 0.5395,2.80293 c -0.0703,0.47129 -0.13022,0.94464 -0.17983,1.42007 -0.0496,0.47129 -0.0909,0.92811 -0.12402,1.37046 -0.0289,0.44235 -0.0517,0.86196 -0.0682,1.25883 -0.0124,0.39275 -0.0186,0.74828 -0.0186,1.06661 0,0.42995 0.006,0.79995 0.0186,1.11001 0.0124,0.30592 0.0331,0.5643 0.062,0.77514 0.0289,0.21084 0.0641,0.38034 0.10542,0.5085 0.0455,0.12402 0.0992,0.22117 0.16124,0.29145 0.0661,0.0661 0.14055,0.10954 0.22324,0.13023 0.0868,0.0207 0.18396,0.031 0.29145,0.031 0.19844,0 0.41135,-0.0289 0.63872,-0.0868 0.23151,-0.062 0.46509,-0.14675 0.70074,-0.25425 l 0.11782,0.32246 c -0.14883,0.11989 -0.33693,0.24184 -0.56431,0.36587 -0.22324,0.12403 -0.45888,0.23771 -0.70693,0.34106 -0.24805,0.10335 -0.49196,0.18604 -0.73174,0.24805 -0.23565,0.0661 -0.44029,0.0992 -0.61392,0.0992 -0.11575,0 -0.22117,-0.0103 -0.31626,-0.031 -0.0951,-0.0165 -0.1819,-0.062 -0.26045,-0.13642 -0.0744,-0.0744 -0.14262,-0.18397 -0.20463,-0.32866 -0.0579,-0.14469 -0.10748,-0.34107 -0.14883,-0.58912 -0.0372,-0.24805 -0.0661,-0.5581 -0.0868,-0.93017 -0.0207,-0.37207 -0.031,-0.82269 -0.031,-1.35186 0,-0.31005 0.002,-0.65938 0.006,-1.04799 0.008,-0.39275 0.0186,-0.81236 0.031,-1.25884 0.0124,-0.45062 0.0289,-0.92398 0.0496,-1.42007 0.0207,-0.50023 0.0475,-1.01492 0.0806,-1.54409 0.008,-0.11576 0.0393,-0.20878 0.093,-0.27906 0.0537,-0.0744 0.11988,-0.13022 0.19844,-0.16743 0.0785,-0.0413 0.16123,-0.0682 0.24805,-0.0806 0.091,-0.0165 0.17363,-0.0248 0.24805,-0.0248 0.27698,0 0.53743,0.0641 0.78134,0.19224 z"
         id="path4899"
         sodipodi:nodetypes="ccccscccscccscccccccccscscccsccccscsccccsscccccccscc" />
      <path
         d="m 123.64173,135.24179 q 0,-0.25425 -0.0372,-0.42788 -0.0372,-0.17363 -0.11782,-0.27285 -0.0744,-0.10542 -0.19224,-0.14883 -0.11782,-0.0434 -0.27905,-0.0434 -0.22324,0 -0.5333,0.062 -0.31006,0.062 -0.70693,0.16744 l -0.093,-0.44649 q 0.44028,-0.15503 0.84336,-0.27905 0.40928,-0.13023 0.75034,-0.22324 0.34107,-0.093 0.60151,-0.14263 0.26045,-0.0496 0.40928,-0.0496 0.35967,0 0.55811,0.21704 0.20464,0.21084 0.20464,0.73174 0,0.062 -0.0124,0.29145 -0.0124,0.22325 -0.0372,0.57051 -0.0186,0.34727 -0.0496,0.79995 -0.031,0.44649 -0.0744,0.95498 -0.0372,0.5085 -0.0868,1.0542 -0.0496,0.5395 -0.10542,1.07901 l 0.0372,0.006 q 0.47129,-1.5999 1.01079,-2.69751 0.53951,-1.10381 1.09761,-1.78594 0.55811,-0.68833 1.11001,-0.99219 0.55191,-0.30385 1.0542,-0.30385 0.34727,0 0.66973,0.13022 0.32246,0.13023 0.57051,0.41548 0.25424,0.28525 0.40307,0.73794 0.14883,0.44648 0.14883,1.0852 0,0.18604 -0.0248,0.5023 -0.0186,0.31006 -0.0496,0.69453 -0.031,0.38447 -0.0744,0.81855 -0.0372,0.42789 -0.0682,0.84336 -0.031,0.41548 -0.0558,0.79375 -0.0186,0.37207 -0.0186,0.65113 0,0.48369 0.0372,0.78755 0.0434,0.30385 0.13643,0.48369 0.093,0.17363 0.24804,0.24184 0.15503,0.062 0.37828,0.062 0.32246,0 0.66972,-0.0868 0.34727,-0.093 0.70073,-0.25425 l 0.11783,0.32246 q -0.22325,0.17983 -0.56431,0.36587 -0.34106,0.18604 -0.71934,0.34106 -0.37207,0.15503 -0.74414,0.24805 -0.37207,0.0992 -0.65732,0.0992 -0.33486,0 -0.5271,-0.17983 -0.19224,-0.17984 -0.29146,-0.4899 -0.093,-0.31006 -0.12402,-0.72553 -0.0248,-0.41548 -0.0248,-0.89297 0,-0.58291 0.0372,-1.19683 0.0434,-0.62012 0.093,-1.17822 0.0496,-0.55811 0.0868,-1.01079 0.0434,-0.45889 0.0434,-0.73174 0,-0.72554 -0.27286,-1.0666 -0.27285,-0.34727 -0.72553,-0.34727 -0.35967,0 -0.75655,0.30386 -0.39687,0.30386 -0.79375,0.83716 -0.39067,0.5271 -0.75654,1.25263 -0.35967,0.71934 -0.65112,1.5627 -0.29146,0.83716 -0.48369,1.75493 -0.19224,0.91778 -0.24185,1.83555 l -1.29604,0.16123 -0.0992,-0.006 q 0.0496,-0.58911 0.093,-1.28364 0.0434,-0.69454 0.0806,-1.40767 0.0372,-0.71934 0.062,-1.42007 0.031,-0.70693 0.0496,-1.31465 0.0248,-0.61391 0.031,-1.0976 0.0124,-0.4837 0.0124,-0.76275 z"
         id="path4901" />
      <path
         d="m 136.44095,125.72919 q -0.11782,0.99219 -0.23564,2.04639 -0.11783,1.0542 -0.22945,2.1332 -0.10542,1.07901 -0.21084,2.17041 -0.0992,1.09141 -0.18603,2.15801 -0.0806,1.0604 -0.14263,2.08359 -0.062,1.017 -0.0992,1.95337 l 0.0682,0.006 q 0.48989,-1.20303 1.05419,-2.12081 0.56431,-0.91777 1.14722,-1.53789 0.58291,-0.62011 1.15342,-0.93637 0.57671,-0.31626 1.0852,-0.31626 0.42789,0 0.75655,0.16123 0.32866,0.15503 0.57051,0.42168 0.24184,0.26045 0.40307,0.60771 0.16123,0.34107 0.26045,0.71934 0.0992,0.37207 0.13643,0.75654 0.0434,0.38447 0.0434,0.71934 0,0.92397 -0.18603,1.73012 -0.17983,0.79995 -0.5023,1.46348 -0.32246,0.65732 -0.76274,1.17202 -0.44028,0.5147 -0.95498,0.86817 -0.5147,0.35346 -1.0852,0.5333 -0.57051,0.18603 -1.14722,0.18603 -0.38447,0 -0.77515,-0.0868 -0.38447,-0.0868 -0.75654,-0.26666 -0.36587,-0.17983 -0.69453,-0.45888 -0.32866,-0.28526 -0.58911,-0.66973 -0.21704,0.5457 -0.44029,0.89297 -0.22324,0.34727 -0.41548,0.55811 l -0.32246,-0.0806 q 0.34107,-0.94878 0.5023,-2.27583 0.16123,-1.33325 0.24805,-3.01377 0.031,-0.71933 0.0744,-1.63711 0.0496,-0.91777 0.0992,-1.93476 0.0496,-1.017 0.10542,-2.0774 0.0558,-1.0666 0.11162,-2.07119 0.0558,-1.00459 0.10542,-1.90376 0.0496,-0.89917 0.093,-1.5937 0.006,-0.14883 0.093,-0.25425 0.0868,-0.11162 0.21705,-0.17363 0.13022,-0.0682 0.29145,-0.0992 0.16743,-0.031 0.32866,-0.031 0.37827,0 0.78755,0.19843 z m 4.06177,11.6272 q 0,-0.42168 -0.0682,-0.86816 -0.062,-0.44649 -0.20464,-0.80616 -0.13643,-0.36587 -0.36587,-0.59531 -0.22324,-0.23564 -0.5457,-0.23564 -0.37828,0 -0.75035,0.19223 -0.36587,0.18604 -0.71313,0.5085 -0.34107,0.31626 -0.65733,0.73794 -0.31626,0.41548 -0.59531,0.87436 -0.27285,0.45889 -0.49609,0.93018 -0.21704,0.46509 -0.37827,0.88677 -0.15503,0.42168 -0.24185,0.76894 -0.0868,0.34107 -0.0868,0.54571 0.093,0.38447 0.28526,0.70073 0.19844,0.31006 0.47129,0.5333 0.27905,0.21704 0.61391,0.33486 0.34107,0.11782 0.71934,0.11782 0.62012,0 1.16582,-0.31005 0.5519,-0.31626 0.96118,-0.91158 0.40928,-0.59531 0.64492,-1.45107 0.24185,-0.86196 0.24185,-1.95337 z"
         id="path4903" />
      <path
         d="m 148.51463,135.99833 q 0,-0.48989 -0.16123,-0.84956 -0.16123,-0.35966 -0.42168,-0.58911 -0.26044,-0.22944 -0.58911,-0.34106 -0.32866,-0.11162 -0.65732,-0.11162 -0.44028,0 -0.74414,0.093 -0.30386,0.093 -0.4961,0.25425 -0.18603,0.16123 -0.27285,0.38447 -0.0806,0.21705 -0.0806,0.47129 0,0.29766 0.10542,0.60152 0.11162,0.29765 0.32246,0.58291 l -0.0248,0.0682 q -0.35346,0.17363 -0.71313,0.17363 -0.21084,0 -0.39688,-0.062 -0.17983,-0.0682 -0.31626,-0.19223 -0.13022,-0.12403 -0.21084,-0.30386 -0.0744,-0.17984 -0.0744,-0.40308 0,-0.36587 0.17363,-0.68833 0.17984,-0.32246 0.47129,-0.58911 0.29146,-0.26665 0.67593,-0.47749 0.38447,-0.21084 0.79375,-0.35347 0.40928,-0.14882 0.81855,-0.22324 0.41548,-0.0806 0.76895,-0.0806 0.65112,0 1.11001,0.17363 0.46509,0.17363 0.75034,0.50849 0.29146,0.32867 0.42168,0.79996 0.13643,0.47128 0.13643,1.0666 0,0.40927 -0.0372,0.89917 -0.031,0.48989 -0.0744,1.02939 -0.0434,0.5333 -0.0806,1.10381 -0.031,0.57051 -0.031,1.13481 0,0.89297 0.32867,1.34566 0.33486,0.44648 0.87436,0.44648 0.47749,0 1.0666,-0.35346 l 0.17984,0.26665 q -0.41548,0.41548 -0.90537,0.63252 -0.4899,0.21704 -1.0294,0.21704 -0.40307,0 -0.74414,-0.13643 -0.34106,-0.13642 -0.58911,-0.40307 -0.24805,-0.27286 -0.38447,-0.68213 -0.13643,-0.40928 -0.13643,-0.94878 0,-0.16123 0.006,-0.32246 0.0124,-0.16123 0.0434,-0.34107 h -0.0372 q -0.26665,0.5333 -0.62011,1.0542 -0.34727,0.5147 -0.76895,0.92398 -0.41548,0.40307 -0.89297,0.65112 -0.47129,0.25425 -0.99218,0.25425 -0.42789,0 -0.78135,-0.14883 -0.35347,-0.14883 -0.60772,-0.40928 -0.24804,-0.26045 -0.39067,-0.61391 -0.13643,-0.35967 -0.13643,-0.78135 0,-0.54571 0.19844,-0.99219 0.20464,-0.44648 0.55811,-0.79995 0.35966,-0.35347 0.85576,-0.60772 0.49609,-0.26044 1.079,-0.42788 0.58291,-0.17363 1.23404,-0.25424 0.65112,-0.0868 1.32705,-0.0868 0.0434,-0.39067 0.0682,-0.75654 0.031,-0.36587 0.031,-0.80616 z m -3.80751,4.26021 q 0,0.24184 0.0496,0.46509 0.0558,0.21704 0.16744,0.38447 0.11782,0.16743 0.29145,0.26665 0.17984,0.093 0.42788,0.093 0.27905,0 0.57671,-0.13023 0.29766,-0.13022 0.58291,-0.35967 0.29146,-0.22944 0.55191,-0.5457 0.26665,-0.32246 0.47749,-0.70073 0.21084,-0.37827 0.34726,-0.79375 0.14263,-0.42168 0.18604,-0.86196 -0.45889,0.0124 -0.91158,0.062 -0.45268,0.0434 -0.86196,0.14263 -0.40307,0.0992 -0.75034,0.26044 -0.34727,0.16123 -0.60151,0.40308 -0.24805,0.23564 -0.39068,0.56431 -0.14262,0.32246 -0.14262,0.75034 z"
         id="path4905" />
      <path
         d="m 155.44754,125.72919 q -0.12402,1.0542 -0.24804,2.16421 -0.11782,1.10381 -0.22945,2.23863 -0.10542,1.12861 -0.19843,2.26962 -0.093,1.14102 -0.16123,2.25103 -0.0682,1.10381 -0.10542,2.17041 -0.0372,1.0666 -0.0372,2.04639 0,0.61391 0.0124,1.0542 0.0186,0.44028 0.0496,0.74414 0.0372,0.30385 0.093,0.48989 0.062,0.18603 0.14883,0.28525 0.0868,0.0992 0.20464,0.13643 0.11782,0.031 0.27905,0.031 0.29765,0 0.63872,-0.0868 0.34726,-0.093 0.70073,-0.25425 l 0.11782,0.32246 q -0.22324,0.17983 -0.5643,0.36587 -0.33487,0.18604 -0.70694,0.34106 -0.37207,0.15503 -0.73173,0.24805 -0.35347,0.0992 -0.61392,0.0992 -0.33486,0 -0.5333,-0.17363 -0.19224,-0.16743 -0.29766,-0.55191 -0.0992,-0.38447 -0.13022,-0.99839 -0.0248,-0.62011 -0.0248,-1.50688 0,-0.32246 0.0186,-0.91777 0.0186,-0.60152 0.0496,-1.39527 0.0372,-0.79375 0.0806,-1.73633 0.0434,-0.94257 0.093,-1.94716 0.0496,-1.01079 0.10542,-2.03399 0.0558,-1.02939 0.11162,-1.98437 0.0558,-0.96118 0.10542,-1.81075 0.0496,-0.84956 0.093,-1.50068 0.006,-0.14883 0.0868,-0.25425 0.0806,-0.11162 0.20464,-0.17363 0.13023,-0.0682 0.28526,-0.0992 0.16123,-0.031 0.32246,-0.031 0.37207,0 0.78134,0.19843 z"
         id="path4907" />
      <path
         d="m 160.36507,125.72919 q -0.12402,1.0542 -0.24805,2.16421 -0.11782,1.10381 -0.22944,2.23863 -0.10542,1.12861 -0.19844,2.26962 -0.093,1.14102 -0.16123,2.25103 -0.0682,1.10381 -0.10542,2.17041 -0.0372,1.0666 -0.0372,2.04639 0,0.61391 0.0124,1.0542 0.0186,0.44028 0.0496,0.74414 0.0372,0.30385 0.093,0.48989 0.062,0.18603 0.14882,0.28525 0.0868,0.0992 0.20464,0.13643 0.11782,0.031 0.27905,0.031 0.29766,0 0.63873,-0.0868 0.34726,-0.093 0.70073,-0.25425 l 0.11782,0.32246 q -0.22324,0.17983 -0.56431,0.36587 -0.33486,0.18604 -0.70693,0.34106 -0.37207,0.15503 -0.73174,0.24805 -0.35347,0.0992 -0.61391,0.0992 -0.33487,0 -0.53331,-0.17363 -0.19223,-0.16743 -0.29765,-0.55191 -0.0992,-0.38447 -0.13023,-0.99839 -0.0248,-0.62011 -0.0248,-1.50688 0,-0.32246 0.0186,-0.91777 0.0186,-0.60152 0.0496,-1.39527 0.0372,-0.79375 0.0806,-1.73633 0.0434,-0.94257 0.093,-1.94716 0.0496,-1.01079 0.10542,-2.03399 0.0558,-1.02939 0.11163,-1.98437 0.0558,-0.96118 0.10542,-1.81075 0.0496,-0.84956 0.093,-1.50068 0.006,-0.14883 0.0868,-0.25425 0.0806,-0.11162 0.20464,-0.17363 0.13022,-0.0682 0.28525,-0.0992 0.16123,-0.031 0.32246,-0.031 0.37207,0 0.78135,0.19843 z"
         id="path4909" />
    </g>
  </g>
</svg>
