<?xml version="1.0" encoding="UTF-8" standalone="no"?>
<svg
   version="1.0"
   width="776pt"
   height="160pt"
   viewBox="0 0 776 160"
   preserveAspectRatio="xMidYMid"
   id="svg10"
   sodipodi:docname="mugen.svg"
   inkscape:version="1.4 (86a8ad7, 2024-10-11)"
   xmlns:inkscape="http://www.inkscape.org/namespaces/inkscape"
   xmlns:sodipodi="http://sodipodi.sourceforge.net/DTD/sodipodi-0.dtd"
   xmlns="http://www.w3.org/2000/svg"
   xmlns:svg="http://www.w3.org/2000/svg">
  <defs
     id="defs10" />
  <sodipodi:namedview
     id="namedview10"
     pagecolor="#000000"
     bordercolor="#000000"
     borderopacity="0.25"
     inkscape:showpageshadow="2"
     inkscape:pageopacity="0.0"
     inkscape:pagecheckerboard="0"
     inkscape:deskcolor="#d1d1d1"
     inkscape:document-units="pt"
     inkscape:zoom="0.60687257"
     inkscape:cx="350.15588"
     inkscape:cy="-119.46495"
     inkscape:window-width="1920"
     inkscape:window-height="1017"
     inkscape:window-x="1912"
     inkscape:window-y="-2"
     inkscape:window-maximized="1"
     inkscape:current-layer="svg10" />
  <g
     transform="matrix(0.1,0,0,-0.1,0,135)"
     fill="#000000"
     stroke="none"
     id="g10">
    <path
       id="path26"
       style="fill:#ffffff;stroke-width:0.75"
       d="M 191.50049,110.98242 V 94.299318 77.50049 H 171.49952 151.5 v 16.798828 16.683102 z"
       transform="matrix(9.9999998,0,0,-9.9999998,0,1110)" />
    <path
       id="path25"
       style="fill:#ffffff;stroke-width:0.75"
       d="M 356.5005,110.98242 V 94.299318 77.50049 h -20.00098 -19.99951 v 16.798828 16.683102 z"
       transform="matrix(9.9999998,0,0,-9.9999998,0,1110)" />
    <path
       id="path24"
       style="fill:#ffffff;stroke-width:0.75"
       d="M 517.50001,110.98242 V 94.299318 77.50049 H 497.5005 477.49952 v 16.798828 16.683102 z"
       transform="matrix(9.9999998,0,0,-9.9999998,0,1110)" />
    <path
       id="path23"
       style="fill:#ffffff;stroke-width:0.75"
       d="M 661.50001,110.98242 V 94.299318 77.50049 H 641.5005 621.49952 v 16.798828 16.683102 z"
       transform="matrix(9.9999998,0,0,-9.9999998,0,1110)" />
    <path
       id="path20"
       style="fill:#ffffff;stroke-width:0.75"
       d="m 666.49953,0 v 55.500001 55.482419 h 21 l 0.30029,-37.082516 c 0.1,-20.500001 0.40058,-36.999806 0.60058,-36.799806 0.2,0.2 7.99942,16.900098 17.39942,37.100099 l 16.99072,36.782223 h 53.10059 V 0 h -21.39111 l -0.3003,36.700196 c -0.2,23.100001 -0.5997,36.200196 -1.1997,35.200196 -0.5,-0.9 -7.30001,-15.300977 -15.00001,-32.000977 -7.8,-16.7 -15.20039,-32.4991219 -16.40039,-35.0991219 L 719.29982,0 Z"
       transform="matrix(9.9999998,0,0,-9.9999998,0,1110)" />
    <path
       id="path18"
       style="fill:#ffffff;stroke-width:0.75"
       d="m 523.50001,0 v 55.500001 55.482419 h 87 V 99.799807 88.500002 L 588.3003,88.199709 565.99952,88.00049 V 76.500002 64.999513 l 20.80078,-0.199219 20.69971,-0.300293 V 53.500489 42.499513 L 586.8003,42.200684 565.99952,42.000001 V 32.500489 22.999512 L 587.79933,22.800293 609.49952,22.5 V 11.200196 0 Z"
       transform="matrix(9.9999998,0,0,-9.9999998,0,1110)" />
    <path
       id="path16"
       style="fill:#ffffff;stroke-width:0.75"
       d="m 340.0005,0 c 33.7,0 36.29951,0.09960938 33.49951,1.5996094 -4.3,2.2000001 -8.39961,6.3010704 -10.59961,10.6010746 -3.3,6.5 -4.1002,16.299121 -3.7002,48.599122 0.3,29.5 0.4001,30.900782 2.6001,35.800782 2.8,6.200002 7.59981,11.099412 12.79981,12.899412 3.6725,1.35303 3.08362,1.39063 -6.49952,1.48242 h 97.39893 V 76.800295 42.499513 H 434.5005 403.50001 v 11.000976 10.999512 l 9.7998,0.300293 9.7002,0.300293 v 9.599122 c 0,12.5 -0.59932,13.300781 -10.29932,13.300781 -11.3,0 -10.70068,1.898926 -10.70068,-33.101075 0,-22.7 0.29931,-29.999122 1.29931,-30.599122 0.6,-0.4 13.8002,-1.000781 29.2002,-1.300781 L 460.50001,22.5 V 11.200196 0 Z"
       transform="matrix(9.9999998,0,0,-9.9999998,0,1110)" />
    <path
       id="path13"
       style="fill:#ffffff;stroke-width:0.75"
       d="m 195.49952,0 v 45.300294 c 0,45.100001 -2e-4,45.199805 2.2998,50.299806 2.8,6.2 8.60029,12.0999 13.80029,13.8999 3.59161,1.26192 3.00418,1.38435 -7.52783,1.48242 h 81.46436 l 5.16357,-2.48291 c 6.8,-3.1 10.7003,-8.998824 12.3003,-18.298825 0.7,-4.4 0.9998,-21.100977 0.7998,-48.500977 L 303.49952,0 h -21 l -0.49951,42.499513 c -0.4,32.9 -0.8003,42.700684 -1.8003,43.700684 -1,1 -5.89922,1.299316 -19.69922,1.299316 -16.4,0 -18.60019,-0.198828 -20.20019,-1.798828 -1.7,-1.6 -1.79981,-5.200683 -2.29981,-43.700684 L 237.49952,0 Z"
       transform="matrix(9.9999998,0,0,-9.9999998,0,1110)" />
    <path
       id="path10"
       style="fill:#ffffff;stroke-width:0.75"
       d="M -0.21826172,0 V 110.98242 H 21.499512 l 0.300293,-32.083004 c 0.1,-17.700001 0.400586,-31.998829 0.600586,-31.798829 0.2,0.2 4.700098,14.099414 10.100098,30.899415 5.3,16.8 10.199219,31.100688 10.699219,31.700688 0.774462,0.96807 -1.532878,1.26284 -9.738282,1.28173 h 40.044435 l 10.494141,-31.683102 10.5,-31.798829 0.200683,10.5 c 0.2,5.800001 0.399512,20.098829 0.499512,31.798829 l 0.300293,21.183102 h 42 V 55.500001 0 H 70.199708 c 13.500001,0 16.800098,0.29970704 16.100098,1.1997071 -0.6,0.7 -4.60039,12.0004889 -8.90039,25.0004889 -4.3,13.1 -8.099415,23.799317 -8.399415,23.799317 -0.4,0 -6.000097,-17.399808 -14.600098,-45.7998059 L 53.100587,0 Z"
       transform="matrix(9.9999998,0,0,-9.9999998,0,1110)" />
  </g>
</svg>
