<?xml version="1.0" encoding="UTF-8" standalone="no"?>
<!--Generator: Xara Xtreme (www.xara.com), SVG filter version: 1.0.0.13-->

<svg
   stroke-width="0.501"
   stroke-linejoin="bevel"
   fill-rule="evenodd"
   version="1.1"
   overflow="visible"
   width="417.6pt"
   height="86.4pt"
   viewBox="0 0 417.6 86.4"
   id="svg5841"
   sodipodi:docname="Naomi.svg"
   inkscape:version="1.1 (c68e22c387, 2021-05-23)"
   xmlns:inkscape="http://www.inkscape.org/namespaces/inkscape"
   xmlns:sodipodi="http://sodipodi.sourceforge.net/DTD/sodipodi-0.dtd"
   xmlns="http://www.w3.org/2000/svg"
   xmlns:svg="http://www.w3.org/2000/svg">
  <sodipodi:namedview
     id="namedview5843"
     pagecolor="#ffffff"
     bordercolor="#111111"
     borderopacity="1"
     inkscape:pageshadow="0"
     inkscape:pageopacity="0"
     inkscape:pagecheckerboard="1"
     inkscape:document-units="pt"
     showgrid="false"
     inkscape:zoom="1.9953304"
     inkscape:cx="436.26859"
     inkscape:cy="57.634564"
     inkscape:window-width="1280"
     inkscape:window-height="738"
     inkscape:window-x="-8"
     inkscape:window-y="-8"
     inkscape:window-maximized="1"
     inkscape:current-layer="Layer 1" />
  <defs
     id="defs5822">
    <marker
       id="DefaultArrow2"
       markerUnits="strokeWidth"
       viewBox="0 0 1 1"
       markerWidth="1"
       markerHeight="1"
       overflow="visible"
       orient="auto">
      <!-- REF_ARROW_STRAIGHT (-2) -->
      <g
         transform="scale(0.0092592592)"
         id="g5747">
        <!-- 1/108 -->
        <path
           d="M -9 54 L -9 -54 L 117 0 z"
           id="path5745" />
      </g>
    </marker>
    <marker
       id="DefaultArrow3"
       markerUnits="strokeWidth"
       viewBox="0 0 1 1"
       markerWidth="1"
       markerHeight="1"
       overflow="visible"
       orient="auto">
      <!-- REF_ARROW_ANGLED -->
      <g
         transform="scale(0.0092592592)"
         id="g5752">
        <path
           d="M -27 54 L -9 0 L -27 -54 L 135 0 z"
           id="path5750" />
      </g>
    </marker>
    <marker
       id="DefaultArrow4"
       markerUnits="strokeWidth"
       viewBox="0 0 1 1"
       markerWidth="1"
       markerHeight="1"
       overflow="visible"
       orient="auto">
      <!-- REF_ARROW_ROUNDED -->
      <g
         transform="scale(0.0092592592)"
         id="g5757">
        <path
           d="M -9,0 L -9,-45 C -9,-51.708 2.808,-56.580 9,-54 L 117,-9 C 120.916,-7.369 126.000,-4.242 126,0 C 126,4.242 120.916,7.369 117,9 L 9,54 C 2.808,56.580 -9,51.708 -9,45 z"
           id="path5755" />
      </g>
    </marker>
    <marker
       id="DefaultArrow5"
       markerUnits="strokeWidth"
       viewBox="0 0 1 1"
       markerWidth="1"
       markerHeight="1"
       overflow="visible"
       orient="auto">
      <!-- REF_ARROW_SPOT -->
      <g
         transform="scale(0.0092592592)"
         id="g5762">
        <path
           d="M -54, 0 C -54,29.807 -29.807,54 0,54 C 29.807,54 54,29.807 54,0 C 54,-29.807 29.807,-54 0,-54 C -29.807,-54 -54,-29.807 -54,0 z"
           id="path5760" />
      </g>
    </marker>
    <marker
       id="DefaultArrow6"
       markerUnits="strokeWidth"
       viewBox="0 0 1 1"
       markerWidth="1"
       markerHeight="1"
       overflow="visible"
       orient="auto">
      <!-- REF_ARROW_DIAMOND -->
      <g
         transform="scale(0.0092592592)"
         id="g5767">
        <path
           d="M -63,0 L 0,63 L 63,0 L 0,-63 z"
           id="path5765" />
      </g>
    </marker>
    <marker
       id="DefaultArrow7"
       markerUnits="strokeWidth"
       viewBox="0 0 1 1"
       markerWidth="1"
       markerHeight="1"
       overflow="visible"
       orient="auto">
      <!-- REF_ARROW_FEATHER -->
      <g
         transform="scale(0.0092592592)"
         id="g5772">
        <path
           d="M 18,-54 L 108,-54 L 63,0 L 108,54 L 18, 54 L -36,0 z"
           id="path5770" />
      </g>
    </marker>
    <marker
       id="DefaultArrow8"
       markerUnits="strokeWidth"
       viewBox="0 0 1 1"
       markerWidth="1"
       markerHeight="1"
       overflow="visible"
       orient="auto">
      <!-- REF_ARROW_FEATHER2 -->
      <g
         transform="scale(0.0092592592)"
         id="g5777">
        <path
           d="M -36,0 L 18,-54 L 54,-54 L 18,-18 L 27,-18 L 63,-54 L 99,-54 L 63,-18 L 72,-18 L 108,-54 L 144,-54 L 90,0 L 144,54 L 108,54 L 72,18 L 63,18 L 99,54 L 63,54 L 27,18 L 18,18 L 54,54 L 18,54 z"
           id="path5775" />
      </g>
    </marker>
    <marker
       id="DefaultArrow9"
       markerUnits="strokeWidth"
       viewBox="0 0 1 1"
       markerWidth="1"
       markerHeight="1"
       overflow="visible"
       orient="auto">
      <!-- REF_ARROW_HOLLOWDIAMOND -->
      <g
         transform="scale(0.0092592592)"
         id="g5782">
        <path
           d="M 0,45 L -45,0 L 0, -45 L 45, 0 z M 0, 63 L-63, 0 L 0, -63 L 63, 0 z"
           id="path5780" />
      </g>
    </marker>
    <filter
       id="StainedFilter">
      <feBlend
         mode="multiply"
         in2="BackgroundImage"
         in="SourceGraphic"
         result="blend"
         id="feBlend5785" />
      <feComposite
         in="blend"
         in2="SourceAlpha"
         operator="in"
         result="comp"
         id="feComposite5787" />
    </filter>
    <filter
       id="BleachFilter">
      <feBlend
         mode="screen"
         in2="BackgroundImage"
         in="SourceGraphic"
         result="blend"
         id="feBlend5790" />
      <feComposite
         in="blend"
         in2="SourceAlpha"
         operator="in"
         result="comp"
         id="feComposite5792" />
    </filter>
    <filter
       id="InvertTransparencyBitmapFilter">
      <feComponentTransfer
         id="feComponentTransfer5801">
        <feFuncR
           type="gamma"
           amplitude="1.055"
           exponent=".416666666"
           offset="-0.055"
           id="feFuncR5795" />
        <feFuncG
           type="gamma"
           amplitude="1.055"
           exponent=".416666666"
           offset="-0.055"
           id="feFuncG5797" />
        <feFuncB
           type="gamma"
           amplitude="1.055"
           exponent=".416666666"
           offset="-0.055"
           id="feFuncB5799" />
      </feComponentTransfer>
      <feComponentTransfer
         id="feComponentTransfer5811">
        <feFuncR
           type="linear"
           slope="-1"
           intercept="1"
           id="feFuncR5803" />
        <feFuncG
           type="linear"
           slope="-1"
           intercept="1"
           id="feFuncG5805" />
        <feFuncB
           type="linear"
           slope="-1"
           intercept="1"
           id="feFuncB5807" />
        <feFuncA
           type="linear"
           slope="1"
           intercept="0"
           id="feFuncA5809" />
      </feComponentTransfer>
      <feComponentTransfer
         id="feComponentTransfer5819">
        <feFuncR
           type="gamma"
           amplitude="1"
           exponent="2.4"
           offset="0"
           id="feFuncR5813" />
        <feFuncG
           type="gamma"
           amplitude="1"
           exponent="2.4"
           offset="0"
           id="feFuncG5815" />
        <feFuncB
           type="gamma"
           amplitude="1"
           exponent="2.4"
           offset="0"
           id="feFuncB5817" />
      </feComponentTransfer>
    </filter>
  </defs>
  <g
     id="Document"
     fill="none"
     stroke="black"
     font-family="Times New Roman"
     font-size="16"
     transform="scale(1 -1)">
    <g
       id="Spread"
       transform="translate(0 -86.4)">
      <g
         id="Layer 1">
        <path
           d="M 72.677,6.953 L 72.677,83.014 L 60.033,83.014 L 60.241,34.104 L 1.798,82.392 L 2.004,6.125 L 12.989,6.125 L 12.989,55.449 L 72.677,6.953"
           stroke="none"
           fill="#000000"
           id="path5824"
           style="fill:#ffffff" />
        <path
           d="M 80.758,5.711 L 90.498,22.29 L 81.586,22.29 L 81.586,33.896 L 96.301,33.896 L 123.037,82.392 L 165.729,5.711 L 150.6,5.711 L 141.896,22.29 L 103.971,22.29 L 94.85,5.711 L 80.758,5.711 M 109.151,34.104 L 136.507,34.104 L 122.829,59.179 L 109.151,34.104"
           stroke="none"
           fill="#000000"
           id="path5826"
           style="fill:#ffffff" />
        <path
           d="M 273.912,5.711 L 261.476,5.711 L 261.476,82.184 L 303.756,33.067 L 346.447,83.22 L 346.447,5.711 L 333.183,5.711 L 332.977,47.368 L 303.547,11.928 L 273.912,47.16 L 273.912,5.711"
           stroke="none"
           fill="#000000"
           id="path5828"
           style="fill:#ffffff" />
        <path
           d="M 370.488,5.711 L 370.696,84.051 L 383.338,84.051 L 383.13,5.711 L 370.488,5.711"
           stroke="none"
           fill="#000000"
           id="path5830"
           style="fill:#ffffff" />
        <path
           d="M 394.943,71.201 L 394.943,82.184 L 391.419,82.184 L 391.419,84.257 L 401.162,84.257 L 401.162,82.184 L 397.43,82.184 L 397.43,71.201 L 394.943,71.201"
           stroke="none"
           fill="#000000"
           id="path5832"
           style="fill:#ffffff" />
        <path
           d="M 401.782,71.407 L 401.782,84.257 L 405.306,84.257 L 409.035,76.173 L 412.559,84.257 L 415.254,84.257 L 415.254,71.201 L 412.767,71.201 L 412.767,79.696 L 409.244,71.201 L 404.269,79.696 L 404.269,71.201 L 401.782,71.407"
           stroke="none"
           fill="#000000"
           id="path5834"
           style="fill:#ffffff" />
        <path
           d="M 165.315,43.222 C 165.315,66.226 183.967,84.879 206.972,84.879 C 229.976,84.879 248.629,66.226 248.629,43.222 C 248.629,20.217 229.976,1.565 206.972,1.565 C 183.967,1.565 165.315,20.217 165.315,43.222 M 206.972,14.001 C 223.137,14.001 236.193,27.057 236.193,43.222 C 236.193,59.179 223.137,72.237 206.972,72.237 C 191.014,72.237 177.956,59.179 177.956,43.222 C 177.956,27.057 191.014,14.001 206.972,14.001"
           stroke="none"
           fill="#ff0000"
           id="path5836"
           style="fill:#e6e6e6" />
      </g>
    </g>
  </g>
</svg>
