<?xml version="1.0" encoding="UTF-8" standalone="no"?>
<!-- Generator: Gravit.io -->

<svg
   style="isolation:isolate"
   viewBox="0 0 599.99999 149.99999"
   width="600"
   height="150"
   version="1.1"
   id="svg6"
   sodipodi:docname="ports.svg"
   inkscape:version="1.4 (86a8ad7, 2024-10-11)"
   xml:space="preserve"
   xmlns:inkscape="http://www.inkscape.org/namespaces/inkscape"
   xmlns:sodipodi="http://sodipodi.sourceforge.net/DTD/sodipodi-0.dtd"
   xmlns="http://www.w3.org/2000/svg"
   xmlns:svg="http://www.w3.org/2000/svg"><defs
     id="defs6"><rect
       x="304.27106"
       y="6.3201704"
       width="409.00531"
       height="302.4653"
       id="rect2" /></defs><sodipodi:namedview
     id="namedview6"
     pagecolor="#000000"
     bordercolor="#000000"
     borderopacity="0.25"
     inkscape:showpageshadow="2"
     inkscape:pageopacity="0.0"
     inkscape:pagecheckerboard="0"
     inkscape:deskcolor="#d1d1d1"
     inkscape:zoom="1.1075651"
     inkscape:cx="381.46742"
     inkscape:cy="64.556025"
     inkscape:window-width="1920"
     inkscape:window-height="1017"
     inkscape:window-x="1912"
     inkscape:window-y="-2"
     inkscape:window-maximized="1"
     inkscape:current-layer="svg6"><inkscape:page
       x="0"
       y="0"
       width="600"
       height="149.99998"
       id="page2"
       margin="0"
       bleed="0" /></sodipodi:namedview><path
     fill="#555555"
     d="m 290.13767,41.625599 c -0.20985,0.47258 -0.40923,0.70888 -0.59811,0.70888 -0.23384,0.0493 -0.35076,-0.0748 -0.35076,-0.37234 0,-0.5967 0.44521,-0.96983 1.33562,-1.11941 h 0.70155 c -0.51567,0.0494 -0.87843,0.31029 -1.0883,0.78287 z m 6.39259,-0.22436 c -0.35077,-0.37234 -0.76075,-0.48452 -1.22994,-0.33654 1.12425,-0.54736 1.87377,-0.49724 2.24852,0.15037 0.14092,0.29915 0.0705,0.52271 -0.21136,0.67069 -0.18737,0.0493 -0.45645,-0.11218 -0.80722,-0.48452 z m -24.27742,32.55812 c -0.0945,0.1989 -0.20013,0.50998 -0.31704,0.93323 -0.11693,0.42326 -0.24585,0.759 -0.38676,1.00723 -0.1409,0.24822 -0.37475,0.57123 -0.70154,0.96903 -0.32828,0.49645 -0.35151,0.7948 -0.0697,0.89505 0.18739,0.0493 0.48044,-0.12492 0.87918,-0.52271 0.39874,-0.3978 0.6918,-0.84572 0.87918,-1.34376 0.0464,-0.14957 0.0937,-0.32381 0.14166,-0.52271 0.0479,-0.1989 0.0952,-0.34846 0.14165,-0.44871 0.0464,-0.10025 0.0817,-0.21243 0.10575,-0.33654 0.024,-0.12412 0.0359,-0.22356 0.0359,-0.29835 v -0.22435 c 0,0 -0.0233,-0.062 -0.0697,-0.18617 -0.0464,-0.12412 -0.11692,-0.17424 -0.21136,-0.15037 -0.19187,-0.0445 -0.33278,0.0302 -0.42722,0.22913 z m 56.63382,23.419116 c 0.18738,-0.746256 0.36277,-1.429676 0.52616,-2.050236 0.1634,-0.62057 0.28032,-1.26659 0.35078,-1.93807 0.0705,-0.67148 0.14089,-1.20612 0.21135,-1.60392 0.0705,-0.3978 0.0825,-0.9571 0.0359,-1.67791 -0.0464,-0.72081 -0.0697,-1.20533 -0.0697,-1.45355 0,-0.24823 -0.0817,-0.7948 -0.24508,-1.63972 -0.1634,-0.84492 -0.25709,-1.3549 -0.28107,-1.52993 -0.024,-0.17503 -0.14091,-0.79639 -0.35077,-1.86408 -0.20987,-1.06769 -0.33878,-1.72644 -0.38675,-1.97626 -0.4677,-2.38678 -1.56873,-4.9478 -3.3031,-7.68306 -1.73437,-2.73525 -3.42077,-4.60012 -5.0592,-5.59461 1.12427,0.99449 2.45915,3.05826 4.00464,6.19132 4.07584,8.05459 5.34027,14.96592 3.79328,20.73398 -0.51566,1.98899 -1.6864,3.033608 -3.51221,3.133848 -1.45256,0.1989 -2.35421,-0.260952 -2.70499,-1.379558 -0.35077,-1.1186 -0.53816,-3.19431 -0.56214,-6.22712 -0.024,-3.03281 -0.29305,-5.69327 -0.80722,-7.9814 -0.42122,-1.93966 -0.87768,-3.65497 -1.36936,-5.14591 -0.49168,-1.49095 -0.94813,-2.62228 -1.36935,-3.394 -0.42122,-0.77173 -0.78398,-1.38116 -1.08829,-1.82828 -0.3043,-0.44713 -0.60861,-0.82026 -0.91291,-1.1194 -0.30429,-0.29915 -0.47969,-0.47338 -0.52615,-0.52271 -0.65658,-3.08373 -1.38285,-5.64474 -2.17883,-7.68306 -0.79599,-2.03831 -1.48703,-3.4306 -2.07315,-4.17687 -0.58612,-0.74627 -1.13626,-1.56652 -1.65043,-2.46077 -0.51416,-0.89425 -0.86568,-1.88875 -1.05456,-2.98348 -0.18737,-1.04383 -0.0464,-2.37406 0.42272,-3.9907 0.46921,-1.61665 0.57488,-2.84744 0.31705,-3.69236 -0.25784,-0.84492 -1.30039,-1.46628 -3.12771,-1.86408 -0.70304,-0.14957 -1.74561,-0.59749 -3.12772,-1.34376 -1.38209,-0.74627 -2.2133,-1.14406 -2.49361,-1.19339 -0.37476,-0.0493 -0.63259,-0.69535 -0.7735,-1.93807 -0.14091,-1.24272 0.0464,-2.51089 0.56213,-3.80453 0.51566,-1.29364 1.35886,-1.96512 2.5296,-2.01444 1.73287,-0.14958 2.92759,0.59669 3.58417,2.2388 0.65657,1.6421 0.75025,3.08452 0.28106,4.32723 -0.51566,0.94517 -0.56288,1.60392 -0.14165,1.97627 0.42122,0.37233 1.12426,0.38506 2.10912,0.0382 0.6086,-0.19889 0.9129,-1.09394 0.9129,-2.68513 v -2.75913 c -0.23384,-1.49253 -0.55014,-2.73525 -0.94887,-3.72815 -0.39874,-0.99291 -0.89042,-1.75111 -1.47504,-2.2746 -0.58462,-0.52351 -1.13477,-0.89664 -1.65043,-1.11941 -0.51567,-0.22277 -1.14824,-0.40894 -1.89776,-0.55851 -5.01274,0.3978 -7.09712,3.72896 -6.25317,9.99347 0,0.74626 -0.0233,1.1194 -0.0697,1.1194 -0.42122,-0.44713 -1.11228,-0.70808 -2.07315,-0.78286 -0.96087,-0.0748 -1.73362,-0.062 -2.31824,0.0382 -0.58462,0.10024 -0.94738,-0.0239 -1.0883,-0.37234 0.0464,-2.83391 -0.32827,-5.07192 -1.12425,-6.71403 -0.79599,-1.6421 -1.8498,-2.48782 -3.16145,-2.53715 -1.26516,-0.0493 -2.23728,0.63409 -2.91634,2.05025 -0.67906,1.41616 -1.06581,2.89516 -1.16025,4.43703 -0.0464,0.74627 0.0352,1.66597 0.2451,2.75912 0.20986,1.09314 0.51417,2.02559 0.9129,2.79731 0.39874,0.77173 0.7615,1.10747 1.08828,1.00723 0.4677,-0.14958 0.84246,-0.49805 1.12428,-1.04542 0.18738,-0.44712 0.0233,-0.64602 -0.49243,-0.59669 -0.32829,0 -0.69106,-0.36041 -1.0883,-1.08122 -0.39724,-0.7208 -0.61984,-1.55379 -0.66781,-2.49896 -0.0464,-1.09314 0.16414,-2.01285 0.63184,-2.75912 0.46769,-0.74627 1.26443,-1.09474 2.3902,-1.04541 0.79597,0 1.42856,0.52191 1.89775,1.56573 0.4692,1.04382 0.69181,2.01365 0.66783,2.90949 -0.024,0.89583 -0.0592,1.44241 -0.10564,1.63972 -1.02983,0.74627 -1.7561,1.46707 -2.17883,2.16243 -0.37476,0.59669 -1.01858,1.18066 -1.9315,1.75189 -0.9129,0.57124 -1.39333,0.88232 -1.4413,0.93323 -0.6086,0.69695 -0.97137,1.36843 -1.0883,2.01445 -0.11691,0.64603 0.0584,1.09394 0.52616,1.34376 0.65657,0.3978 1.24194,0.88231 1.75611,1.45356 0.51417,0.57123 0.88892,1.04381 1.12426,1.41774 0.23535,0.37393 0.66857,0.69695 1.29966,0.96904 0.6311,0.27209 1.46229,0.43359 2.49362,0.48451 2.20206,0.10025 4.59152,-0.27289 7.16832,-1.1194 0.0945,-0.0494 0.63335,-0.22356 1.6167,-0.5227 0.98336,-0.29915 1.79133,-0.5601 2.42392,-0.78287 0.63259,-0.22276 1.32363,-0.54578 2.07315,-0.96903 0.74951,-0.42326 1.24119,-0.85845 1.47504,-1.30557 0.42123,-0.69695 0.88967,-0.89584 1.40533,-0.5967 0.23386,0.14957 0.386,0.3612 0.45646,0.63488 0.0705,0.27369 0,0.57204 -0.21136,0.89505 -0.21137,0.32301 -0.59811,0.5593 -1.16025,0.70888 -0.93688,0.29914 -2.26053,0.83378 -3.97091,1.60391 -1.71039,0.77014 -2.77619,1.25465 -3.19742,1.45355 -2.06115,0.94517 -3.70108,1.51721 -4.91979,1.7161 -1.17074,0.24822 -3.02128,0.1981 -5.55163,-0.15036 -0.46769,-0.10026 -0.6783,-0.0501 -0.63183,0.15036 0.0464,0.20049 0.44446,0.67308 1.19396,1.41775 1.17074,1.14407 2.74022,1.69064 4.70844,1.63972 0.79597,-0.0493 1.63918,-0.22356 2.5296,-0.52271 0.89042,-0.29914 1.73361,-0.64761 2.52959,-1.04541 0.79599,-0.39779 1.58072,-0.83299 2.35423,-1.30557 0.77349,-0.47258 1.47653,-0.89504 2.10912,-1.26737 0.63258,-0.37235 1.20671,-0.6707 1.72237,-0.89505 0.51567,-0.22436 0.92565,-0.28641 1.22996,-0.18617 0.3043,0.10025 0.50367,0.37392 0.59811,0.82105 0,0.10025 -0.0233,0.21243 -0.0697,0.33654 -0.0464,0.12411 -0.14016,0.24822 -0.28107,0.37234 -0.1409,0.12411 -0.28182,0.23629 -0.42273,0.33654 -0.14091,0.10024 -0.34027,0.22435 -0.59811,0.37233 -0.25783,0.14798 -0.46844,0.26016 -0.63184,0.33654 -0.16339,0.0764 -0.39724,0.20049 -0.70154,0.37234 -0.30429,0.17185 -0.5269,0.28403 -0.66781,0.33653 -1.31164,0.69695 -2.89237,1.79089 -4.74216,3.28183 -1.84979,1.49095 -3.40728,2.56022 -4.67246,3.20783 -1.26517,0.64763 -2.41267,0.67229 -3.4425,0.074 -0.98336,-0.54736 -2.45915,-2.36212 -4.42737,-5.44425 -1.02983,-1.54185 -1.61519,-2.08843 -1.7561,-1.63971 -0.0464,0.14956 -0.0697,0.39779 -0.0697,0.74467 0,1.24272 -0.35151,2.64774 -1.05456,4.21506 -0.70304,1.56732 -1.39409,2.94688 -2.07315,4.13868 -0.67905,1.1918 -1.17073,2.63422 -1.47504,4.32724 -0.3043,1.69303 -0.0352,3.25955 0.80723,4.69958 -1.0778,0.29914 -2.54159,2.53715 -4.39139,6.71402 -1.8498,4.17688 -2.96207,7.68226 -3.33682,10.51617 -0.0945,0.89584 -0.12967,2.61114 -0.10574,5.14591 0.024,2.534756 -0.10488,4.001838 -0.38675,4.401218 -0.37475,1.193383 -1.05382,1.268173 -2.03717,0.22436 -1.49903,-1.54186 -2.34222,-3.878518 -2.5296,-7.009978 -0.0945,-1.39229 -6.4e-4,-2.78458 0.28107,-4.17687 0.18737,-0.94517 0.16413,-1.39309 -0.0697,-1.34376 l -0.28107,0.37234 c -1.6864,3.2317 -1.45255,7.35845 0.70155,12.380241 0.23383,0.59669 0.8192,1.29284 1.7561,2.08842 0.93688,0.7956 1.49902,1.29286 1.6864,1.49175 0.93689,1.14406 3.3728,3.39401 7.30773,6.74983 3.93494,3.35581 6.11302,5.25807 6.53424,5.70679 0.74951,0.74626 1.1595,1.69064 1.22995,2.83311 0.0705,1.14248 -0.25783,2.21175 -0.98486,3.20785 -0.72702,0.99608 -1.79283,1.56811 -3.19741,1.71609 0.37475,0.74626 1.05381,1.85294 2.03717,3.32002 0.98337,1.46707 1.63918,2.80924 1.96747,4.0265 0.32828,1.21726 0.49243,2.96996 0.49243,5.25808 2.15559,-1.19338 2.31973,-3.48073 0.49243,-6.862 -0.18739,-0.39779 -0.43322,-0.79559 -0.73753,-1.19339 -0.30429,-0.3978 -0.52691,-0.69615 -0.6678,-0.89504 -0.14092,-0.19891 -0.18813,-0.34848 -0.14166,-0.44872 0.14091,-0.24823 0.44521,-0.48452 0.9129,-0.70887 0.46769,-0.22436 0.93614,-0.16231 1.40533,0.18616 2.1556,2.58568 6.04331,3.48074 11.66315,2.68513 6.22994,-0.74627 10.37548,-2.90948 12.43664,-6.48966 1.0778,-1.88874 1.87453,-2.63501 2.39019,-2.23881 0.56213,0.29915 0.79599,1.59198 0.70155,3.87852 -0.0464,1.24272 -0.58537,3.53007 -1.6167,6.86201 -0.42123,1.14406 -0.56214,2.07651 -0.42272,2.79731 0.1394,0.72082 0.70153,1.10588 1.68639,1.15521 0.14091,-0.94517 0.48044,-2.85936 1.01859,-5.74261 0.53815,-2.88322 0.85445,-5.12123 0.94888,-6.71402 0.0945,-1.04382 -0.0577,-2.8713 -0.45645,-5.48244 -0.39874,-2.61113 -0.57412,-5.02259 -0.52617,-7.23433 0.0479,-2.21177 0.58687,-3.96447 1.6167,-5.25809 0.70305,-0.89584 1.89778,-1.34376 3.58417,-1.34376 0.0464,-1.83943 0.85444,-3.15692 2.42392,-3.952513 1.56948,-0.79559 3.26787,-1.05654 5.09518,-0.78286 1.8273,0.27368 3.23263,0.83298 4.21599,1.677913 -0.002,-0.893463 -1.29065,-1.938073 -3.86747,-3.131465 z M 288.44902,36.589479 c -0.25782,-0.64761 -0.5269,-1.02074 -0.80722,-1.1194 -0.42122,-0.10025 -0.63184,0.074 -0.63184,0.52271 0.0945,0.24823 0.21137,0.3978 0.35078,0.44871 0.4677,0 0.63183,0.37314 0.49243,1.11941 -0.14091,0.99449 0.0464,1.49174 0.56213,1.49174 0.1409,0 0.21136,-0.0748 0.21136,-0.22436 0.13867,-0.84492 0.0802,-1.59119 -0.17764,-2.23881 z m 29.16124,16.07499 c -0.20985,-0.17344 -0.51415,-0.29755 -0.9129,-0.37233 -0.39874,-0.0748 -0.73826,-0.21163 -1.01859,-0.41053 -0.23384,-0.14957 -0.45645,-0.34847 -0.66781,-0.5967 -0.21136,-0.24822 -0.37551,-0.44712 -0.49242,-0.59669 -0.11693,-0.14958 -0.24585,-0.31108 -0.38676,-0.48452 -0.1409,-0.17344 -0.23459,-0.27288 -0.28106,-0.29834 -0.0464,-0.0255 -0.14016,0.0119 -0.28106,0.11217 -0.65658,0.7956 -0.49245,1.87681 0.49242,3.24365 0.98486,1.36682 1.89851,2.14969 2.74096,2.34859 0.42123,0.0493 0.76076,-0.14957 1.01859,-0.5967 0.25784,-0.44712 0.33952,-0.94437 0.24508,-1.49174 -0.0945,-0.3978 -0.24658,-0.68342 -0.45645,-0.85686 z m -12.04989,-15.02957 c 0,-0.54737 -0.11692,-1.03189 -0.35077,-1.45356 -0.23385,-0.42166 -0.49167,-0.73274 -0.77349,-0.93323 -0.28182,-0.20048 -0.49243,-0.27527 -0.63185,-0.22435 -0.65656,0.0494 -0.82071,0.22356 -0.49243,0.5227 l 0.28108,0.15037 c 0.65657,0.1989 1.07854,0.96983 1.26592,2.3128 0,0.14956 0.18738,0.0994 0.56213,-0.15037 z m 3.61789,-17.75051 c -0.11692,-0.14798 -0.32753,-0.32222 -0.63184,-0.52271 -0.3043,-0.20049 -0.5269,-0.35006 -0.66781,-0.44871 -0.70303,-0.74628 -1.26517,-1.1194 -1.68639,-1.1194 -0.42124,0.0493 -0.69031,0.23549 -0.80724,0.5585 -0.11691,0.32301 -0.14015,0.64603 -0.0697,0.96903 0.0705,0.32302 0.0584,0.63409 -0.0359,0.93324 -0.0464,0.19889 -0.18738,0.45985 -0.42273,0.78287 -0.23534,0.323 -0.37625,0.54656 -0.42272,0.67068 -0.0464,0.12411 0.024,0.33574 0.21136,0.63488 0.18739,0.14957 0.37476,0.14957 0.56214,0 0.18737,-0.14957 0.44521,-0.37313 0.77349,-0.67068 0.32829,-0.29756 0.67981,-0.52112 1.05456,-0.67069 0.0464,-0.0493 0.25709,-0.074 0.63185,-0.074 0.37475,0 0.72627,-0.0501 1.05456,-0.15037 0.32828,-0.10024 0.5389,-0.27448 0.63183,-0.52271 0,-0.0979 -0.0584,-0.22197 -0.17538,-0.36995 z m 42.05658,102.221181 c 0.51567,0.62215 0.79673,1.21884 0.8432,1.79008 0.0465,0.57124 -0.012,1.13054 -0.17539,1.67791 -0.16339,0.54737 -0.52616,1.09394 -1.0883,1.63971 -0.56212,0.54579 -1.11226,1.0303 -1.65042,1.45356 -0.53814,0.42326 -1.24118,0.88311 -2.10912,1.37956 -0.86793,0.49644 -1.60545,0.90697 -2.21255,1.23158 -0.60711,0.32461 -1.35661,0.70967 -2.24853,1.1552 -0.89192,0.44554 -1.5245,0.76855 -1.89777,0.96903 -1.77933,0.94518 -3.78202,2.33746 -6.00807,4.17689 -2.22605,1.83941 -3.99416,3.43059 -5.3043,4.77356 -0.79598,0.79559 -2.38869,1.28012 -4.77813,1.45355 -2.38945,0.17343 -4.47383,-0.18697 -6.25318,-1.08122 -0.84394,-0.44712 -1.535,-1.03108 -2.07315,-1.75189 -0.53814,-0.72082 -0.9249,-1.3549 -1.16024,-1.90228 -0.23535,-0.54736 -0.75026,-1.03187 -1.54474,-1.45353 -0.79448,-0.42167 -1.89551,-0.65797 -3.30309,-0.70888 -2.06116,-0.0494 -5.10643,-0.074 -9.1358,-0.074 -0.89042,0 -2.22531,0.0374 -4.00464,0.11216 -1.77934,0.0749 -3.13821,0.13685 -4.0766,0.18618 -2.06116,0.0493 -3.92294,0.42245 -5.58535,1.1194 -1.66242,0.69693 -2.9156,1.44321 -3.75955,2.23879 -0.84395,0.7956 -1.86254,1.50448 -3.05576,2.12664 -1.19322,0.62215 -2.4464,0.90777 -3.75955,0.85684 -1.35811,-0.0494 -3.95816,-0.82025 -7.80016,-2.31278 -3.842,-1.49255 -7.26202,-2.56182 -10.26006,-3.20784 -0.89042,-0.1989 -2.08514,-0.4352 -3.58416,-0.70887 -1.49903,-0.27369 -2.66977,-0.49726 -3.51222,-0.67069 -0.84244,-0.17345 -1.76733,-0.40974 -2.77468,-0.70887 -1.00734,-0.29916 -1.79209,-0.65955 -2.35422,-1.08122 -0.56214,-0.42168 -0.96013,-0.90618 -1.19397,-1.45355 -0.46769,-1.14407 -0.30356,-2.79731 0.49243,-4.95974 0.79598,-2.16242 1.21795,-3.51731 1.26592,-4.06469 0.0464,-0.79559 -0.0473,-1.79009 -0.28106,-2.98348 -0.23386,-1.1934 -0.4677,-2.24994 -0.70155,-3.16965 -0.23385,-0.91971 -0.33953,-1.82748 -0.31704,-2.72333 0.0224,-0.89583 0.26832,-1.56731 0.73751,-2.01444 0.65658,-0.59669 1.99147,-0.94516 4.00465,-1.04541 2.01319,-0.10027 3.41851,-0.39859 4.216,-0.89504 1.40608,-0.89584 2.39019,-1.76622 2.95232,-2.61114 0.56214,-0.84492 0.8432,-2.11311 0.8432,-3.80454 0.98336,3.6295 0.23386,6.26452 -2.24853,7.90503 -1.49902,0.99449 -3.44325,1.36763 -5.83269,1.1194 -1.59346,-0.14956 -2.60081,0.0987 -3.02203,0.74468 -0.60861,0.74628 -0.49168,2.16321 0.35076,4.25086 0.0945,0.29914 0.28182,0.74707 0.56214,1.34376 0.28031,0.59669 0.47969,1.04462 0.59811,1.34376 0.11842,0.29915 0.2241,0.7216 0.31704,1.26738 0.093,0.54577 0.11618,1.09235 0.0697,1.63972 0,0.74628 -0.39799,1.96433 -1.19397,3.65418 -0.79598,1.68982 -1.12428,2.88323 -0.98486,3.58015 0.14091,0.84493 1.00734,1.49095 2.59931,1.93808 0.93689,0.29914 2.91635,0.75901 5.93838,1.37956 3.02202,0.62057 5.35225,1.13054 6.99069,1.52994 1.12426,0.29913 2.85788,0.84571 5.20085,1.63971 2.34298,0.79401 4.27522,1.36604 5.79673,1.7161 1.5215,0.35006 2.82116,0.4495 3.89896,0.29835 2.01469,-0.29914 3.52569,-0.99529 4.53303,-2.08844 1.00735,-1.09314 1.54624,-2.28654 1.6167,-3.58018 0.0705,-1.29363 -0.10488,-2.74797 -0.52616,-4.36303 -0.42122,-1.61507 -0.86643,-2.9079 -1.33563,-3.87853 -0.46919,-0.97062 -0.93763,-1.8784 -1.40533,-2.72332 -5.66781,-9.44688 -9.62598,-15.46397 -11.8745,-18.05125 -3.18543,-3.68042 -5.83195,-4.67491 -7.93958,-2.98348 -0.51566,0.44713 -0.86718,0.074 -1.05456,-1.11939 -0.14091,-0.7956 -0.18813,-1.739963 -0.14166,-2.833123 0.0464,-1.441612 0.28032,-2.734448 0.70154,-3.878518 0.42123,-1.14406 0.98337,-2.31279 1.6864,-3.50619 0.70305,-1.19339 1.21796,-2.238 1.54474,-3.13384 0.37476,-1.04382 0.99536,-2.83391 1.86179,-5.37027 0.86645,-2.53635 1.55749,-4.47522 2.07315,-5.81659 0.51567,-1.34137 1.21871,-2.85777 2.10913,-4.54921 0.89042,-1.69143 1.80407,-3.0336 2.74096,-4.0265 5.15214,-7.11102 8.05649,-11.95938 8.71307,-14.54506 -0.56213,-5.56916 -0.93689,-13.27689 -1.12427,-23.12317 -0.0945,-4.47601 0.46769,-8.24235 1.6864,-11.29903 1.21871,-3.05668 3.70109,-5.65508 7.44715,-7.795229 1.8273,-1.04382 4.26322,-1.56574 7.30773,-1.56574 2.48239,-0.0493 4.96477,0.28642 7.44715,1.00722 2.48238,0.72082 4.56677,1.752709 6.25317,3.095669 2.66977,2.08922 4.81261,5.1101 6.42856,9.06261 1.61595,3.95252 2.30699,7.61941 2.07315,11.00069 -0.23385,4.72424 0.46919,10.04518 2.10913,15.96281 1.59345,5.61849 4.70842,11.03808 9.3449,16.25877 2.57681,2.93415 4.90705,6.98692 6.99069,12.15828 2.08364,5.17137 3.47698,9.92027 4.18002,14.24671 0.37475,2.43611 0.49168,4.537276 0.35077,6.303498 -0.14091,1.766213 -0.42197,3.145773 -0.8432,4.138683 -0.42122,0.99289 -0.88967,1.53947 -1.40532,1.63972 -0.4677,0.10027 -1.01785,0.57282 -1.65044,1.41775 -0.63258,0.84491 -1.26517,1.72724 -1.89776,2.64694 -0.63258,0.91971 -1.58146,1.75269 -2.84663,2.49897 -1.26519,0.74626 -2.69375,1.09473 -4.28572,1.04541 -0.84394,-0.0494 -1.58147,-0.17345 -2.21255,-0.37234 -0.63109,-0.1989 -1.158,-0.53464 -1.58072,-1.00723 -0.42272,-0.47258 -0.73902,-0.85764 -0.94888,-1.1552 -0.20987,-0.29756 -0.47894,-0.80753 -0.80722,-1.52993 -0.3283,-0.7224 -0.5389,-1.20692 -0.63184,-1.45356 -1.02983,-1.83941 -1.98996,-2.58567 -2.88038,-2.23879 -0.89041,0.34688 -1.54624,1.56493 -1.96746,3.65417 -0.42123,2.08923 -0.25709,4.50068 0.49243,7.23434 0.93689,3.48151 0.96012,8.32987 0.0697,14.54505 -0.4677,3.23171 -0.0457,5.73068 1.26592,7.49689 1.31165,1.76622 3.02128,2.58648 5.12891,2.46079 2.10761,-0.12571 4.09832,-1.00803 5.9721,-2.64696 2.7642,-2.4361 4.86059,-4.08935 6.28915,-4.95973 1.42857,-0.87038 3.85249,-1.92693 7.27175,-3.16966 2.48239,-0.89584 4.28571,-1.8036 5.40998,-2.72331 1.12427,-0.91971 1.55749,-1.77735 1.29966,-2.57295 -0.25784,-0.79561 -0.84321,-1.50448 -1.75612,-2.12663 -0.9129,-0.62215 -2.11887,-1.20611 -3.61788,-1.7519 -1.54549,-0.54737 -2.70499,-1.74076 -3.47848,-3.58018 -0.77349,-1.83941 -1.12502,-3.64223 -1.05456,-5.40844 0.0705,-1.76623 0.43321,-2.94689 1.08828,-3.54198 0.0465,1.54185 0.23385,2.94687 0.56214,4.21506 0.32828,1.26817 0.66781,2.27539 1.01858,3.02165 0.35077,0.74627 0.8312,1.45515 1.44131,2.12663 0.61011,0.67149 1.10178,1.14406 1.47504,1.41775 0.37325,0.27368 0.87693,0.5967 1.51101,0.96904 0.63409,0.37233 1.02084,0.60862 1.16025,0.70888 0.93688,0.59907 1.66316,1.20849 2.17883,1.83066 z"
     id="path1"
     style="fill:#ffffff;stroke-width:6.68368" /><path
     style="font-size:97.0191px;line-height:1.7;font-family:'Yu Gothic UI';-inkscape-font-specification:'Yu Gothic UI';letter-spacing:1.70541px;word-spacing:7.96993px;fill:#ffffff;stroke-width:1.47439"
     d="M 41.770724,141.64567 H 11.193012 V 9.9652879 h 6.904644 V 127.68792 h 23.673068 z m 17.426003,0 H 52.292083 V 9.9652879 h 6.904644 z m 64.484443,0 h -8.46641 L 84.883645,36.68704 q -1.150771,-3.948575 -1.890558,-8.26446 h -0.246598 q 0.328792,4.224057 0.328792,18.089984 V 141.64567 H 76.17064 V 9.9652879 h 8.959603 L 114.63938,113.27103 q 1.84945,6.42791 2.38374,8.81542 h 0.16441 q -0.411,-5.69329 -0.411,-19.37557 V 9.9652879 h 6.90465 z m 60.04574,-53.259847 q 0,55.463707 -22.399,55.463707 -21.45371,0 -21.45371,-53.351678 V 9.9652879 h 6.90464 V 89.487751 q 0,40.495849 15.28885,40.495849 14.75458,0 14.75458,-39.11844 V 9.9652879 h 6.90464 z m 56.88113,53.259847 h -8.42532 l -13.5627,-50.413201 q -0.61648,-2.295683 -1.35626,-6.51974 h -0.16447 q -0.41099,2.112028 -1.39736,6.51974 l -13.9737,50.413201 h -8.4664 L 212.98946,75.438169 194.82366,9.9652879 h 8.4664 L 215.3321,56.24626 q 1.19188,4.591365 2.09606,9.182731 h 0.16447 q 1.31518,-6.060603 2.30155,-9.550042 L 232.4294,9.9652879 h 7.93212 L 221.82575,75.254515 Z"
     id="text1"
     aria-label="LINUX" /><g
     id="text2"
     style="font-size:85.3333px;line-height:0.6;font-family:'Yu Gothic UI';-inkscape-font-specification:'Yu Gothic UI';letter-spacing:-1.72474px;word-spacing:7.01px;white-space:pre;fill:#ffffff"
     transform="matrix(1.1066669,0,0,1.2078643,22.845267,-10.347204)"
     aria-label="portes &amp;&#10;nativos"><path
       style="font-size:64px;font-family:'Viner Hand ITC';-inkscape-font-specification:'Viner Hand ITC'"
       d="m 320.64648,35.420087 q 0.8125,-1.125 2.3125,-1.71875 v -0.1875 l 1.46875,-1.03125 0.125,0.1875 v -0.3125 l 0.25,-0.125 0.21875,0.125 2.15625,-1.625 0.125,0.15625 0.71875,-0.71875 0.875,-0.125 0.15625,-0.3125 1.125,-0.46875 h 1.8125 l 0.8125,-0.25 q 1.625,1.03125 1.625,2.1875 l 0.125,0.125 0.3125,2.03125 h -0.125 q -0.28125,0.59375 -0.4375,1.03125 -0.125,0.40625 -0.71875,1.59375 0.34375,0.59375 0.5625,0.84375 l -0.5625,0.3125 0.5625,0.90625 -0.3125,2.875 v 1.28125 l -0.5625,1.34375 v 1.03125 l -0.71875,1.71875 q 0.125,0.125 0.125,0.25 0,0.28125 -0.4375,0.90625 h 0.125 l -1.28125,3.1875 -2.03125,2.1875 -0.28125,0.71875 -1,0.3125 q -0.28125,0.375 -0.59375,0.71875 -0.3125,0.34375 -0.8125,0.78125 -0.46875,0.40625 -0.875,0.46875 l -1.0625,0.1875 -1.59375,1.75 -1.46875,0.46875 q -0.3125,0.09375 -0.65625,0.4375 l -0.8125,0.875 -2.75,0.375 -2.625,2.0625 h -1.625 l -0.6875,2.3125 -0.4375,1.90625 -0.125,1.46875 q -0.90625,2.21875 -1.03125,2.625 l -0.59375,2 -0.4375,1 -0.125,1.46875 q -0.65625,1.03125 -1.03125,2.15625 -0.375,1.125 -0.78125,2 -0.375,0.90625 -0.375,1.375 l -0.875,1.125 -0.59375,2.0625 -1.34375,1.84375 -1.15625,3.34375 -1.15625,1.15625 -0.375,1.84375 q 0,0.03125 -0.375,0.625 -0.375,0.59375 -0.75,0.84375 -0.40625,0.25 -0.96875,0.25 l -0.53125,-0.0625 -1.40625,-1.71875 q 0.8125,-0.21875 1.46875,-1.90625 0.6875,-0.5 0.78125,-1.15625 0.28125,-0.90625 0.6875,-0.90625 h 0.125 q 0.46875,-0.34375 0.46875,-0.5625 v -0.125 l -0.25,-0.34375 q 0.625,-1.15625 0.75,-1.21875 l 0.125,-0.625 q 0.0625,-0.25 1.03125,-1.40625 0.21875,-2.0625 0.84375,-2.90625 0.59375,-0.84375 0.875,-1.90625 h 0.25 l 0.46875,-1.59375 q 0.75,-0.65625 0.75,-1.28125 v -0.90625 l 0.28125,0.15625 -0.28125,-1.28125 q 0,-0.40625 0.28125,-0.90625 l 0.3125,-0.125 q 0.53125,-1.96875 0.6875,-3.34375 l 0.71875,-0.75 -0.125,-0.84375 q 0,-0.03125 0.15625,-0.5625 0.1875,-0.5 0.28125,-1.9375 h 0.25 q 0.46875,-1.21875 0.46875,-1.84375 0,-0.8125 0.0625,-1 0.0625,-0.1875 0.8125,-1.1875 l 0.28125,-2.375 0.4375,-2.03125 0.3125,-6.34375 0.4375,-0.875 -0.75,-1.5 v -1.40625 l -0.125,-1.21875 0.25,-1.71875 -0.71875,-3.1875 v -1.28125 l -0.6875,-0.1875 q -0.0937,-0.03125 -1.71875,1.46875 l -0.90625,-0.125 -1.15625,1.59375 q -0.1875,0.125 -0.4375,0.125 -0.46875,0 -0.5625,-0.625 -0.0625,-0.65625 -0.34375,-1.6875 0.46875,-0.1875 0.5625,-0.5625 l 0.34375,0.125 q 0.28125,-1.28125 1.46875,-2.0625 l 2.4375,-1.59375 0.125,-0.4375 h 0.75 l 0.71875,-0.84375 q 0.6875,0 0.90625,-0.6875 l 0.125,0.125 v -1.03125 q 0.875,-0.59375 0.875,-1.59375 h 0.125 l 1.46875,-1.46875 h 0.28125 q 1,0 1.34375,-0.71875 l 0.6875,-0.125 q 1.15625,0 1.28125,0.25 0.6875,1.0625 1.21875,1.59375 l -0.4375,0.90625 0.4375,1.03125 -1.59375,4.9375 q 0.4375,0.4375 0.5625,0.4375 0.28125,0 0.28125,-0.3125 l 1.15625,-1.53125 q 0.625,-0.78125 1.125,-0.78125 z m 6.65625,7.5625 q -0.0625,-0.40625 -0.34375,-1.375 -0.28125,-1 -0.28125,-1.59375 l 0.1875,-1.125 v -1.40625 q 0.1875,-0.59375 0.1875,-1.09375 l -0.0625,-0.53125 q 0,-0.75 -0.6875,-0.75 l -0.28125,0.125 -0.875,1.21875 q -0.21875,0.09375 -0.4375,0.3125 -0.21875,0.1875 -1.34375,0.78125 -1.09375,0.5625 -1.8125,1.125 -0.71875,0.53125 -1.21875,1.21875 l -2.53125,3.6875 q -0.34375,0.5625 -0.71875,0.8125 l -1.09375,0.75 -0.125,0.71875 h -0.1875 q 0,0.65625 0.3125,1.15625 l -0.71875,1.46875 -0.3125,3.3125 -1.28125,0.90625 q -0.0625,0.3125 -0.0625,0.84375 0,0.78125 0.3125,1.34375 -0.25,0.53125 -0.25,1.125 0,0.71875 0.5625,0.71875 0.71875,0 2,-1.59375 0.625,0.4375 1.15625,0.4375 0.34375,0 0.5625,-0.21875 0.25,-0.25 1.21875,-0.8125 l -0.125,-0.125 h 0.375 l -0.125,-0.125 1.03125,-0.3125 v -0.125 h 0.3125 l 0.59375,-0.46875 v -0.125 h 0.25 v -0.125 l 0.90625,-0.1875 q 0.28125,-1.15625 1.71875,-1.71875 0.15625,-0.25 0.5625,-0.46875 l 0.59375,-1.125 q 0.65625,-2.03125 1.34375,-3.21875 l -0.1875,-1.03125 0.5625,-1 -0.125,-0.84375 z m 28.05652,-16.34375 h 1.59375 l 1.03125,0.46875 q 0.375,1.65625 1.21875,1.65625 0.3125,0 0.3125,-0.625 0.96875,-0.71875 1.78125,-0.71875 0.5,0 0.84375,0.34375 0.34375,0.34375 0.375,0.6875 l 0.25,3.5625 -0.1875,0.71875 q -0.21875,0.71875 -0.3125,1.53125 -0.0937,0.8125 -0.3125,1.28125 -0.1875,0.46875 -0.28125,0.59375 l -2.53125,2.6875 0.3125,1.84375 -0.65625,1.09375 -0.3125,1 -1.96875,2.25 -0.96875,2.4375 q -0.875,0.96875 -2.5,1.53125 l -0.4375,1.78125 -1.8125,1.15625 -1.59375,1.9375 -2.875,2.15625 -0.84375,0.21875 -3.25,2.625 -0.90625,-0.84375 q -1.0625,-0.8125 -1.5,-1.40625 -0.40625,-0.5625 -0.40625,-1.03125 0,-0.25 0.1875,-0.4375 l 0.3125,-2.6875 -1.34375,-2.1875 q -0.1875,-0.28125 -0.1875,-0.5 0,-0.375 0.375,-0.84375 v -0.125 l 0.53125,-0.5 -0.59375,-1.5625 0.1875,-3.25 v -0.84375 l 0.46875,-0.25 q -0.34375,-0.625 -0.34375,-1.46875 0,-0.46875 0.40625,-0.96875 h 0.5625 l -0.5,-0.4375 0.375,-0.6875 0.65625,-1.6875 0.9375,-1.15625 0.28125,-0.875 0.9375,-1.28125 q 0.125,-0.4375 0.25,-0.78125 v 0.0625 q 0,-0.5 0.21875,-0.8125 0.25,-0.3125 0.75,-1.15625 l 1.53125,-0.78125 0.125,-0.4375 q 1.5625,-1.25 3.09375,-1.53125 l 2.09375,-0.40625 1.40625,-0.8125 1.03125,0.0625 z m -1.9375,5.59375 -0.125,0.25 q -0.5625,0 -0.8125,0.03125 -0.25,0 -0.71875,0.40625 l -0.90625,-0.375 -3.4375,1.90625 q -1.28125,0.71875 -2.1875,2.375 -0.90625,1.625 -0.90625,2.6875 0,0.65625 0.28125,1.15625 h 0.125 q 0,0.71875 0.375,2.625 l -0.78125,1.21875 0.59375,0.875 -0.3125,1.09375 q 0,0.21875 0.25,0.78125 0.25,0.53125 0.21875,0.8125 0,0.25 0.53125,1.09375 l -0.0625,0.65625 q 0,1.71875 0.84375,1.71875 0.6875,0 1.84375,-0.96875 0.28125,-0.8125 1.09375,-0.875 l 0.3125,-0.96875 q 0.53125,-0.0625 0.53125,-0.5 v -0.21875 q 0.15625,-0.09375 0.34375,-0.1875 0.1875,-0.09375 0.21875,-0.125 0.375,-1.21875 1.46875,-2.75 l 0.21875,0.125 -0.0937,-0.25 0.96875,-1.09375 1.21875,-4.03125 0.1875,-0.375 0.40625,-0.125 0.0312,-0.71875 v -0.5625 q 0.0312,-0.1875 0.46875,-1.15625 l -1.9375,-1.53125 1.5,-0.59375 -0.21875,-1.71875 0.28125,-0.625 -0.40625,0.1875 z m 22.83776,-5.53125 q 0.75,0.34375 0.84375,1.03125 -0.84375,0.90625 -0.84375,2.625 v 0.46875 q -0.3125,0.3125 -0.3125,0.625 0,0.34375 0.125,0.5 h 0.1875 l -0.1875,0.90625 -0.5625,0.125 -0.25,1.03125 h -0.1875 q 0.0937,0.53125 0.4375,0.6875 0.78125,-0.0625 2.5,-1.96875 l 0.125,0.125 3.1875,-2.375 0.59375,-0.125 1.46875,-0.8125 1.15625,-0.34375 q 1.09375,-0.9375 3.4375,-1 1.0625,0.625 1.40625,0.625 0.40625,0 0.40625,0.25 0,0.21875 -0.28125,1.28125 l -1.34375,0.78125 -0.75,0.9375 -2.1875,1.03125 -0.8125,-0.375 h -0.59375 v 0.125 q -2.25,0.875 -4.09375,1.28125 -0.875,1.71875 -3.21875,4.5 -2.34375,2.78125 -2.40625,4.21875 l -0.1875,4.53125 -1.21875,2.03125 0.125,2.84375 q -0.125,0.5 -0.4375,1.0625 -0.28125,0.53125 -0.40625,0.9375 -0.125,0.40625 -0.875,1.5625 l -0.5625,0.15625 q -0.21875,0.03125 -1.6875,1.1875 h -1.59375 l -0.71875,0.25 -1.03125,-1 q 0,-0.90625 0.65625,-2.25 0.65625,-1.34375 0.75,-1.96875 0.4375,-3.09375 1.625,-3.65625 l 0.3125,-0.90625 -0.125,-0.5625 0.25,-0.46875 -0.84375,-1.40625 v -0.4375 l -0.1875,-2.75 q 0.4375,-0.3125 0.59375,-0.3125 0.25,0 0.5625,0.3125 l 1.21875,-1.59375 -0.1875,-1.15625 0.3125,-1.34375 -0.75,-0.59375 v -3.1875 l -1.15625,0.90625 h -0.71875 l -1.03125,0.6875 -1,-0.25 -1.03125,0.125 q -0.84375,0 -0.84375,-0.5625 0,-0.9375 0.9375,-2.21875 0.9375,-1.28125 2.84375,-2.34375 v -0.125 l 0.84375,-0.125 q 0.5,-0.90625 1.15625,-0.90625 0.375,-0.15625 0.84375,-0.59375 0.46875,-0.46875 2.09375,-1.25 l 0.8125,0.4375 0.65625,-0.3125 0.96875,-0.25 z m 29.77526,-7.9375 q 0,0.65625 -1.03125,2.3125 v 0.59375 l -0.6875,1.59375 v 1.03125 l -0.90625,2.15625 v 0.3125 q 0,0.71875 0.46875,0.71875 l 1,-0.3125 q 0.96875,0.5625 1.625,0.5625 h 1.40625 q 1.9375,-0.5 2.9375,-0.5 1.15625,0 2.5,0.1875 v 0.1875 l 1.15625,0.125 1.0625,1.28125 -1,1.28125 -1.8125,0.25 -1.78125,0.96875 -0.6875,0.125 q -0.34375,0.0625 -1.03125,0.53125 l -1.9375,-0.21875 q -0.1875,0.28125 -1.71875,0.34375 l -3.21875,0.125 q -1.40625,0.96875 -1.84375,1.46875 l 0.125,1.59375 -0.4375,0.71875 -0.25,2.28125 -0.78125,1.03125 -0.125,2.75 -0.78125,0.4375 -0.125,0.78125 0.46875,1.59375 -0.59375,5.78125 1.28125,4.96875 1.46875,-0.625 q 0.40625,-0.84375 1.59375,-0.84375 h 0.59375 q 1.53125,-0.5 2.3125,-1.71875 l 1.46875,-0.4375 -0.1875,-0.15625 0.4375,-0.5625 q 0.59375,-0.4375 0.75,-0.78125 l 0.90625,-0.3125 0.25,-0.5625 q 0.46875,0 0.46875,-0.46875 0.5625,-0.96875 2.75,-1.59375 0.4375,0.21875 0.4375,0.59375 0,0.5625 -0.5625,2.125 -0.5625,1.5625 -1.46875,2.21875 l -1.75,1.21875 -0.53125,0.71875 q -0.28125,0.4375 -0.71875,0.625 l -1.125,0.5 -0.875,0.25 -1.875,1.6875 -1.125,0.125 -1.4375,1.15625 -0.59375,0.59375 q -0.15625,0.15625 -0.65625,0.34375 l -3.96875,1.5625 -0.90625,0.125 -0.71875,0.5625 -1.46875,-0.96875 -0.4375,-1.90625 -0.46875,-1 q -0.1875,-0.46875 -1.25,-6.6875 0.0625,-0.21875 0.5625,-1.09375 v -1.09375 l 0.78125,-0.3125 0.9375,-2.625 -0.3125,-0.875 q 1.3125,-0.25 1.40625,-0.375 0.125,-0.125 0.125,-0.28125 0,-0.125 -0.3125,-0.75 l 1.03125,-3.09375 0.3125,-2.75 1.40625,-3.78125 q -0.125,-0.6875 -0.90625,-1.34375 -0.78125,-0.6875 -1.53125,-0.8125 l -1.21875,0.75 h -0.375 q -0.90625,0 -1.3125,-0.21875 -0.375,-0.21875 -0.40625,-0.21875 -0.28125,0 -0.71875,0.3125 -0.28125,0.65625 -0.75,0.65625 h -0.125 q -0.15625,0.0625 -0.53125,0.0625 -0.34375,0 -1.21875,-0.125 -0.625,-1.75 -0.625,-2.125 0,-0.375 0.4375,-1.40625 0.46875,-1.03125 0.96875,-1.03125 l 0.4375,0.0625 0.90625,-0.25 q 0.875,-0.25 1.21875,-0.25 h 0.1875 q 0.125,0.0625 0.375,0.0625 0.3125,0 0.53125,-0.125 0.25,-0.125 0.5625,-0.125 0.40625,0 0.5625,0.125 l 1.15625,-0.59375 h 0.34375 q 0.46875,0 0.84375,-0.125 0.375,-0.125 0.9375,-1.28125 l 0.6875,0.125 q 0.0937,-0.625 0.78125,-1.84375 0.5625,-0.03125 0.5625,-0.90625 v -0.375 l -0.1875,0.25 q 0.46875,-1.21875 0.78125,-1.84375 l -0.1875,-1.21875 1.34375,-2.5625 q 0.5625,-0.84375 1.46875,-1.03125 0.625,-0.9375 2.09375,-1.84375 1.46875,-0.90625 1.9375,-0.90625 1.09375,0 1.34375,0.96875 l -0.90625,1.78125 z m 21.90026,8.21875 0.78125,0.125 h 0.125 l -0.125,0.3125 h 0.25 l 0.4375,0.4375 1.46875,0.125 h 1.46875 l 0.84375,0.46875 h 0.3125 l 0.46875,1.59375 -0.65625,0.5625 v 0.59375 l 1.03125,1.03125 -0.125,2.875 h -0.4375 l -0.15625,0.5625 h -0.125 v 0.90625 l 0.59375,0.125 0.25,0.3125 -0.375,0.59375 v 0.4375 l -0.78125,0.375 -0.5625,0.46875 -1.625,0.875 q -0.65625,0.6875 -1.125,1.03125 l -0.46875,1.28125 -2.75,1.09375 -2.75,-0.0625 0.125,0.6875 h -0.5625 l -0.125,0.1875 -1.34375,0.28125 -0.125,-0.46875 -0.46875,0.1875 v 0.28125 l -1.15625,0.4375 -0.4375,1.28125 0.59375,1.59375 v 0.78125 l 0.3125,0.6875 q -0.625,1.84375 -0.90625,1.9375 l 0.1875,0.5625 -0.3125,0.125 0.71875,0.3125 v 0.96875 l 0.625,0.4375 q 1.5625,-0.46875 1.90625,-0.6875 l 0.46875,0.4375 0.125,-0.125 q 1.28125,-0.125 2.03125,-0.3125 l 0.21875,-0.375 h 0.75 l 0.59375,-0.0625 0.75,0.375 -0.1875,-0.25 h 0.625 l 0.78125,-0.65625 0.90625,-0.0625 h -0.1875 l 0.875,-0.375 0.25,0.1875 0.46875,-0.4375 h 0.625 l 0.59375,-0.59375 q 0.6875,-0.03125 2.21875,-0.8125 v -0.34375 l 0.90625,-0.25 0.96875,-1.40625 1.03125,0.125 q 0.53125,0.5 1.25,0.59375 l 0.46875,0.4375 -0.71875,1.34375 0.125,0.84375 -1,0.5625 -0.125,0.3125 -1.5,0.1875 -0.8125,0.84375 -0.90625,0.0625 -0.25,0.71875 -1.21875,-0.125 -0.375,0.875 -0.96875,-0.125 -0.375,0.4375 q -1.0625,0.40625 -1.09375,0.46875 l -0.4375,-0.25 -0.71875,0.6875 h -1.03125 l -0.625,0.3125 h -0.375 l -0.46875,0.40625 q -0.8125,0.21875 -1.65625,0.6875 l -0.4375,-0.3125 h -0.90625 l -0.375,0.3125 -0.34375,-0.125 -0.4375,0.125 -0.125,-0.125 -0.3125,0.71875 h -0.84375 l -0.6875,0.375 q -0.34375,0.1875 -1.5,0.3125 l -0.3125,0.3125 h -0.5625 l -0.84375,0.125 -0.625,0.78125 -0.84375,-0.3125 -0.4375,0.5625 -0.34375,-0.09375 q -0.125,-0.03125 -1.25,-1.1875 l 0.125,-0.75 -0.125,-0.40625 0.125,-0.75 -0.46875,-1.15625 0.1875,-0.90625 -0.3125,-1.40625 0.3125,-1.15625 -0.4375,-1.78125 -0.125,-0.125 0.125,-0.90625 1.03125,-0.375 v -0.625 l -0.4375,-0.15625 0.125,-0.8125 -0.28125,-0.46875 0.15625,-0.75 0.4375,-0.25 -0.125,-0.71875 0.125,-1.21875 0.25,-0.125 0.4375,-1.46875 1.03125,-1.84375 0.90625,-0.34375 0.125,-1 -0.125,-0.28125 0.125,-0.5625 0.5625,-0.3125 0.34375,-1.03125 h -0.78125 v -0.375 l 0.3125,-0.46875 -0.125,-0.4375 0.125,-0.4375 h 0.125 v -1.03125 l 1.03125,-0.125 0.4375,-0.90625 2.1875,-2.4375 h 0.4375 q 0.375,-0.59375 0.96875,-1 l 0.4375,0.125 q 0.4375,-0.15625 1.03125,-1.03125 h 0.3125 l 0.59375,-0.375 h 0.25 l 0.4375,-0.65625 z m -0.75,5.3125 -1.09375,0.375 -0.84375,-0.375 q -0.75,0.625 -1.21875,0.875 -0.0937,0.8125 -0.65625,1.375 -0.53125,0.5625 -0.75,0.5625 h -0.5625 l 0.375,0.6875 q -0.34375,0.625 -0.90625,1.9375 l -0.5,-0.125 -0.1875,0.8125 0.1875,1.15625 0.625,0.34375 q 0.28125,0.15625 1.5625,0.375 l 1,-0.65625 2.0625,-0.1875 1.09375,-1.59375 1.46875,-1.21875 0.1875,-2.3125 -0.5,-0.75 -0.0625,-1.09375 h -0.71875 z m 26.6815,-8.90625 1.03125,0.25 0.59375,0.90625 0.5625,0.25 -0.4375,1.59375 -1.40625,0.84375 -5.71875,2.75 -0.875,1.53125 0.1875,1.71875 1.96875,2.96875 0.40625,1.34375 1.125,-0.15625 1.21875,1.15625 v 1.15625 l 0.59375,0.25 2.15625,4.09375 0.65625,0.96875 q -0.25,1.15625 -0.25,1.59375 l 0.125,0.46875 -0.59375,0.875 -1,2.125 q -1.84375,1.59375 -2.25,2.5 l -0.84375,0.125 -0.125,0.4375 -3.96875,3.09375 q -1.625,1.625 -2.4375,1.84375 l -3.75,1.03125 q -0.5625,0.75 -1.34375,1.15625 l -0.59375,-1.15625 v -0.71875 l -0.4375,-0.5625 1.21875,-0.90625 q 0.375,-0.6875 0.53125,-0.8125 l 0.3125,-0.28125 q 0.15625,-0.125 1.5,-0.4375 0.71875,-0.71875 1.15625,-0.71875 h 0.46875 q 0.90625,-0.75 1.28125,-1.125 h 0.4375 l 0.125,-0.34375 0.4375,-0.125 0.28125,-0.9375 h 0.25 l 0.5625,-0.90625 0.90625,-0.375 0.25,-0.78125 0.3125,-0.25 0.59375,-1.9375 -0.46875,-1 -1.28125,-3.78125 -3,-2.125 q -0.75,-1.03125 -1.34375,-1.71875 l -0.25,-1.03125 q -0.125,-0.5 -0.71875,-1.34375 l -0.3125,-0.125 -0.4375,-1.21875 v -0.4375 q -0.21875,-1.15625 -0.4375,-1.53125 l 0.8125,-2.0625 0.3125,0.125 v -0.90625 l 0.71875,-0.5625 v -0.375 q 1.125,-0.8125 1.59375,-1.34375 h 0.59375 v 0.4375 l 0.5625,-1.15625 v 0.25 q 0.0312,-0.1875 1.21875,-0.6875 0.0937,-0.46875 0.6875,-0.59375 0.96875,-1.28125 1.03125,-1.46875 l 0.59375,-0.125 0.4375,0.125 0.25,-0.25 h 1.03125 v -0.1875 l 1.78125,-0.53125 q 0.28125,-0.03125 1.28125,-0.625 z m 52.27927,-4.875 0.59375,0.46875 v 0.125 q 0.96875,-0.59375 1.59375,-0.59375 0.78125,0 1.03125,1.03125 -0.78125,2.09375 -1.625,2.375 l -2.15625,0.6875 -1.75,1.46875 -2.15625,-0.1875 -1.59375,0.46875 h -1.03125 q -1.34375,0.65625 -2.1875,0.875 l -0.125,0.28125 q -2.28125,0.5625 -3.53125,2.34375 l 1.625,0.28125 q 0.28125,0 0.875,0.375 0.59375,0.375 1.15625,0.375 h 0.125 q 1.5,-0.5625 1.9375,-0.5625 l 1.03125,0.375 h 1.59375 l 0.25,0.3125 0.90625,1.875 -1.9375,1.1875 q -0.4375,0.75 -0.6875,1.1875 -0.21875,0.40625 -1.59375,1.21875 l -1.3125,0.75 -3.0625,3.5 -4.21875,4.375 q -2.09375,2.09375 -2.875,5.8125 l -0.46875,0.125 0.28125,0.71875 v 0.75 q 0,0.3125 0.5625,0.59375 0.1875,-0.28125 1.34375,-0.90625 l 0.59375,0.1875 0.4375,-0.4375 0.125,0.125 h 0.5625 v -0.125 l 0.71875,-0.3125 v 0.125 l 1.90625,-0.25 0.59375,0.25 q 0.3125,-0.3125 0.3125,-0.84375 l 3.78125,-1.59375 -0.3125,-0.4375 0.375,0.0625 0.3125,-0.0625 q 0.84375,-0.1875 1.34375,-1.28125 l 0.25,0.25 0.78125,-0.71875 h 0.25 q 0.4375,-0.25 0.4375,-0.6875 v -0.78125 q -0.25,-0.75 -0.25,-1.28125 l 1.09375,-0.5 q 0.1875,-0.0625 0.78125,-0.84375 v 0.1875 l 1.34375,-0.875 q 0.40625,0.25 0.75,0.25 0.25,0 0.25,-0.4375 0,-0.34375 -0.0625,-0.53125 l 2.0625,-0.4375 1.59375,2.15625 -1.03125,3.21875 -2.40625,6.65625 -1.15625,3.78125 -1.46875,4.34375 -1.5,5.375 -0.4375,0.5625 0.1875,0.46875 q -0.0625,0.34375 -0.375,1.03125 -0.3125,0.71875 -0.59375,1.9375 -0.28125,1.25 -0.59375,1.84375 -0.28125,0.625 -0.6875,2.0625 -0.375,1.46875 -0.375,1.8125 h 0.125 q -1.03125,3.125 -3.75,4.375 l -1.15625,0.1875 -1.59375,1.15625 q 0.1875,-1 0.5,-1.34375 0.3125,-0.34375 0.3125,-1.15625 l -0.6875,-1.15625 0.4375,-0.84375 q 0.0937,-0.75 0.5625,-0.75 h 0.46875 q 0.46875,-0.65625 0.8125,-0.84375 v -0.90625 l 0.90625,-1.15625 v -1.71875 q 0.53125,-1.5625 0.71875,-2.5 1.15625,-1 1.1875,-1.90625 l 0.15625,-3.15625 0.4375,-0.3125 0.125,-0.6875 q 0.59375,-0.71875 0.65625,-1.875 0.0937,-1.15625 0.1875,-1.4375 0.125,-0.25 0.875,-0.65625 v -1.28125 l 0.59375,-0.3125 q -0.28125,-0.71875 -0.15625,-1.3125 l 0.15625,-1.59375 -0.59375,-0.5625 0.125,-1.34375 q 0.125,-0.25 0.125,-0.78125 0,-0.59375 -0.125,-0.8125 l -0.6875,-0.40625 q -0.40625,0.25 -0.8125,0.78125 -0.40625,0.5 -1,0.75 -0.5625,0.21875 -0.8125,0.21875 l -0.84375,-0.125 q -0.28125,0 -0.5625,0.5625 -0.53125,0.65625 -1.375,1.09375 -0.8125,0.4375 -2.03125,0.75 l -3.53125,1.03125 q -0.59375,0.3125 -1.25,0.46875 -0.28125,-0.15625 -0.46875,-0.15625 l -0.6875,0.28125 h -0.71875 q -0.9375,0.5625 -1.71875,0.75 -0.40625,-0.15625 -0.59375,-0.28125 -0.15625,-0.125 -0.4375,-1.0625 l -1.03125,0.3125 q -0.6875,-0.21875 -0.6875,-1.1875 l 0.0937,-0.65625 q 0.0937,-0.65625 0.15625,-0.75 0.3125,-0.65625 0.65625,-1.9375 0.375,-1.28125 0.65625,-1.78125 l 0.625,-0.96875 1.40625,-2.625 0.5625,0.4375 v -0.5625 q 1.375,-1.375 3.1875,-3.90625 0.3125,-1.34375 1.03125,-1.34375 h 0.46875 l 0.1875,-0.125 v -0.4375 q 0,-0.46875 0.375,-0.46875 l 0.5625,-0.5625 0.15625,0.3125 0.3125,-0.5625 q 2.03125,-2.15625 2.03125,-2.90625 v -0.1875 q -0.0937,-0.8125 -1.90625,-0.8125 h -0.4375 v -0.46875 q -0.96875,0.34375 -1.6875,0.34375 -0.46875,0 -0.875,-0.34375 l -0.90625,0.28125 -1.15625,-1.28125 -0.5625,0.6875 -0.59375,-0.25 q 0.28125,-0.8125 0.375,-1.34375 l 0.65625,-0.25 q 0.25,-0.4375 0.28125,-0.875 0.0625,-0.4375 1.25,-1.625 l 0.1875,0.125 0.46875,-0.71875 0.125,0.15625 1.28125,-2.1875 q 0.3125,0 0.71875,-0.15625 0.4375,-0.1875 1.3125,-1.4375 l 1.15625,-0.28125 1.90625,-1.46875 1.625,-0.3125 0.8125,-0.8125 q 1.34375,-0.125 3.65625,-1.03125 l 0.5625,-0.90625 h 2.625 l 0.46875,-0.6875 0.6875,0.4375 z"
       id="path2" /><path
       style="font-size:64px;font-family:'Viner Hand ITC';-inkscape-font-specification:'Viner Hand ITC'"
       d="m 316.74023,91.297345 1.21875,0.15625 1.75,-0.21875 v 2.1875 q -0.53125,0.40625 -0.53125,0.84375 -0.875,0.5 -0.875,1.34375 0,0.375 0.0625,0.5625 l -0.21875,1.21875 -2.34375,4.218755 -0.34375,2.0625 -0.5625,0.75 0.0625,1.59375 -0.90625,4.25 q -0.125,0.125 -0.125,0.25 0,0.25 0.3125,0.4375 l 1.4375,-1.78125 0.8125,-0.4375 0.65625,-1.5 1.21875,-0.875 1.46875,-2.25 q 0.59375,-0.90625 2.5625,-1.65625 0,-0.53125 0.9375,-1.53125 0.125,-0.0312 0.78125,-0.5625 0.65625,-0.531255 1.21875,-0.906255 l -0.125,-0.21875 q 2.25,-1.21875 2.21875,-1.65625 1.59375,-0.6875 2.0625,-1.59375 2.25,-2.0625 3.25,-2.1875 0.25,-0.03125 0.8125,-0.28125 0.59375,-0.28125 1,-0.34375 0.65625,-0.84375 1.71875,-0.84375 0.625,0 0.625,0.90625 l 0.0937,2.03125 -0.40625,1.15625 -0.0625,1.46875 -0.6875,1.75 -0.71875,4.406255 q -0.125,0.375 -0.4375,0.4375 l 0.375,1.40625 -0.4375,0.78125 0.75,0.4375 -0.25,0.40625 q -0.1875,0.1875 -0.625,1 0.3125,0.3125 0.5,0.59375 l -0.1875,2.5 h 0.125 q 0.3125,3.28125 0.71875,3.3125 l 1.34375,-0.5 q 0.78125,-1.28125 2.40625,-2.1875 0.5625,-0.0937 0.84375,-0.375 0.5,0 0.625,-0.3125 0.5625,-0.34375 1,-0.4375 0.4375,-0.125 1.84375,-0.84375 l 1.0625,0.25 q 0.375,0.34375 0.46875,0.6875 -0.84375,1.03125 -1.84375,2.46875 -0.96875,1.4375 -1.375,1.4375 h -0.875 l -0.65625,0.96875 -1.59375,0.3125 -1.40625,1.8125 -1.15625,0.3125 -4.40625,3.0625 -1.34375,1.34375 -0.1875,-1.15625 -1.15625,0.0625 -0.40625,-1.90625 -0.625,-0.5 -0.0625,-2.1875 -0.3125,-1.34375 q 0,-1.6875 0.625,-1.78125 v -0.15625 l 0.375,-1.46875 -0.0625,-2.03125 0.71875,-1.40625 -0.5,-0.59375 1,-1.15625 0.0625,-2.40625 0.53125,-1.15625 -0.90625,-1.21875 0.25,-0.0625 v -0.90625 l 0.59375,-0.3125 v -0.1875 l -0.0625,-0.53125 v -0.125 q -0.28125,-0.3125 -1.40625,-0.500005 l -1.5,1.218755 -2.09375,0.96875 -3.0625,3.4375 -0.46875,0.71875 q -1.375,1.375 -1.34375,1.53125 l -0.625,0.4375 q -0.125,0.625 -0.125,0.84375 l -1.21875,1.40625 -1.28125,1.84375 -2.1875,3.46875 h -0.125 l -0.375,0.875 -0.59375,2.0625 q -1.3125,1.09375 -2.34375,2.1875 l -1.03125,0.25 -0.65625,1.09375 -0.4375,0.0625 -0.84375,-0.1875 q -0.6875,0 -1.46875,0.3125 l 0.65625,-1.28125 0.25,-1.15625 q 1.21875,-2.96875 1.84375,-5.375 h 0.125 v -0.90625 l 0.65625,-1.84375 0.25,-1.59375 h 0.125 l -0.3125,-1.03125 0.3125,-1.9375 0.21875,-0.6875 q 0.0937,-0.3125 0.875,-1.34375 l -0.1875,-0.84375 0.375,-0.5625 q -0.5625,-1.5 -0.5625,-2.75 l 0.1875,-1.03125 -0.125,-0.187505 v -0.375 q -0.875,-0.59375 -1.9375,-0.59375 -0.34375,0 -0.75,0.1875 -0.375,0.1875 -1.15625,1.687505 -2.03125,0.6875 -2.375,0.875 l -0.5625,-1.21875 q 0,-0.531255 0.3125,-0.812505 0.34375,-0.28125 0.5625,-0.28125 h 0.53125 l 0.5,-0.6875 0.96875,-0.25 -0.375,-0.25 v -0.34375 l 1.1875,0.1875 1.28125,-1.40625 1.8125,-1.0625 0.3125,-0.40625 h 0.1875 l -0.3125,-0.4375 q 0.25,0.125 0.375,0.125 0.25,0 0.25,-0.5625 1.09375,-1.3125 2.3125,-1.46875 0.375,-0.96875 1.40625,-1.03125 v -0.3125 z m 52.96277,-1.90625 q 0.21875,-0.0625 1.21875,0.0625 1,0.125 1.28125,0.4375 l 1.0625,-0.25 0.59375,0.0625 0.4375,0.84375 -0.0625,0.625 q -0.625,0.5 -0.84375,1.09375 h -0.3125 l -0.34375,0.375 q -0.15625,0.15625 -1.3125,0.53125 l -0.0625,5.8125 0.5,3.000005 0.0625,3.09375 0.46875,3.78125 1.96875,5.375 q 0.53125,0.59375 0.71875,0.9375 1.5625,-0.875 1.96875,-0.875 1.28125,-1.46875 1.65625,-1.53125 v -0.34375 l 3.53125,-3 0.0625,-0.5625 q 0.34375,-0.0625 1.34375,-1.21875 l 1.15625,0.25 0.625,1.40625 -0.25,1.21875 -0.625,-0.25 -0.3125,0.6875 h -0.59375 q -0.34375,0.9375 -1.03125,1.53125 v 0.34375 l -1.71875,1.59375 -0.3125,0.8125 q -0.59375,0.40625 -2,1.09375 l -0.25,0.46875 -0.0625,-0.15625 -0.375,0.65625 -0.84375,0.25 -0.125,0.4375 h -0.4375 l 0.1875,0.46875 -0.5,0.96875 -0.46875,0.125 q 0.0625,0.5 -1.03125,1.84375 l -1.46875,0.0625 -0.3125,0.90625 -0.90625,0.25 Q 370.953,122.3286 370.328,121.3286 l -2.09375,-3.40625 -2,-4.46875 0.1875,-1.65625 -0.4375,-1.46875 0.3125,-0.0625 q -0.90625,-1.8125 -0.90625,-2.75 l 0.15625,-1.15625 -0.96875,-0.59375 -0.65625,0.40625 v -0.15625 l -0.3125,0.15625 -0.84375,2.15625 -0.4375,-0.1875 -0.125,0.4375 -0.3125,-0.125 v 0.28125 h -0.125 q -0.0312,0.1875 -0.90625,1.59375 l -0.25,-0.125 -0.1875,1.34375 -0.65625,0.34375 q -0.65625,0.34375 -0.84375,0.8125 l -0.25,0.625 0.28125,0.375 -0.71875,0.25 -0.3125,1.28125 -0.53125,0.28125 0.15625,0.25 q -0.75,0.5625 -1.21875,0.75 l -0.28125,0.46875 -0.25,-0.34375 -0.4375,1.09375 h -0.375 l -0.53125,1.8125 -0.5625,0.1875 -0.0625,0.9375 h -0.90625 l -0.90625,2.0625 -0.4375,0.3125 h -0.375 l -0.125,0.59375 -2,0.75 -2.09375,0.0625 -0.90625,-5.9375 0.375,-0.78125 0.0937,-0.625 q 0.0312,-0.25 0.75,-1.875 l -0.125,-0.4375 q 0.5625,-1.28125 0.75,-1.53125 l -0.25,-0.125 0.59375,-1.53125 0.0312,-0.59375 q 0.0312,-0.25 0.46875,-1.15625 -0.25,-1.5 -0.5,-1.71875 l 0.25,-0.4375 0.8125,0.125 q 0.71875,-0.96875 0.90625,-1.03125 l 0.1875,-0.5625 h 0.125 l -0.4375,-0.65625 0.375,-1.65625 0.25,0.125 q 0.375,-0.96875 0.46875,-0.96875 l -0.125,-0.8125 0.875,-1.625 v -0.4375 l -0.1875,-0.375005 1.28125,-2.75 1.46875,-2 q 0.75,-0.65625 1.28125,-1.46875 l 1.09375,-0.4375 1.46875,-1.53125 1.40625,-0.84375 h 0.84375 l 0.6875,-0.1875 h 0.96875 l 0.4375,-0.71875 0.90625,0.0625 h 0.90625 v -0.25 q 0.375,0.03125 0.8125,0.3125 l 0.96875,-0.375 0.71875,0.1875 0.1875,-0.25 0.75,0.25 z m -8.0625,4.9375 -0.78125,0.125 -0.96875,-0.0625 -0.3125,0.5625 v 0.46875 q -0.5,0.25 -1.09375,0.4375 l -0.5625,1.40625 q -0.4375,1.875 -0.53125,1.90625 h -0.3125 l -0.4375,1.031255 -0.21875,0.875 q -0.0937,0.40625 -0.625,0.65625 l -0.3125,1.09375 -0.5,0.9375 q -0.28125,0.53125 -0.28125,1.125 v 0.25 l -0.3125,-0.25 v 0.5 h -0.1875 l 0.0625,0.3125 -0.25,0.53125 -0.375,1.65625 -0.65625,1.34375 -0.125,1.90625 -0.1875,0.28125 h -0.125 l -0.125,0.5625 0.25,0.25 -0.3125,1.15625 h -0.125 l 0.125,0.375 h -0.46875 l 0.0625,2.3125 0.28125,1.09375 h 0.125 l 0.6875,-0.65625 1.8125,-2.5625 3.25,-4.28125 0.96875,-1.03125 2.15625,-3.5 2.25,-3 0.1875,-0.65625 -0.4375,-0.5625 0.8125,-1.406255 0.1875,-1.0625 q 0.0312,-0.15625 0.53125,-0.8125 l 0.0625,-2.5 -0.84375,-0.0625 h -0.6875 l -0.90625,-0.625 -0.1875,0.3125 z m 42.27526,-10.96875 q 0,0.65625 -1.03125,2.3125 v 0.59375 l -0.6875,1.59375 v 1.03125 l -0.90625,2.15625 v 0.3125 q 0,0.71875 0.46875,0.71875 l 1,-0.3125 q 0.96875,0.5625 1.625,0.5625 h 1.40625 q 1.9375,-0.5 2.9375,-0.5 1.15625,0 2.5,0.1875 v 0.1875 l 1.15625,0.125 1.0625,1.28125 -1,1.28125 -1.8125,0.25 -1.78125,0.96875 -0.6875,0.125 q -0.34375,0.0625 -1.03125,0.53125 l -1.9375,-0.21875 q -0.1875,0.28125 -1.71875,0.34375 l -3.21875,0.125 q -1.40625,0.96875 -1.84375,1.46875 l 0.125,1.593755 -0.4375,0.71875 -0.25,2.28125 -0.78125,1.03125 -0.125,2.75 -0.78125,0.4375 -0.125,0.78125 0.46875,1.59375 -0.59375,5.78125 1.28125,4.96875 1.46875,-0.625 q 0.40625,-0.84375 1.59375,-0.84375 h 0.59375 q 1.53125,-0.5 2.3125,-1.71875 l 1.46875,-0.4375 -0.1875,-0.15625 0.4375,-0.5625 q 0.59375,-0.4375 0.75,-0.78125 l 0.90625,-0.3125 0.25,-0.5625 q 0.46875,0 0.46875,-0.46875 0.5625,-0.96875 2.75,-1.59375 0.4375,0.21875 0.4375,0.59375 0,0.5625 -0.5625,2.125 -0.5625,1.5625 -1.46875,2.21875 l -1.75,1.21875 -0.53125,0.71875 q -0.28125,0.4375 -0.71875,0.625 l -1.125,0.5 -0.875,0.25 -1.875,1.6875 -1.125,0.125 -1.4375,1.15625 -0.59375,0.59375 q -0.15625,0.15625 -0.65625,0.34375 l -3.96875,1.5625 -0.90625,0.125 -0.71875,0.5625 -1.46875,-0.96875 -0.4375,-1.90625 -0.46875,-1 q -0.1875,-0.46875 -1.25,-6.6875 0.0625,-0.21875 0.5625,-1.09375 v -1.09375 l 0.78125,-0.3125 0.9375,-2.625 -0.3125,-0.875 q 1.3125,-0.25 1.40625,-0.375 0.125,-0.125 0.125,-0.28125 0,-0.125 -0.3125,-0.75 l 1.03125,-3.09375 0.3125,-2.75 1.40625,-3.781255 q -0.125,-0.6875 -0.90625,-1.34375 -0.78125,-0.6875 -1.53125,-0.8125 l -1.21875,0.75 h -0.375 q -0.90625,0 -1.3125,-0.21875 -0.375,-0.21875 -0.40625,-0.21875 -0.28125,0 -0.71875,0.3125 -0.28125,0.65625 -0.75,0.65625 h -0.125 q -0.15625,0.0625 -0.53125,0.0625 -0.34375,0 -1.21875,-0.125 -0.625,-1.75 -0.625,-2.125 0,-0.375 0.4375,-1.40625 0.46875,-1.03125 0.96875,-1.03125 l 0.4375,0.0625 0.90625,-0.25 q 0.875,-0.25 1.21875,-0.25 h 0.1875 q 0.125,0.0625 0.375,0.0625 0.3125,0 0.53125,-0.125 0.25,-0.125 0.5625,-0.125 0.40625,0 0.5625,0.125 l 1.15625,-0.59375 h 0.34375 q 0.46875,0 0.84375,-0.125 0.375,-0.125 0.9375,-1.28125 l 0.6875,0.125 q 0.0937,-0.625 0.78125,-1.84375 0.5625,-0.03125 0.5625,-0.90625 v -0.375 l -0.1875,0.25 q 0.46875,-1.21875 0.78125,-1.84375 l -0.1875,-1.21875 1.34375,-2.5625 q 0.5625,-0.84375 1.46875,-1.03125 0.625,-0.9375 2.09375,-1.84375 1.46875,-0.90625 1.9375,-0.90625 1.09375,0 1.34375,0.96875 l -0.90625,1.78125 z m 26.30651,-6.5 h -0.1875 l -1.15625,2.46875 -0.125,-0.125 q 0,0.34375 -0.3125,0.59375 v 0.125 q -0.6875,1.09375 -1.71875,1.59375 l -0.25,-0.125 v 0.25 q -1.21875,-0.15625 -1.90625,-0.5 -0.65625,-0.375 -1,-1.1875 -0.3125,-0.84375 -0.625,-1.75 0.46875,-0.65625 0.78125,-0.78125 l 0.25,-0.84375 1.03125,-0.5625 0.5625,-1.21875 1.03125,-0.5625 v 0.1875 l 0.5625,0.25 q 0.21875,-0.125 0.28125,-0.1875 0.0937,-0.09375 0.21875,-0.1875 0.15625,-0.125 0.75,-0.25 0.59375,-0.15625 0.90625,-0.34375 l 0.34375,-0.1875 h 0.25 l 0.46875,0.71875 v 1 l 0.125,0.90625 z m -4.53125,18.28125 h -0.125 l -0.25,1.625 0.25,0.1875 -0.4375,1.15625 -0.125,-0.21875 v 0.46875 q 0,1.375 -1.15625,2.625005 h 0.25 v 0.5625 h -0.125 l 0.125,3.65625 -0.25,0.4375 0.125,0.59375 -0.46875,2.28125 h 0.15625 q 0,0.625 -0.3125,1.78125 l -0.28125,0.84375 -0.375,4.15625 q -0.125,0.625 -0.125,0.71875 0,0.5625 0.5,0.5625 0.59375,0 1.3125,-0.46875 l 2.03125,-1.375 q 0.84375,-1.03125 1.21875,-1.03125 h 0.1875 q 0.53125,-0.25 1,-0.84375 0.46875,-0.59375 0.71875,-0.6875 0.46875,-0.84375 0.84375,-0.84375 0.0312,0 0.25,0.0625 0.21875,0.0625 1.15625,0.21875 l 0.25,0.875 q 0,0.71875 -0.5,1.65625 -0.5,0.90625 -0.8125,1.53125 -0.28125,0.59375 -1.3125,0.96875 v 0.21875 l -0.4375,-0.125 v 0.4375 h -0.28125 q -0.0937,0.84375 -0.875,0.96875 v 0.1875 h -0.84375 v 0.125 h -0.3125 l -0.84375,0.5625 h -0.25 l -0.4375,0.59375 -1.28125,0.1875 q -0.1875,0.375 -0.59375,0.375 l -1.59375,1.15625 v 0.25 l -0.78125,-0.125 0.21875,0.3125 -1.03125,0.25 v 0.15625 h -0.4375 v 0.4375 l -0.46875,0.3125 h -0.125 v 0.125 q -0.40625,1.15625 -1.15625,1.15625 l -0.4375,-0.125 q -0.375,-1.15625 -1.28125,-2.3125 0.25,-1 0.25,-1.46875 l -0.25,-1.28125 v -0.6875 q 0,-0.96875 0.1875,-2 l 0.1875,-0.8125 v -0.15625 h -0.0625 q -0.0625,0 -0.0625,-0.0625 0,-0.0625 0.28125,-1 0.3125,-0.9375 0.3125,-2.4375 0,-0.375 -0.28125,-0.4375 l 0.40625,-0.84375 v -3.78125 l 0.5,-1.09375 q 0.25,-0.5 0.5,-1.96875 0.40625,-0.25 0.46875,-0.46875 l -0.25,-0.375 0.25,-0.625 q -0.5,-0.96875 -1.15625,-0.96875 h -1.46875 q -0.25,0.25 -0.25,0.5625 h -0.21875 q -0.15625,0.84375 -0.8125,1.03125 -0.15625,0.8125 -0.90625,0.96875 l -0.5625,0.90625 h -0.125 q -0.21875,0.6875 -0.78125,0.6875 -0.625,0 -1.03125,-0.90625 -0.375,-0.90625 -0.375,-1 0,-0.125 0.125,-0.28125 0.3125,-1.375 1.9375,-2.28125 v -0.25 q 0.6875,-0.6875 1.40625,-1.031255 h -0.28125 q 1.34375,-0.28125 1.5625,-1.375 0.25,-1.125 1.65625,-1.125 l 0.375,0.125 0.78125,-0.375 h -0.46875 l 0.71875,-0.46875 0.1875,0.125 0.5625,-0.6875 0.15625,0.125 q 0.375,-0.90625 1.71875,-0.90625 0.3125,0 0.3125,-0.25 v -0.3125 h 0.25 l -0.125,-0.125 1.03125,-0.71875 q 0.5,-0.875 1.59375,-0.875 0.6875,0 1.1875,0.375 0.53125,0.375 0.53125,0.75 0,0.40625 -0.4375,1.15625 z m 44.74401,-12.78125 0.4375,0.6875 -0.125,0.3125 0.90625,0.46875 0.6875,-0.1875 0.28125,0.75 -0.15625,0.71875 -0.5625,0.4375 q -0.28125,1.28125 -0.4375,1.65625 l 0.1875,0.65625 -0.65625,0.125 -0.375,1.34375 -0.5625,0.25 v 0.59375 l -0.78125,0.4375 0.125,1.34375 v 0.5625 l -0.375,0.28125 q -0.1875,0.84375 -0.90625,2.46875 l -1.59375,3.65625 -1.28125,2.187505 -0.78125,0.25 v 0.96875 l -3,4.71875 -0.8125,2.0625 -2.25,2.9375 -0.90625,0.71875 v 0.4375 l -0.96875,0.3125 h -0.3125 l -1.03125,1.59375 -0.5625,-0.125 -0.96875,1.34375 q -1.1875,0.6875 -1.71875,1.21875 h -0.625 l -0.59375,0.78125 q -1.75,1.34375 -1.90625,1.71875 l 0.4375,0.5625 -0.90625,0.34375 q -0.25,0.25 -1.15625,0.8125 v 0.78125 l -0.4375,0.25 h -0.375 l -0.5,0.65625 q -0.28125,0.375 -0.5625,0.53125 l -0.875,0.40625 -0.4375,-0.125 -0.5625,0.25 -0.84375,-1 q -0.21875,-0.84375 -0.4375,-0.96875 v -2.0625 l -1.03125,-4.21875 0.5625,-1.03125 -1.59375,-2.625 0.4375,-1.125 q -0.0625,-0.59375 -0.5625,-1.15625 l 0.4375,-0.71875 -0.4375,-0.875 h 0.25 l -0.125,-0.71875 0.125,-0.78125 0.3125,-0.125 v -1 l -1.125,-0.90625 h 0.4375 l 0.125,-0.25 -0.125,-0.90625 -0.65625,-0.125 -0.25,-0.71875 0.25,-0.1875 v -1.71875 l 0.21875,-0.25 -0.46875,-0.1875 -0.3125,-1.156255 -0.375,-0.25 -0.1875,0.125 -0.46875,-0.34375 -0.5625,0.34375 h -0.59375 l -0.4375,0.687505 -0.5625,-0.125 -0.59375,0.71875 -0.5625,-0.125 0.1875,0.4375 -0.78125,0.4375 -0.8125,-0.75 -0.34375,-1.281255 1.28125,-1.625 0.65625,0.15625 1.71875,-1.625 0.84375,-0.4375 q 1.09375,-0.71875 1.21875,-0.71875 h 0.25 v 0.59375 h 0.3125 l -0.1875,-0.4375 1.90625,-0.71875 0.46875,0.125 -0.1875,-0.125 h 0.5625 l 0.3125,-0.125 -0.4375,-0.1875 h 0.3125 l 0.46875,-0.59375 0.8125,-0.25 0.3125,-0.375 h 0.84375 v -0.3125 h 0.3125 l 0.28125,-0.46875 h 0.875 l 0.59375,0.59375 q 0.53125,0.15625 0.5625,0.25 l -0.25,1.03125 0.25,1 -0.84375,1.75 0.15625,1.90625 -0.15625,0.71875 0.40625,1.593755 v 3.1875 l 0.375,2.78125 0.0312,0.5625 q 0.0312,0.1875 0.34375,1.03125 l 1.28125,3.1875 0.3125,0.3125 v 1.03125 l 0.28125,0.84375 -0.59375,1 0.46875,0.71875 3.75,-3.34375 1.75,-1.40625 0.625,-1.90625 0.96875,-0.25 -0.125,-0.3125 0.4375,-0.40625 0.3125,0.125 0.28125,-1.46875 q 0.9375,-1.09375 2.28125,-2.75 l 0.59375,-0.90625 0.4375,-0.5 0.0937,-0.40625 q 0.0312,-0.15625 0.75,-1.09375 0.75,-0.9375 1.15625,-1.531255 0.4375,-0.625 1.125,-2.28125 l 0.78125,-0.3125 0.3125,-1.21875 0.46875,-0.5625 q 0.40625,-0.8125 1.28125,-1.75 v -0.6875 l 0.4375,-0.59375 0.0937,-0.59375 q 0.0312,-0.28125 0.28125,-0.71875 l 0.53125,-0.78125 q 0.25,-0.40625 0.6875,-0.71875 l 0.4375,-1.15625 -0.75,-1.15625 -0.71875,0.34375 -0.4375,-0.1875 -0.71875,1.1875 h -0.75 l -0.71875,0.96875 h -0.6875 l -0.3125,-0.25 -0.71875,0.5625 -0.90625,0.125 -0.4375,-0.4375 0.78125,-0.6875 v -0.59375 q 0.5,-0.625 0.5625,-0.875 l 0.71875,-0.40625 0.875,-1.46875 0.25,-0.125 0.59375,-0.625 q 0.5,-0.3125 1.03125,-0.96875 h 0.5625 l 0.5625,-1.03125 0.34375,0.25 0.875,-0.25 0.71875,0.125 0.5625,-0.125 z m 18.119,8.875 h 1.59375 l 1.03125,0.46875 q 0.375,1.65625 1.21875,1.65625 0.3125,0 0.3125,-0.625 0.96875,-0.71875 1.78125,-0.71875 0.5,0 0.84375,0.34375 0.34375,0.34375 0.375,0.6875 l 0.25,3.5625 -0.1875,0.71875 q -0.21875,0.71875 -0.3125,1.53125 -0.0937,0.8125 -0.3125,1.281255 -0.1875,0.46875 -0.28125,0.59375 l -2.53125,2.6875 0.3125,1.84375 -0.65625,1.09375 -0.3125,1 -1.96875,2.25 -0.96875,2.4375 q -0.875,0.96875 -2.5,1.53125 l -0.4375,1.78125 -1.8125,1.15625 -1.59375,1.9375 -2.875,2.15625 -0.84375,0.21875 -3.25,2.625 -0.90625,-0.84375 q -1.0625,-0.8125 -1.5,-1.40625 -0.40625,-0.5625 -0.40625,-1.03125 0,-0.25 0.1875,-0.4375 l 0.3125,-2.6875 -1.34375,-2.1875 q -0.1875,-0.28125 -0.1875,-0.5 0,-0.375 0.375,-0.84375 v -0.125 l 0.53125,-0.5 -0.59375,-1.5625 0.1875,-3.25 v -0.84375 l 0.46875,-0.25 q -0.34375,-0.625 -0.34375,-1.46875 0,-0.46875 0.40625,-0.96875 h 0.5625 l -0.5,-0.4375 0.375,-0.6875 0.65625,-1.6875 0.9375,-1.15625 0.28125,-0.875005 0.9375,-1.28125 q 0.125,-0.4375 0.25,-0.78125 v 0.0625 q 0,-0.5 0.21875,-0.8125 0.25,-0.3125 0.75,-1.15625 l 1.53125,-0.78125 0.125,-0.4375 q 1.5625,-1.25 3.09375,-1.53125 l 2.09375,-0.40625 1.40625,-0.8125 1.03125,0.0625 z m -1.9375,5.59375 -0.125,0.25 q -0.5625,0 -0.8125,0.03125 -0.25,0 -0.71875,0.40625 l -0.90625,-0.375 -3.4375,1.90625 q -1.28125,0.71875 -2.1875,2.375005 -0.90625,1.625 -0.90625,2.6875 0,0.65625 0.28125,1.15625 h 0.125 q 0,0.71875 0.375,2.625 l -0.78125,1.21875 0.59375,0.875 -0.3125,1.09375 q 0,0.21875 0.25,0.78125 0.25,0.53125 0.21875,0.8125 0,0.25 0.53125,1.09375 l -0.0625,0.65625 q 0,1.71875 0.84375,1.71875 0.6875,0 1.84375,-0.96875 0.28125,-0.8125 1.09375,-0.875 l 0.3125,-0.96875 q 0.53125,-0.0625 0.53125,-0.5 v -0.21875 q 0.15625,-0.0937 0.34375,-0.1875 0.1875,-0.0937 0.21875,-0.125 0.375,-1.21875 1.46875,-2.75 l 0.21875,0.125 -0.0937,-0.25 0.96875,-1.09375 1.21875,-4.03125 0.1875,-0.375 0.40625,-0.125 0.0312,-0.71875 v -0.5625 q 0.0312,-0.1875 0.46875,-1.15625 l -1.9375,-1.531255 1.5,-0.59375 -0.21875,-1.71875 0.28125,-0.625 -0.40625,0.1875 z m 24.05652,-8.84375 1.03125,0.25 0.59375,0.90625 0.5625,0.25 -0.4375,1.59375 -1.40625,0.84375 -5.71875,2.75 -0.875,1.53125 0.1875,1.71875 1.96875,2.968755 0.40625,1.34375 1.125,-0.15625 1.21875,1.15625 v 1.15625 l 0.59375,0.25 2.15625,4.09375 0.65625,0.96875 q -0.25,1.15625 -0.25,1.59375 l 0.125,0.46875 -0.59375,0.875 -1,2.125 q -1.84375,1.59375 -2.25,2.5 l -0.84375,0.125 -0.125,0.4375 -3.96875,3.09375 q -1.625,1.625 -2.4375,1.84375 l -3.75,1.03125 q -0.5625,0.75 -1.34375,1.15625 l -0.59375,-1.15625 v -0.71875 l -0.4375,-0.5625 1.21875,-0.90625 q 0.375,-0.6875 0.53125,-0.8125 l 0.3125,-0.28125 q 0.15625,-0.125 1.5,-0.4375 0.71875,-0.71875 1.15625,-0.71875 h 0.46875 q 0.90625,-0.75 1.28125,-1.125 h 0.4375 l 0.125,-0.34375 0.4375,-0.125 0.28125,-0.9375 h 0.25 l 0.5625,-0.90625 0.90625,-0.375 0.25,-0.78125 0.3125,-0.25 0.59375,-1.9375 -0.46875,-1 -1.28125,-3.78125 -3,-2.125 q -0.75,-1.03125 -1.34375,-1.71875 l -0.25,-1.03125 q -0.125,-0.5 -0.71875,-1.34375 l -0.3125,-0.125 -0.4375,-1.21875 v -0.437505 q -0.21875,-1.15625 -0.4375,-1.53125 l 0.8125,-2.0625 0.3125,0.125 v -0.90625 l 0.71875,-0.5625 v -0.375 q 1.125,-0.8125 1.59375,-1.34375 h 0.59375 v 0.4375 l 0.5625,-1.15625 v 0.25 q 0.0312,-0.1875 1.21875,-0.6875 0.0937,-0.46875 0.6875,-0.59375 0.96875,-1.28125 1.03125,-1.46875 l 0.59375,-0.125 0.4375,0.125 0.25,-0.25 h 1.03125 v -0.1875 l 1.78125,-0.53125 q 0.28125,-0.03125 1.28125,-0.625 z"
       id="path3" /></g></svg>
