<?xml version="1.0" encoding="UTF-8" standalone="no"?>
<!-- Generator: Adobe Illustrator 12.0.0, SVG Export Plug-In  -->

<svg
   version="1.1"
   width="47.275391"
   height="31.002441"
   viewBox="-0.3779297 -0.4501953 47.275391 31.002441"
   enable-background="new -0.3779297 -0.4501953 501 149"
   xml:space="preserve"
   id="svg6333"
   sodipodi:docname="Thomson_logo.svg"
   inkscape:version="1.1 (c68e22c387, 2021-05-23)"
   xmlns:inkscape="http://www.inkscape.org/namespaces/inkscape"
   xmlns:sodipodi="http://sodipodi.sourceforge.net/DTD/sodipodi-0.dtd"
   xmlns="http://www.w3.org/2000/svg"
   xmlns:svg="http://www.w3.org/2000/svg"><sodipodi:namedview
   id="namedview6335"
   pagecolor="#ffffff"
   bordercolor="#111111"
   borderopacity="1"
   inkscape:pageshadow="0"
   inkscape:pageopacity="0"
   inkscape:pagecheckerboard="1"
   showgrid="false"
   fit-margin-top="0"
   fit-margin-left="0"
   fit-margin-right="0"
   fit-margin-bottom="0"
   inkscape:zoom="2.2175649"
   inkscape:cx="-5.1858686"
   inkscape:cy="48.70207"
   inkscape:window-width="1280"
   inkscape:window-height="738"
   inkscape:window-x="-8"
   inkscape:window-y="-8"
   inkscape:window-maximized="1"
   inkscape:current-layer="svg6333" />
<defs
   id="defs6309" />
<polygon
   opacity="0"
   fill-rule="evenodd"
   clip-rule="evenodd"
   fill="#ffffff"
   points="500,147.85547 0,147.85547 0,0 500,0 "
   id="polygon6311"
   transform="translate(-84.341797,-25.818359)" />
<polygon
   fill-rule="evenodd"
   clip-rule="evenodd"
   fill="#13007A"
   points="451.29199,95.142578 461.49316,95.142578 461.49316,96.374023 457.7168,96.374023 457.7168,102.89941 455.06934,102.89941 455.06934,96.374023 451.29199,96.374023 "
   id="polygon6313"
   style="fill:#ffffff"
   transform="translate(-84.341797,-25.818359)" />
<polygon
   fill-rule="evenodd"
   clip-rule="evenodd"
   fill="#13007A"
   points="470.53418,101.01953 470.56738,101.01953 473.70605,95.142578 477.94141,95.142578 477.94141,102.89941 475.40527,102.89941 475.40527,96.500977 475.37305,96.500977 471.81641,102.89941 469.29297,102.89941 465.73926,96.500977 465.70605,96.526367 465.70605,102.89941 463.1709,102.89941 463.1709,95.142578 467.40625,95.142578 "
   id="polygon6315"
   style="fill:#ffffff"
   transform="translate(-84.341797,-25.818359)" />
<polygon
   fill-rule="evenodd"
   clip-rule="evenodd"
   fill="#13007A"
   points="260.87988,113.73145 250.3877,103.41602 443.53809,99.849609 443.53809,98.198242 250.3877,94.630859 260.87988,84.316406 243.46045,89.53418 237.57861,71.885742 231.68799,89.53418 214.27344,84.316406 224.75977,94.630859 31.617676,98.198242 31.617676,99.849609 224.75977,103.41602 214.27344,113.73145 231.68799,108.5127 237.57861,126.16406 243.46045,108.5127 "
   id="polygon6317"
   style="fill:#ffffff"
   transform="translate(-84.341797,-25.818359)" />
<polygon
   fill-rule="evenodd"
   clip-rule="evenodd"
   fill="#13007A"
   points="95.78125,37.893555 119.41699,37.893555 119.41699,25.368164 131.23926,25.368164 131.23926,56.370606 119.41699,56.370606 119.41699,42.78125 95.78125,42.78125 95.78125,56.370606 83.963867,56.370606 83.963867,25.368164 95.78125,25.368164 "
   id="polygon6319"
   style="fill:#ffffff"
   transform="translate(-84.341797,-25.818359)" />
<path
   fill-rule="evenodd"
   clip-rule="evenodd"
   fill="#13007A"
   d="m 83.000003,-0.9770504 c 18.483397,0 28.853997,6.577636 28.853997,15.9516604 0,9.370117 -10.20752,16.130859 -28.853997,16.130859 -18.9126,0 -28.87305,-6.631836 -28.87305,-16.130859 0,-9.5146494 10.13037,-15.9516604 28.87305,-15.9516604 z m 0,27.1933594 c 12.06933,0 16.53906,-5.647461 16.53906,-11.241699 0,-5.4692384 -4.80566,-11.0673834 -16.53906,-11.0673834 -11.73731,0 -16.54785,5.598145 -16.54785,11.0673834 0,5.594238 4.46972,11.241699 16.54785,11.241699 z"
   id="path6321"
   style="fill:#ffffff" />
<polygon
   fill-rule="evenodd"
   clip-rule="evenodd"
   fill="#13007A"
   points="237.57861,43.681641 237.57861,43.681641 251.67969,25.368164 271.10352,25.368164 271.10352,56.370606 259.27637,56.370606 259.27637,30.788086 259.10449,30.788086 237.57861,58.308106 237.57861,58.308106 216.06055,30.788086 215.88721,30.876465 215.88721,56.370606 204.06006,56.370606 204.06006,25.368164 223.48682,25.368164 "
   id="polygon6323"
   style="fill:#ffffff"
   transform="translate(-84.341797,-25.818359)" />
<path
   fill-rule="evenodd"
   clip-rule="evenodd"
   fill="#13007A"
   d="m 273.93261,-0.9770504 c 18.46973,0 28.87305,6.577636 28.87305,15.9516604 0,9.370117 -10.22363,16.130859 -28.87305,16.130859 -18.90918,0 -28.86523,-6.631836 -28.86523,-16.130859 0,-9.5146494 10.125,-15.9516604 28.86523,-15.9516604 z m 0,27.1933594 c 12.06543,0 16.54688,-5.647461 16.54688,-11.241699 0,-5.4692384 -4.8252,-11.0673834 -16.54688,-11.0673834 -11.74609,0 -16.53906,5.598145 -16.53906,11.0673834 0,5.594238 4.47168,11.241699 16.53906,11.241699 z"
   id="path6325"
   style="fill:#ffffff" />
<path
   fill-rule="evenodd"
   clip-rule="evenodd"
   fill="#13007A"
   d="m 234.00488,5.1357426 c -4.35645,-0.847657 -9.22754,-1.340332 -14.07617,-1.340332 -4.7627,0 -10.90821,0.938476 -10.90821,4.329101 0,5.3857424 30.32715,3.1069344 30.32715,13.5551764 0,6.816895 -11.97656,9.408203 -25.96679,9.408203 -7.53125,0 -10.90821,-0.445801 -17.74805,-1.207031 l 1.29687,-5.614746 c 4.7627,1.151367 10.21387,1.912597 15.66797,1.912597 5.25098,0 12.29102,-1.197265 12.29102,-4.007812 0,-5.932617 -30.33203,-3.485352 -30.33203,-13.7827154 0,-6.951172 11.98437,-9.499512 24.18652,-9.499512 5.94531,0 11.48535,0.359864 16.53906,1.117188 z"
   id="path6327"
   style="fill:#ffffff" />
<polygon
   fill-rule="evenodd"
   clip-rule="evenodd"
   fill="#13007A"
   points="431.55371,48.572266 431.72168,48.572266 431.72168,25.368164 443.53125,25.368164 443.53125,56.370606 428.59277,56.370606 406.06543,33.189453 405.89844,33.189453 405.89844,56.370606 394.08594,56.370606 394.08594,25.378418 409.10547,25.378418 "
   id="polygon6329"
   style="fill:#ffffff"
   transform="translate(-84.341797,-25.818359)" />
<polygon
   fill-rule="evenodd"
   clip-rule="evenodd"
   fill="#13007A"
   points="31.617676,25.368164 77.209473,25.368164 77.209473,30.250977 60.328613,30.250977 60.328613,56.370606 48.513672,56.370606 48.513672,30.250977 31.617676,30.250977 "
   id="polygon6331"
   style="fill:#ffffff"
   transform="translate(-84.341797,-25.818359)" />
</svg>
