<?xml version="1.0" encoding="UTF-8" standalone="no"?>
<!-- Created with Inkscape (http://www.inkscape.org/) -->

<svg
   width="155.92775mm"
   height="59.26667mm"
   viewBox="0 0 155.92775 59.26667"
   version="1.1"
   id="svg5"
   inkscape:version="1.1 (c68e22c387, 2021-05-23)"
   sodipodi:docname="tic80.svg"
   xmlns:inkscape="http://www.inkscape.org/namespaces/inkscape"
   xmlns:sodipodi="http://sodipodi.sourceforge.net/DTD/sodipodi-0.dtd"
   xmlns="http://www.w3.org/2000/svg"
   xmlns:svg="http://www.w3.org/2000/svg">
  <sodipodi:namedview
     id="namedview7"
     pagecolor="#ffffff"
     bordercolor="#111111"
     borderopacity="1"
     inkscape:pageshadow="0"
     inkscape:pageopacity="0"
     inkscape:pagecheckerboard="1"
     inkscape:document-units="mm"
     showgrid="false"
     inkscape:zoom="0.45433502"
     inkscape:cx="316.94673"
     inkscape:cy="151.87031"
     inkscape:window-width="1280"
     inkscape:window-height="738"
     inkscape:window-x="-8"
     inkscape:window-y="-8"
     inkscape:window-maximized="1"
     inkscape:current-layer="layer1"
     fit-margin-top="0"
     fit-margin-left="0"
     fit-margin-right="0"
     fit-margin-bottom="0" />
  <defs
     id="defs2" />
  <g
     inkscape:label="Ebene 1"
     inkscape:groupmode="layer"
     id="layer1"
     transform="translate(-20.870465,-108.38431)">
    <path
       style="fill:#ffffff;stroke-width:0.264583"
       d="m 25.103799,165.53432 v -2.11667 h -2.116667 -2.116667 v -25.4 -25.4 h 2.116667 2.116667 v -2.11667 -2.11667 h 21.166667 21.166667 v 2.11667 2.11667 h 2.116667 2.116667 v 12.7 12.7 h 2.116666 2.116667 v -6.35 -6.35 h 2.116668 2.11667 v 6.35 6.35 H 78.020468 75.9038 v 2.11666 2.11667 h -2.116667 -2.116666 v 8.46667 8.46667 H 69.5538 67.437133 v 2.11666 2.11667 H 65.320466 63.2038 v 2.11667 2.11666 h -6.350001 -6.35 v -2.11666 -2.11667 h -6.35 -6.35 v 2.11667 2.11666 h -6.35 -6.35 z m 25.4,-12.7 v -2.11667 h 2.116667 2.116667 v -2.11667 -2.11666 h -2.116667 -2.116667 v 2.11666 2.11667 h -6.35 -6.35 v -2.11667 -2.11666 h -2.116667 -2.116666 v 2.11666 2.11667 h 2.116666 2.116667 v 2.11667 2.11666 h 6.35 6.35 z M 63.2038,131.66765 v -10.58334 h -19.050001 -19.05 v 10.58334 10.58333 h 19.05 19.050001 z m -29.633334,0 v -6.35 h 2.116666 2.116667 v 6.35 6.35 h -2.116667 -2.116666 z m 16.933333,0 v -6.35 h 2.116667 2.116667 v 6.35 6.35 h -2.116667 -2.116667 z"
       id="path2184" />
    <g
       aria-label="Tic-80"
       id="text5494"
       style="font-size:22.5778px;line-height:1.25;font-family:Consolas;-inkscape-font-specification:Consolas;stroke-width:0.264583">
      <path
         d="m 106.97116,122.95515 h -4.26641 v 12.73308 h -1.98437 v -12.73308 h -4.266414 v -1.6757 h 10.517194 z"
         style="fill:#ffffff"
         id="path13856" />
      <path
         d="m 113.45346,126.20732 h -3.27422 v -1.5875 h 5.2145 v 9.46989 h 3.29627 v 1.59852 h -8.87457 v -1.59852 h 3.63802 z m 0.67249,-6.22874 q 0.3197,0 0.59531,0.12127 0.27561,0.11024 0.47404,0.3197 0.20947,0.20947 0.31971,0.48507 0.12127,0.26459 0.12127,0.58429 0,0.30868 -0.12127,0.58429 -0.11024,0.27561 -0.31971,0.48507 -0.19843,0.20946 -0.47404,0.33073 -0.27561,0.11024 -0.59531,0.11024 -0.31971,0 -0.59532,-0.11024 -0.27561,-0.12127 -0.48507,-0.33073 -0.19844,-0.20946 -0.3197,-0.48507 -0.11025,-0.27561 -0.11025,-0.58429 0,-0.3197 0.11025,-0.58429 0.12126,-0.2756 0.3197,-0.48507 0.20946,-0.20946 0.48507,-0.3197 0.27561,-0.12127 0.59532,-0.12127 z"
         style="fill:#ffffff"
         id="path13858" />
      <path
         d="m 130.69549,135.28033 q -0.74965,0.28663 -1.5434,0.41893 -0.78273,0.14331 -1.62058,0.14331 -2.62378,0 -4.04592,-1.42213 -1.41111,-1.42214 -1.41111,-4.15617 0,-1.3119 0.4079,-2.38125 0.4079,-1.06936 1.14653,-1.83004 0.73863,-0.76068 1.76389,-1.16858 1.02526,-0.41892 2.25998,-0.41892 0.8599,0 1.60955,0.12127 0.74966,0.12126 1.43316,0.39687 v 1.83004 q -0.71658,-0.37483 -1.46623,-0.54019 -0.73863,-0.17639 -1.53238,-0.17639 -0.73863,0 -1.40009,0.28663 -0.65043,0.27561 -1.14653,0.80477 -0.49609,0.52917 -0.78272,1.28985 -0.28664,0.76068 -0.28664,1.71979 0,2.00643 0.97014,3.00964 0.98117,0.99219 2.71199,0.99219 0.78272,0 1.51033,-0.17639 0.73863,-0.17639 1.42213,-0.52917 z"
         style="fill:#ffffff"
         id="path13860" />
      <path
         d="m 142.24898,130.58397 h -6.59254 v -1.80798 h 6.59254 z"
         style="fill:#ffffff"
         id="path13862" />
      <path
         d="m 156.27191,132.07226 q 0,0.91501 -0.37483,1.6316 -0.37483,0.70555 -1.04731,1.19062 -0.67248,0.48507 -1.5875,0.73863 -0.91502,0.25356 -1.98438,0.25356 -1.1796,0 -2.08359,-0.26458 -0.89297,-0.26459 -1.49931,-0.73863 -0.60634,-0.47405 -0.91502,-1.12448 -0.30868,-0.65044 -0.30868,-1.43316 0,-1.32292 0.73863,-2.28204 0.73863,-0.95911 2.28203,-1.74184 -1.41111,-0.71658 -2.06154,-1.5875 -0.65044,-0.88195 -0.65044,-2.01745 0,-0.69453 0.28663,-1.34497 0.28664,-0.65043 0.8599,-1.15755 0.58429,-0.50712 1.45521,-0.80478 0.87092,-0.30868 2.05052,-0.30868 1.11346,0 1.95131,0.24254 0.84887,0.23151 1.42213,0.67248 0.57327,0.44097 0.8599,1.06936 0.28663,0.62839 0.28663,1.40009 0,1.25677 -0.70555,2.13872 -0.69453,0.88194 -1.98438,1.5434 0.63941,0.3197 1.19063,0.70556 0.55121,0.38585 0.95911,0.85989 0.4079,0.47405 0.62839,1.05834 0.23151,0.58429 0.23151,1.30087 z m -2.28204,-7.45244 q 0,-0.98117 -0.69453,-1.45521 -0.6835,-0.48507 -1.92925,-0.48507 -1.23473,0 -1.92926,0.47404 -0.68351,0.47405 -0.68351,1.42214 0,0.42995 0.16537,0.79375 0.16536,0.3638 0.50712,0.68351 0.35278,0.3197 0.87092,0.62839 0.51814,0.30868 1.23472,0.62838 1.24575,-0.58429 1.85209,-1.21267 0.60633,-0.63941 0.60633,-1.47726 z m 0.19844,7.59575 q 0,-0.4079 -0.13229,-0.79375 -0.13229,-0.38585 -0.47404,-0.76068 -0.34176,-0.37482 -0.91502,-0.74965 -0.57327,-0.37483 -1.45521,-0.7717 -0.74966,0.3638 -1.2678,0.7276 -0.50712,0.35278 -0.82682,0.72761 -0.30868,0.3638 -0.44098,0.76068 -0.13229,0.39687 -0.13229,0.83784 0,0.4961 0.20946,0.88195 0.22049,0.37483 0.59532,0.63941 0.37482,0.26458 0.89297,0.39688 0.51814,0.13229 1.12448,0.13229 0.58429,0 1.10243,-0.12127 0.51814,-0.12127 0.89297,-0.3638 0.38585,-0.25356 0.60634,-0.62839 0.22048,-0.38585 0.22048,-0.91502 z"
         style="fill:#ffffff"
         id="path13864" />
      <path
         d="m 169.01602,128.48935 q 0,1.65365 -0.33073,3.02067 -0.33073,1.35599 -1.00321,2.33715 -0.67249,0.97014 -1.6757,1.51033 -0.99219,0.52917 -2.33716,0.52917 -1.15755,0 -2.10564,-0.42995 -0.94809,-0.44097 -1.62058,-1.34496 -0.67248,-0.904 -1.03628,-2.30409 -0.3638,-1.40009 -0.3638,-3.31832 0,-1.65364 0.33073,-3.02066 0.34175,-1.36701 1.00321,-2.33715 0.67248,-0.98117 1.6757,-1.51034 1.00321,-0.54019 2.33715,-0.54019 1.15755,0 2.10564,0.44098 0.9481,0.42994 1.62058,1.34496 0.67248,0.904 1.03629,2.30408 0.3638,1.40009 0.3638,3.31832 z m -1.94028,0.0661 q 0,-0.37483 -0.0331,-0.73863 -0.022,-0.37483 -0.0551,-0.7276 l -6.09644,4.53099 q 0.16536,0.57326 0.41892,1.05833 0.25356,0.48507 0.60634,0.83785 0.3638,0.34176 0.8158,0.54019 0.46302,0.18742 1.04731,0.18742 0.74965,0 1.35599,-0.36381 0.61736,-0.3638 1.04731,-1.08038 0.42995,-0.71658 0.66146,-1.77491 0.23151,-1.06936 0.23151,-2.46945 z m -6.59254,-0.13229 q 0,0.34175 0,0.68351 0.011,0.34175 0.0441,0.66145 l 6.09645,-4.50894 q -0.16536,-0.56224 -0.41892,-1.02526 -0.25356,-0.46302 -0.60634,-0.79375 -0.35278,-0.34176 -0.80478,-0.52917 -0.45199,-0.18741 -1.01423,-0.18741 -0.74966,0 -1.36702,0.3638 -0.60634,0.3638 -1.03628,1.09141 -0.42995,0.71658 -0.66146,1.78594 -0.23151,1.05833 -0.23151,2.45842 z"
         style="fill:#ffffff"
         id="path13866" />
    </g>
    <g
       aria-label="tiny computers"
       id="text11882"
       style="font-size:11.2889px;line-height:1.25;font-family:Consolas;-inkscape-font-specification:Consolas;fill:#ffffff;stroke-width:0.264583">
      <path
         d="m 96.188343,155.41107 q -0.325218,0.0827 -0.672484,0.11575 -0.347266,0.0386 -0.705556,0.0386 -1.041798,0 -1.554429,-0.46854 -0.51263,-0.47404 -0.51263,-1.4497 v -2.88837 h -1.548917 v -0.80477 h 1.548917 v -1.52136 l 0.959115,-0.24804 v 1.7694 h 2.485984 v 0.80477 h -2.485984 v 2.8112 q 0,0.59532 0.314193,0.89297 0.319705,0.29215 0.937067,0.29215 0.264584,0 0.578777,-0.0386 0.314193,-0.0441 0.655947,-0.13229 z"
         id="path13869" />
      <path
         d="m 99.820855,150.74778 h -1.637111 v -0.79375 h 2.607246 v 4.73494 h 1.64814 v 0.79927 h -4.437287 v -0.79927 h 1.819012 z m 0.336245,-3.11437 q 0.15985,0 0.29765,0.0606 0.13781,0.0551 0.23703,0.15986 0.10473,0.10473 0.15985,0.24253 0.0606,0.13229 0.0606,0.29215 0,0.15434 -0.0606,0.29214 -0.0551,0.1378 -0.15985,0.24253 -0.0992,0.10474 -0.23703,0.16537 -0.1378,0.0551 -0.29765,0.0551 -0.159856,0 -0.29766,-0.0551 -0.137804,-0.0606 -0.242535,-0.16537 -0.09922,-0.10473 -0.159852,-0.24253 -0.05512,-0.1378 -0.05512,-0.29214 0,-0.15986 0.05512,-0.29215 0.06063,-0.1378 0.159852,-0.24253 0.104731,-0.10473 0.242535,-0.15986 0.137804,-0.0606 0.29766,-0.0606 z"
         id="path13871" />
      <path
         d="m 104.14239,149.95403 h 0.85438 l 0.0386,0.89297 q 0.24253,-0.28663 0.46853,-0.47405 0.226,-0.19292 0.44097,-0.30868 0.22049,-0.11575 0.44649,-0.15985 0.226,-0.0496 0.46853,-0.0496 0.85439,0 1.28985,0.50712 0.44097,0.5016 0.44097,1.51584 v 3.61047 h -0.95912 v -3.5333 q 0,-0.65043 -0.24253,-0.95911 -0.24254,-0.3142 -0.72209,-0.3142 -0.17639,0 -0.34727,0.0551 -0.16537,0.0496 -0.34727,0.18191 -0.1819,0.12678 -0.39687,0.34726 -0.20946,0.22049 -0.47405,0.55122 v 3.6711 h -0.95911 z"
         id="path13873" />
      <path
         d="m 115.27144,149.95403 -1.88516,4.94992 q -0.29215,0.75516 -0.60634,1.30087 -0.30868,0.5457 -0.678,0.89297 -0.36931,0.35277 -0.81028,0.51814 -0.44098,0.16536 -0.98668,0.16536 -0.14332,0 -0.25907,-0.006 -0.11576,-0.006 -0.25356,-0.0165 v -0.87092 q 0.12127,0.0165 0.26458,0.0276 0.14332,0.0165 0.30317,0.0165 0.26459,0 0.49058,-0.0772 0.23151,-0.0772 0.43546,-0.25356 0.20395,-0.17088 0.39137,-0.44648 0.18741,-0.27561 0.3638,-0.66697 l -2.21037,-5.53421 h 1.0914 l 1.40009,3.66007 0.28112,0.8599 0.31971,-0.88195 1.29535,-3.63802 z"
         id="path13875" />
      <path
         d="m 127.06194,155.28429 q -0.37483,0.14331 -0.7717,0.20946 -0.39136,0.0717 -0.81029,0.0717 -1.31189,0 -2.02296,-0.71107 -0.70556,-0.71107 -0.70556,-2.07809 0,-0.65594 0.20395,-1.19062 0.20395,-0.53468 0.57327,-0.91502 0.36931,-0.38034 0.88194,-0.58429 0.51263,-0.20946 1.13,-0.20946 0.42994,0 0.80477,0.0606 0.37483,0.0606 0.71658,0.19844 v 0.91502 q -0.35829,-0.18742 -0.73312,-0.2701 -0.36931,-0.0882 -0.76619,-0.0882 -0.36931,0 -0.70004,0.14331 -0.32522,0.13781 -0.57326,0.40239 -0.24805,0.26458 -0.39137,0.64492 -0.14331,0.38034 -0.14331,0.8599 0,1.00321 0.48507,1.50482 0.49058,0.49609 1.35599,0.49609 0.39136,0 0.75516,-0.0882 0.36932,-0.0882 0.71107,-0.26458 z"
         id="path13877" />
      <path
         d="m 133.78678,152.67703 q 0,0.64493 -0.18191,1.18512 -0.1819,0.53468 -0.52365,0.92053 -0.34175,0.38034 -0.83234,0.59531 -0.49058,0.20946 -1.11345,0.20946 -0.59532,0 -1.06936,-0.1819 -0.46853,-0.18741 -0.79926,-0.5457 -0.32522,-0.35829 -0.50161,-0.88746 -0.17088,-0.52917 -0.17088,-1.21819 0,-0.64492 0.1819,-1.17408 0.18191,-0.53468 0.52366,-0.91502 0.34175,-0.38585 0.83233,-0.59532 0.49059,-0.21497 1.11346,-0.21497 0.59531,0 1.06385,0.18741 0.47404,0.1819 0.79926,0.54019 0.33073,0.35278 0.50161,0.88195 0.17639,0.52917 0.17639,1.21267 z m -0.98117,0.0441 q 0,-0.51263 -0.11575,-0.89297 -0.11025,-0.38585 -0.31971,-0.63941 -0.20946,-0.25907 -0.51263,-0.38585 -0.29766,-0.13229 -0.66697,-0.13229 -0.42995,0 -0.73863,0.17088 -0.30317,0.16536 -0.50161,0.44648 -0.19292,0.28112 -0.28663,0.65595 -0.0882,0.36931 -0.0882,0.77721 0,0.51263 0.11024,0.89848 0.11576,0.38585 0.32522,0.64493 0.20946,0.25356 0.50712,0.38585 0.29765,0.12678 0.67248,0.12678 0.42995,0 0.73312,-0.16537 0.30868,-0.17087 0.5016,-0.45199 0.19844,-0.28112 0.28663,-0.65044 0.0937,-0.37483 0.0937,-0.78824 z"
         id="path13879" />
      <path
         d="m 139.12254,155.48824 v -3.97427 q 0,-0.25907 -0.022,-0.42444 -0.0165,-0.16536 -0.0606,-0.25907 -0.0386,-0.0992 -0.10473,-0.1378 -0.0606,-0.0386 -0.15434,-0.0386 -0.11024,0 -0.20395,0.0662 -0.0937,0.0661 -0.20395,0.21497 -0.10473,0.14883 -0.23702,0.39688 -0.12678,0.24253 -0.30317,0.60082 v 3.55535 h -0.87644 v -3.86954 q 0,-0.30317 -0.022,-0.49058 -0.0165,-0.18742 -0.0606,-0.29215 -0.0386,-0.10473 -0.10473,-0.14331 -0.0661,-0.0386 -0.15985,-0.0386 -0.0992,0 -0.18741,0.0551 -0.0882,0.0551 -0.19844,0.19844 -0.10473,0.14332 -0.23703,0.39137 -0.13229,0.24804 -0.31419,0.63389 v 3.55535 h -0.88194 v -5.53421 h 0.73311 l 0.0441,1.05282 q 0.14332,-0.31419 0.27561,-0.53468 0.1378,-0.22048 0.28112,-0.35278 0.14331,-0.1378 0.30317,-0.19843 0.16536,-0.0662 0.3638,-0.0662 0.44648,0 0.678,0.29214 0.23151,0.29215 0.23151,0.904 0.13229,-0.28663 0.25907,-0.50712 0.12678,-0.226 0.27009,-0.37483 0.14883,-0.15434 0.32522,-0.23151 0.17639,-0.0827 0.4079,-0.0827 1.0418,0 1.0418,1.60404 v 4.02939 z"
         id="path13881" />
      <path
         d="m 146.11196,152.62191 q 0,0.73863 -0.20946,1.28985 -0.20395,0.55121 -0.56775,0.91502 -0.36381,0.3638 -0.8599,0.5457 -0.49609,0.1819 -1.07487,0.1819 -0.26458,0 -0.52917,-0.0276 -0.25907,-0.0276 -0.52917,-0.0937 v 2.31511 h -0.95911 V 149.954 h 0.85438 l 0.0606,0.92604 q 0.41341,-0.56775 0.88194,-0.79375 0.46854,-0.23151 1.01424,-0.23151 0.47405,0 0.83234,0.19844 0.35829,0.19844 0.60082,0.56224 0.24254,0.35829 0.3638,0.87092 0.12127,0.50712 0.12127,1.1355 z m -0.98116,0.0441 q 0,-0.43546 -0.0661,-0.79926 -0.0606,-0.36381 -0.19844,-0.62288 -0.1378,-0.25907 -0.35278,-0.40238 -0.21497,-0.14883 -0.51263,-0.14883 -0.1819,0 -0.36931,0.0606 -0.18741,0.0551 -0.39136,0.19293 -0.19844,0.13229 -0.42444,0.35829 -0.22049,0.22048 -0.47405,0.55121 v 2.68442 q 0.26459,0.11025 0.55673,0.17639 0.29215,0.0606 0.57327,0.0606 0.77721,0 1.21818,-0.52366 0.44098,-0.52917 0.44098,-1.5875 z"
         id="path13883" />
      <path
         d="m 152.03753,155.48824 h -0.85989 l -0.0331,-0.89297 q -0.24804,0.28663 -0.47404,0.47955 -0.22049,0.18742 -0.44098,0.30317 -0.22048,0.11576 -0.44648,0.15985 -0.22049,0.0496 -0.46853,0.0496 -0.85439,0 -1.28985,-0.5016 -0.43546,-0.50161 -0.43546,-1.51585 v -3.61597 h 0.95912 v 3.5388 q 0,1.27331 0.95911,1.27331 0.17639,0 0.34176,-0.0496 0.17087,-0.0551 0.35277,-0.1819 0.18742,-0.13229 0.39688,-0.35278 0.21497,-0.22048 0.47956,-0.55672 v -3.6711 h 0.95911 z"
         id="path13885" />
      <path
         d="m 158.25524,155.41107 q -0.32521,0.0827 -0.67248,0.11575 -0.34726,0.0386 -0.70555,0.0386 -1.0418,0 -1.55443,-0.46854 -0.51263,-0.47404 -0.51263,-1.4497 v -2.88837 h -1.54892 v -0.80477 h 1.54892 v -1.52136 l 0.95911,-0.24804 v 1.7694 h 2.48598 v 0.80477 h -2.48598 v 2.8112 q 0,0.59532 0.31419,0.89297 0.31971,0.29215 0.93707,0.29215 0.26458,0 0.57878,-0.0386 0.31419,-0.0441 0.65594,-0.13229 z"
         id="path13887" />
      <path
         d="m 164.67691,152.42899 q 0,0.20395 -0.006,0.34175 -0.006,0.13781 -0.0165,0.25907 h -3.88607 q 0,0.84888 0.47404,1.30638 0.47405,0.452 1.36702,0.452 0.24253,0 0.48507,-0.0165 0.24253,-0.022 0.46853,-0.0551 0.226,-0.0331 0.42995,-0.0717 0.20946,-0.0441 0.38585,-0.0937 v 0.78824 q -0.39136,0.11024 -0.88746,0.17639 -0.49058,0.0716 -1.01975,0.0716 -0.71106,0 -1.2237,-0.19292 -0.51263,-0.19293 -0.84336,-0.55673 -0.32521,-0.36931 -0.48507,-0.89848 -0.15434,-0.53468 -0.15434,-1.20716 0,-0.58429 0.16537,-1.10244 0.17088,-0.52365 0.49058,-0.91501 0.32522,-0.39688 0.79375,-0.62839 0.46853,-0.23151 1.06385,-0.23151 0.57877,0 1.02526,0.1819 0.44648,0.1819 0.74965,0.51814 0.30868,0.33073 0.46302,0.81029 0.15986,0.47405 0.15986,1.06385 z m -0.9977,-0.13781 q 0.0165,-0.36931 -0.0717,-0.67248 -0.0882,-0.30868 -0.27561,-0.52917 -0.1819,-0.22048 -0.45751,-0.34175 -0.27561,-0.12678 -0.63941,-0.12678 -0.31419,0 -0.57326,0.12127 -0.25908,0.12126 -0.44649,0.34175 -0.18741,0.22049 -0.30317,0.52917 -0.11575,0.30868 -0.14331,0.67799 z"
         id="path13889" />
      <path
         d="m 166.43529,149.95403 h 0.87643 l 0.0276,1.01975 q 0.49059,-0.5898 0.96463,-0.85439 0.47956,-0.26458 0.96463,-0.26458 0.8599,0 1.30087,0.55673 0.44648,0.55673 0.41341,1.65365 h -0.97014 q 0.0165,-0.72761 -0.21497,-1.05283 -0.226,-0.33073 -0.66697,-0.33073 -0.19293,0 -0.39137,0.0717 -0.19292,0.0661 -0.40238,0.22049 -0.20395,0.14883 -0.43547,0.38585 -0.23151,0.23702 -0.49609,0.57326 v 3.55535 h -0.97014 z"
         id="path13891" />
      <path
         d="m 176.79815,153.9779 q 0,0.29215 -0.0992,0.52366 -0.0992,0.23151 -0.2701,0.41341 -0.17088,0.17639 -0.39687,0.30317 -0.226,0.12678 -0.48507,0.20946 -0.25356,0.0827 -0.52366,0.12127 -0.27009,0.0386 -0.52917,0.0386 -0.56224,0 -1.03628,-0.0496 -0.46854,-0.0496 -0.92053,-0.15985 v -0.88194 q 0.48507,0.1378 0.96463,0.20946 0.47955,0.0717 0.9536,0.0717 0.68902,0 1.01975,-0.18742 0.33073,-0.18741 0.33073,-0.53468 0,-0.14882 -0.0551,-0.26458 -0.0496,-0.12127 -0.18742,-0.226 -0.1378,-0.11024 -0.42995,-0.226 -0.28663,-0.11575 -0.78823,-0.26458 -0.37483,-0.11024 -0.69454,-0.24805 -0.31419,-0.14331 -0.5457,-0.33624 -0.23151,-0.19292 -0.3638,-0.452 -0.13229,-0.25907 -0.13229,-0.61185 0,-0.23151 0.10473,-0.50711 0.11024,-0.27561 0.36931,-0.51263 0.25907,-0.23703 0.70005,-0.39137 0.44097,-0.15985 1.10243,-0.15985 0.32521,0 0.72209,0.0386 0.39688,0.0331 0.82682,0.12127 v 0.85439 q -0.45199,-0.11025 -0.85989,-0.15986 -0.40239,-0.0551 -0.70005,-0.0551 -0.35829,0 -0.60633,0.0551 -0.24254,0.0551 -0.39688,0.15434 -0.14883,0.0937 -0.21497,0.226 -0.0661,0.12678 -0.0661,0.27561 0,0.14883 0.0551,0.2701 0.0606,0.12126 0.21498,0.23702 0.15985,0.11024 0.44097,0.226 0.28112,0.11024 0.73312,0.24253 0.49058,0.14332 0.82682,0.30317 0.33624,0.15434 0.5457,0.34727 0.20946,0.19292 0.29766,0.43546 0.0937,0.24253 0.0937,0.55121 z"
         id="path13893" />
    </g>
  </g>
</svg>
