<?xml version="1.0" encoding="UTF-8" standalone="no"?>
<!-- Generator: Adobe Illustrator 24.1.2, SVG Export Plug-In . SVG Version: 6.00 Build 0)  -->

<svg
   version="1.1"
   id="Layer_1"
   x="0px"
   y="0px"
   width="713.59998"
   height="568"
   viewBox="0 0 713.6 568"
   xml:space="preserve"
   sodipodi:docname="Xbox_logo_(2019).svg"
   inkscape:version="1.1 (c68e22c387, 2021-05-23)"
   xmlns:inkscape="http://www.inkscape.org/namespaces/inkscape"
   xmlns:sodipodi="http://sodipodi.sourceforge.net/DTD/sodipodi-0.dtd"
   xmlns="http://www.w3.org/2000/svg"
   xmlns:svg="http://www.w3.org/2000/svg"><defs
   id="defs6626" /><sodipodi:namedview
   id="namedview6624"
   pagecolor="#ffffff"
   bordercolor="#111111"
   borderopacity="1"
   inkscape:pageshadow="0"
   inkscape:pageopacity="0"
   inkscape:pagecheckerboard="1"
   showgrid="false"
   fit-margin-top="0"
   fit-margin-left="0"
   fit-margin-right="0"
   fit-margin-bottom="0"
   inkscape:zoom="0.89788732"
   inkscape:cx="356.94902"
   inkscape:cy="284"
   inkscape:window-width="1280"
   inkscape:window-height="738"
   inkscape:window-x="-8"
   inkscape:window-y="-8"
   inkscape:window-maximized="1"
   inkscape:current-layer="Layer_1" />
<g
   id="g6621"
   style="fill:#ffffff">
	<path
   d="M 178.8,564 H 146 L 89.6,486 32.8,564 H 0 L 72.8,463.6 6,371.2 h 32.8 l 50.8,70 50.8,-70 h 32.8 L 106,463.6 Z m 170.4,-54.8 c 0,16.8 -5.6,30.4 -16.8,40 -11.2,9.6 -27.2,14.8 -48,14.8 h -90 v -86 h -43.2 l 18,-24.8 h 25.2 v -82 h 86.4 c 19.6,0 34.4,4.8 44.8,14 10.4,9.2 15.6,21.6 15.6,36.4 0,18.4 -8.4,32.8 -25.2,42 10.8,4 18.8,10.4 24.4,18 6,7.6 8.8,17.2 8.8,27.6 z M 223.6,453.6 h 55.2 c 11.2,0 19.6,-2.4 25.2,-7.6 5.6,-4.8 8.4,-12.4 8.4,-22.4 0,-8.4 -2.8,-15.2 -8.8,-20 -5.6,-4.8 -14,-7.2 -24.8,-7.2 h -55.2 z m 96,54.8 c 0,-10 -3.2,-18 -9.2,-22.8 -6,-5.2 -15.2,-7.6 -27.2,-7.6 h -59.6 v 60.4 h 59.2 c 11.6,0 20.8,-2.8 27.2,-7.6 6.4,-5.2 9.6,-12.8 9.6,-22.4 z m 228,-40.8 c 0,14.8 -2,28.8 -6.4,40.8 -4.4,12 -10.8,22.8 -19.2,32 -8.8,9.2 -18.8,16.4 -30,20.8 -11.2,4.8 -24,6.8 -38.4,6.8 -14,0 -27.2,-2.4 -38.4,-6.8 -11.2,-4.8 -21.2,-11.6 -30,-20.8 -8.8,-9.2 -15.2,-20 -19.6,-32 -4.4,-12 -6.4,-26 -6.4,-40.8 0,-14.8 2,-28.8 6.4,-40.8 4.4,-12 10.8,-23.2 19.6,-32.4 8.4,-9.2 18.4,-16 30,-20.8 11.2,-4.4 24.4,-6.8 38.4,-6.8 14,0 26.8,2.4 38.4,6.8 11.2,4.4 21.6,11.6 30,20.8 8.4,9.2 15.2,20.4 19.2,32.4 4,12 6.4,25.6 6.4,40.8 z m -158,0 c 0,22.8 6,40.8 17.6,54 11.6,13.2 26.8,20 46.4,20 19.2,0 34.8,-6.8 46.4,-20 11.6,-13.2 17.2,-31.2 17.2,-54 0,-22.8 -5.6,-41.2 -17.2,-54.4 -11.6,-13.2 -27.2,-20 -46.4,-20 -19.2,0 -34.8,6.8 -46.4,20 -11.6,13.6 -17.6,31.6 -17.6,54.4 z m 250.8,-4 67.2,-92.4 h -32.8 l -50.8,70 -50.8,-70 h -32.8 l 67.2,92.4 -72.8,100.4 h 32.8 l 56.4,-78 56.8,78 h 32.8 z"
   id="path6617"
   style="fill:#ffffff" />
	<path
   d="m 356.8,128.8 c 0,0 0.4,0 0,0 48.4,36.8 130.4,127.2 105.6,152.8 -28.4,24.8 -65.2,39.6 -105.6,39.6 -40.4,0 -77.6,-14.8 -105.6,-39.6 -25.2,-25.6 57.2,-116 105.2,-152.4 0,-0.4 0.4,-0.4 0.4,-0.4 z M 440.4,23.6 C 416,8.8 389.2,0 356.8,0 c -32.4,0 -59.2,8.8 -83.6,23.6 -0.4,0 -0.4,0.4 -0.4,0.8 0,0.4 0.4,0.4 0.8,0.4 31.2,-6.8 78.4,20 82.8,22.8 h 0.4 0.4 c 4.4,-2.8 51.6,-29.6 82.8,-22.8 0.4,0 0.8,0 0.8,-0.4 0,-0.4 0,-0.8 -0.4,-0.8 z M 244.4,46 c -0.4,0 -0.4,0.4 -0.8,0.4 -29.2,29.2 -47.2,69.6 -47.2,114 0,36.4 12.4,70.4 32.8,97.2 0,0.4 0.4,0.4 0.8,0.4 0.4,0 0.4,-0.4 0,-0.8 -12.4,-38 50.4,-129.6 82.8,-168 l 0.4,-0.4 c 0,-0.4 0,-0.4 -0.4,-0.4 C 263.6,39.6 247.2,44.8 244.4,46 Z m 156.4,42 -0.4,0.4 c 0,0 0,0.4 0.4,0.4 32.4,38.4 94.8,130 82.8,168 v 0.8 c 0.4,0 0.8,0 0.8,-0.4 20.4,-26.8 32.8,-60.8 32.8,-97.2 0,-44.4 -18,-84.8 -47.6,-114 -0.4,-0.4 -0.4,-0.4 -0.8,-0.4 -2.4,-0.8 -18.8,-6 -68,42.4 z"
   id="path6619"
   style="fill:#ffffff" />
</g>
</svg>
